  0
SECTION
  2
HEADER
  9
$ACADVER
  1
AC1014
  9
$HANDSEED
  5
FFFF
  9
$MEASUREMENT
 70
     1
  0
ENDSEC
  0
SECTION
  2
TABLES
  0
TABLE
  2
VPORT
  5
8
330
0
100
AcDbSymbolTable
 70
     4
  0
VPORT
  5
2E
330
8
100
AcDbSymbolTableRecord
100
AcDbViewportTableRecord
  2
*ACTIVE
 70
     0
 10
0.0
 20
0.0
 11
1.0
 21
1.0
 12
210.0
 22
148.5
 13
0.0
 23
0.0
 14
10.0
 24
10.0
 15
10.0
 25
10.0
 16
0.0
 26
0.0
 36
1.0
 17
0.0
 27
0.0
 37
0.0
 40
341.0
 41
1.24
 42
50.0
 43
0.0
 44
0.0
 50
0.0
 51
0.0
 71
     0
 72
   100
 73
     1
 74
     3
 75
     0
 76
     0
 77
     0
 78
     0
  0
ENDTAB
  0
TABLE
  2
LTYPE
  5
5
330
0
100
AcDbSymbolTable
 70
     1
  0
LTYPE
  5
14
330
5
100
AcDbSymbolTableRecord
100
AcDbLinetypeTableRecord
  2
BYBLOCK
 70
     0
  3

 72
    65
 73
     0
 40
0.0
  0
LTYPE
  5
15
330
5
100
AcDbSymbolTableRecord
100
AcDbLinetypeTableRecord
  2
BYLAYER
 70
     0
  3

 72
    65
 73
     0
 40
0.0
  0
LTYPE
  5
16
330
5
100
AcDbSymbolTableRecord
100
AcDbLinetypeTableRecord
  2
CONTINUOUS
 70
     0
  3
Solid line
 72
    65
 73
     0
 40
0.0
  0
ENDTAB
  0
TABLE
  2
LAYER
  5
2
100
AcDbSymbolTable
 70
1
  0
LAYER
  5
50
100
AcDbSymbolTableRecord
100
AcDbLayerTableRecord
  2
0
 70
0
  6
CONTINUOUS
  0
ENDTAB
  0
TABLE
  2
STYLE
  5
3
330
0
100
AcDbSymbolTable
 70
     1
  0
STYLE
  5
11
330
3
100
AcDbSymbolTableRecord
100
AcDbTextStyleTableRecord
  2
STANDARD
 70
     0
 40
0.0
 41
1.0
 50
0.0
 71
     0
 42
2.5
  3
txt
  4

  0
ENDTAB
  0
TABLE
  2
VIEW
  5
6
330
0
100
AcDbSymbolTable
 70
     0
  0
ENDTAB
  0
TABLE
  2
UCS
  5
7
330
0
100
AcDbSymbolTable
 70
     0
  0
ENDTAB
  0
TABLE
  2
APPID
  5
9
330
0
100
AcDbSymbolTable
 70
     2
  0
APPID
  5
12
330
9
100
AcDbSymbolTableRecord
100
AcDbRegAppTableRecord
  2
ACAD
 70
     0
  0
ENDTAB
  0
TABLE
  2
DIMSTYLE
  5
A
330
0
100
AcDbSymbolTable
 70
     1
  0
DIMSTYLE
105
27
330
A
100
AcDbSymbolTableRecord
100
AcDbDimStyleTableRecord
  2
ISO-25
 70
     0
  3

  4

  5

  6

  7

 40
1.0
 41
2.5
 42
0.625
 43
3.75
 44
1.25
 45
0.0
 46
0.0
 47
0.0
 48
0.0
140
2.5
141
2.5
142
0.0
143
0.03937007874016
144
1.0
145
0.0
146
1.0
147
0.625
 71
     0
 72
     0
 73
     0
 74
     0
 75
     0
 76
     0
 77
     1
 78
     8
170
     0
171
     3
172
     1
173
     0
174
     0
175
     0
176
     0
177
     0
178
     0
270
     2
271
     2
272
     2
273
     2
274
     3
340
11
275
     0
280
     0
281
     0
282
     0
283
     0
284
     8
285
     0
286
     0
287
     3
288
     0
  0
ENDTAB
  0
TABLE
  2
BLOCK_RECORD
  5
1
330
0
100
AcDbSymbolTable
 70
     1
  0
BLOCK_RECORD
  5
1F
330
1
100
AcDbSymbolTableRecord
100
AcDbBlockTableRecord
  2
*MODEL_SPACE
  0
BLOCK_RECORD
  5
1B
330
1
100
AcDbSymbolTableRecord
100
AcDbBlockTableRecord
  2
*PAPER_SPACE
  0
ENDTAB
  0
ENDSEC
  0
SECTION
  2
BLOCKS
  0
BLOCK
  5
20
330
1F
100
AcDbEntity
  8
0
100
AcDbBlockBegin
  2
*MODEL_SPACE
 70
     0
 10
0.0
 20
0.0
 30
0.0
  3
*MODEL_SPACE
  1

  0
ENDBLK
  5
21
330
1F
100
AcDbEntity
  8
0
100
AcDbBlockEnd
  0
BLOCK
  5
1C
330
1B
100
AcDbEntity
 67
     1
  8
0
100
AcDbBlockBegin
  2
*PAPER_SPACE
  1

  0
ENDBLK
  5
1D
330
1B
100
AcDbEntity
 67
     1
  8
0
100
AcDbBlockEnd
  0
ENDSEC
  0
SECTION
  2
ENTITIES
  0
LWPOLYLINE
  5
100
100
AcDbEntity
  8
0
 62
1
100
AcDbPolyline
 90
2
 70
0
 10
34.074307
 20
282.130588
 30
0.0
 10
34.074307
 20
295.210598
 30
0.0
  0
LWPOLYLINE
  5
101
100
AcDbEntity
  8
0
 62
1
100
AcDbPolyline
 90
2
 70
0
 10
45.574317
 20
282.130588
 30
0.0
 10
34.074307
 20
282.130588
 30
0.0
  0
LWPOLYLINE
  5
102
100
AcDbEntity
  8
0
 62
1
100
AcDbPolyline
 90
2
 70
0
 10
45.574317
 20
295.210598
 30
0.0
 10
45.574317
 20
282.130588
 30
0.0
  0
LWPOLYLINE
  5
103
100
AcDbEntity
  8
0
 62
1
100
AcDbPolyline
 90
2
 70
0
 10
56.924317
 20
282.130588
 30
0.0
 10
56.924317
 20
295.210598
 30
0.0
  0
LWPOLYLINE
  5
104
100
AcDbEntity
  8
0
 62
1
100
AcDbPolyline
 90
2
 70
0
 10
68.424327
 20
282.130588
 30
0.0
 10
56.924317
 20
282.130588
 30
0.0
  0
LWPOLYLINE
  5
105
100
AcDbEntity
  8
0
 62
1
100
AcDbPolyline
 90
2
 70
0
 10
68.424327
 20
295.210598
 30
0.0
 10
68.424327
 20
282.130588
 30
0.0
  0
LWPOLYLINE
  5
106
100
AcDbEntity
  8
0
 62
1
100
AcDbPolyline
 90
2
 70
0
 10
79.774327
 20
282.130588
 30
0.0
 10
79.774327
 20
295.210598
 30
0.0
  0
LWPOLYLINE
  5
107
100
AcDbEntity
  8
0
 62
1
100
AcDbPolyline
 90
2
 70
0
 10
181.724297
 20
282.130588
 30
0.0
 10
79.774327
 20
282.130588
 30
0.0
  0
LWPOLYLINE
  5
108
100
AcDbEntity
  8
0
 62
1
100
AcDbPolyline
 90
2
 70
0
 10
181.724297
 20
295.210598
 30
0.0
 10
181.724297
 20
282.130588
 30
0.0
  0
LWPOLYLINE
  5
109
100
AcDbEntity
  8
0
 62
1
100
AcDbPolyline
 90
2
 70
0
 10
193.074297
 20
282.130588
 30
0.0
 10
193.074297
 20
295.210598
 30
0.0
  0
LWPOLYLINE
  5
10a
100
AcDbEntity
  8
0
 62
1
100
AcDbPolyline
 90
2
 70
0
 10
204.424297
 20
282.130588
 30
0.0
 10
193.074297
 20
282.130588
 30
0.0
  0
LWPOLYLINE
  5
10b
100
AcDbEntity
  8
0
 62
1
100
AcDbPolyline
 90
2
 70
0
 10
204.424297
 20
295.210598
 30
0.0
 10
204.424297
 20
282.130588
 30
0.0
  0
LWPOLYLINE
  5
10c
100
AcDbEntity
  8
0
 62
1
100
AcDbPolyline
 90
2
 70
0
 10
215.774297
 20
282.130588
 30
0.0
 10
215.774297
 20
295.210598
 30
0.0
  0
LWPOLYLINE
  5
10d
100
AcDbEntity
  8
0
 62
1
100
AcDbPolyline
 90
2
 70
0
 10
227.124297
 20
282.130588
 30
0.0
 10
215.774297
 20
282.130588
 30
0.0
  0
LWPOLYLINE
  5
10e
100
AcDbEntity
  8
0
 62
1
100
AcDbPolyline
 90
2
 70
0
 10
215.774297
 20
181.290607
 30
0.0
 10
227.124297
 20
181.290607
 30
0.0
  0
LWPOLYLINE
  5
10f
100
AcDbEntity
  8
0
 62
1
100
AcDbPolyline
 90
2
 70
0
 10
215.774297
 20
168.210598
 30
0.0
 10
215.774297
 20
181.290607
 30
0.0
  0
LWPOLYLINE
  5
110
100
AcDbEntity
  8
0
 62
1
100
AcDbPolyline
 90
2
 70
0
 10
204.424297
 20
181.290607
 30
0.0
 10
204.424297
 20
168.210598
 30
0.0
  0
LWPOLYLINE
  5
111
100
AcDbEntity
  8
0
 62
1
100
AcDbPolyline
 90
2
 70
0
 10
193.074297
 20
181.290607
 30
0.0
 10
204.424297
 20
181.290607
 30
0.0
  0
LWPOLYLINE
  5
112
100
AcDbEntity
  8
0
 62
1
100
AcDbPolyline
 90
2
 70
0
 10
193.074297
 20
168.210598
 30
0.0
 10
193.074297
 20
181.290607
 30
0.0
  0
LWPOLYLINE
  5
113
100
AcDbEntity
  8
0
 62
1
100
AcDbPolyline
 90
2
 70
0
 10
181.724297
 20
181.290607
 30
0.0
 10
181.724297
 20
168.210598
 30
0.0
  0
LWPOLYLINE
  5
114
100
AcDbEntity
  8
0
 62
1
100
AcDbPolyline
 90
2
 70
0
 10
79.324297
 20
181.290607
 30
0.0
 10
181.724297
 20
181.290607
 30
0.0
  0
LWPOLYLINE
  5
115
100
AcDbEntity
  8
0
 62
1
100
AcDbPolyline
 90
2
 70
0
 10
79.324297
 20
168.210598
 30
0.0
 10
79.324297
 20
181.290607
 30
0.0
  0
LWPOLYLINE
  5
116
100
AcDbEntity
  8
0
 62
1
100
AcDbPolyline
 90
2
 70
0
 10
67.974297
 20
181.290607
 30
0.0
 10
67.974297
 20
168.210598
 30
0.0
  0
LWPOLYLINE
  5
117
100
AcDbEntity
  8
0
 62
1
100
AcDbPolyline
 90
2
 70
0
 10
56.624297
 20
181.290607
 30
0.0
 10
67.974297
 20
181.290607
 30
0.0
  0
LWPOLYLINE
  5
118
100
AcDbEntity
  8
0
 62
1
100
AcDbPolyline
 90
2
 70
0
 10
56.624297
 20
168.210598
 30
0.0
 10
56.624297
 20
181.290607
 30
0.0
  0
LWPOLYLINE
  5
119
100
AcDbEntity
  8
0
 62
1
100
AcDbPolyline
 90
2
 70
0
 10
45.274297
 20
181.290607
 30
0.0
 10
45.274297
 20
168.210598
 30
0.0
  0
LWPOLYLINE
  5
11a
100
AcDbEntity
  8
0
 62
1
100
AcDbPolyline
 90
2
 70
0
 10
33.924297
 20
181.290607
 30
0.0
 10
45.274297
 20
181.290607
 30
0.0
  0
LWPOLYLINE
  5
11b
100
AcDbEntity
  8
0
 62
1
100
AcDbPolyline
 90
2
 70
0
 10
33.924297
 20
168.210598
 30
0.0
 10
33.924297
 20
181.290607
 30
0.0
  0
LWPOLYLINE
  5
11c
100
AcDbEntity
  8
0
 62
1
100
AcDbPolyline
 90
2
 70
0
 10
22.574297
 20
181.290607
 30
0.0
 10
22.574297
 20
168.210598
 30
0.0
  0
LWPOLYLINE
  5
11d
100
AcDbEntity
  8
0
 62
1
100
AcDbPolyline
 90
2
 70
0
 10
11.224297
 20
181.290607
 30
0.0
 10
22.574297
 20
181.290607
 30
0.0
  0
LWPOLYLINE
  5
11e
100
AcDbEntity
  8
0
 62
1
100
AcDbPolyline
 90
2
 70
0
 10
22.724307
 20
282.130588
 30
0.0
 10
11.224297
 20
282.130588
 30
0.0
  0
SPLINE
  5
11f
100
AcDbEntity
  8
0
 62
5
100
AcDbSpline
 70
8
 71
3
 72
8
 73
4
 74
0
 40
0
 40
0
 40
0
 40
0
 40
1
 40
1
 40
1
 40
1
 10
203.139597
 20
200.340607
 30
0.0
 10
203.140062
 20
202.484511
 30
0.0
 10
201.996570
 20
204.465758
 30
0.0
 10
200.139973
 20
205.537844
 30
0.0
  0
SPLINE
  5
120
100
AcDbEntity
  8
0
 62
5
100
AcDbSpline
 70
8
 71
3
 72
8
 73
4
 74
0
 40
0
 40
0
 40
0
 40
0
 40
1
 40
1
 40
1
 40
1
 10
200.139973
 20
205.537844
 30
0.0
 10
198.283375
 20
206.609930
 30
0.0
 10
195.995819
 20
206.609930
 30
0.0
 10
194.139221
 20
205.537844
 30
0.0
  0
SPLINE
  5
121
100
AcDbEntity
  8
0
 62
5
100
AcDbSpline
 70
8
 71
3
 72
8
 73
4
 74
0
 40
0
 40
0
 40
0
 40
0
 40
1
 40
1
 40
1
 40
1
 10
194.139221
 20
205.537844
 30
0.0
 10
192.282624
 20
204.465758
 30
0.0
 10
191.139132
 20
202.484511
 30
0.0
 10
191.139597
 20
200.340607
 30
0.0
  0
SPLINE
  5
122
100
AcDbEntity
  8
0
 62
5
100
AcDbSpline
 70
8
 71
3
 72
8
 73
4
 74
0
 40
0
 40
0
 40
0
 40
0
 40
1
 40
1
 40
1
 40
1
 10
191.139597
 20
200.340607
 30
0.0
 10
191.139132
 20
198.196704
 30
0.0
 10
192.282624
 20
196.215456
 30
0.0
 10
194.139221
 20
195.143370
 30
0.0
  0
SPLINE
  5
123
100
AcDbEntity
  8
0
 62
5
100
AcDbSpline
 70
8
 71
3
 72
8
 73
4
 74
0
 40
0
 40
0
 40
0
 40
0
 40
1
 40
1
 40
1
 40
1
 10
194.139221
 20
195.143370
 30
0.0
 10
195.995819
 20
194.071284
 30
0.0
 10
198.283375
 20
194.071284
 30
0.0
 10
200.139973
 20
195.143370
 30
0.0
  0
SPLINE
  5
124
100
AcDbEntity
  8
0
 62
5
100
AcDbSpline
 70
8
 71
3
 72
8
 73
4
 74
0
 40
0
 40
0
 40
0
 40
0
 40
1
 40
1
 40
1
 40
1
 10
200.139973
 20
195.143370
 30
0.0
 10
201.996570
 20
196.215456
 30
0.0
 10
203.140062
 20
198.196704
 30
0.0
 10
203.139597
 20
200.340607
 30
0.0
  0
LWPOLYLINE
  5
125
100
AcDbEntity
  8
0
 62
1
100
AcDbPolyline
 90
2
 70
0
 10
22.724307
 20
295.210598
 30
0.0
 10
22.724307
 20
282.130588
 30
0.0
  0
SPLINE
  5
126
100
AcDbEntity
  8
0
 62
5
100
AcDbSpline
 70
8
 71
3
 72
8
 73
4
 74
0
 40
0
 40
0
 40
0
 40
0
 40
1
 40
1
 40
1
 40
1
 10
47.208997
 20
200.340607
 30
0.0
 10
47.209462
 20
202.484511
 30
0.0
 10
46.065970
 20
204.465758
 30
0.0
 10
44.209373
 20
205.537844
 30
0.0
  0
SPLINE
  5
127
100
AcDbEntity
  8
0
 62
5
100
AcDbSpline
 70
8
 71
3
 72
8
 73
4
 74
0
 40
0
 40
0
 40
0
 40
0
 40
1
 40
1
 40
1
 40
1
 10
44.209373
 20
205.537844
 30
0.0
 10
42.352775
 20
206.609930
 30
0.0
 10
40.065219
 20
206.609930
 30
0.0
 10
38.208621
 20
205.537844
 30
0.0
  0
SPLINE
  5
128
100
AcDbEntity
  8
0
 62
5
100
AcDbSpline
 70
8
 71
3
 72
8
 73
4
 74
0
 40
0
 40
0
 40
0
 40
0
 40
1
 40
1
 40
1
 40
1
 10
38.208621
 20
205.537844
 30
0.0
 10
36.352024
 20
204.465758
 30
0.0
 10
35.208532
 20
202.484511
 30
0.0
 10
35.208997
 20
200.340607
 30
0.0
  0
SPLINE
  5
129
100
AcDbEntity
  8
0
 62
5
100
AcDbSpline
 70
8
 71
3
 72
8
 73
4
 74
0
 40
0
 40
0
 40
0
 40
0
 40
1
 40
1
 40
1
 40
1
 10
35.208997
 20
200.340607
 30
0.0
 10
35.208532
 20
198.196704
 30
0.0
 10
36.352024
 20
196.215456
 30
0.0
 10
38.208621
 20
195.143370
 30
0.0
  0
SPLINE
  5
12a
100
AcDbEntity
  8
0
 62
5
100
AcDbSpline
 70
8
 71
3
 72
8
 73
4
 74
0
 40
0
 40
0
 40
0
 40
0
 40
1
 40
1
 40
1
 40
1
 10
38.208621
 20
195.143370
 30
0.0
 10
40.065219
 20
194.071284
 30
0.0
 10
42.352775
 20
194.071284
 30
0.0
 10
44.209373
 20
195.143370
 30
0.0
  0
SPLINE
  5
12b
100
AcDbEntity
  8
0
 62
5
100
AcDbSpline
 70
8
 71
3
 72
8
 73
4
 74
0
 40
0
 40
0
 40
0
 40
0
 40
1
 40
1
 40
1
 40
1
 10
44.209373
 20
195.143370
 30
0.0
 10
46.065970
 20
196.215456
 30
0.0
 10
47.209462
 20
198.196704
 30
0.0
 10
47.208997
 20
200.340607
 30
0.0
  0
LWPOLYLINE
  5
12c
100
AcDbEntity
  8
0
 62
5
100
AcDbPolyline
 90
2
 70
1
 10
203.139597
 20
200.340607
 30
0.0
 10
203.139597
 20
200.340607
 30
0.0
  0
SPLINE
  5
12d
100
AcDbEntity
  8
0
 62
5
100
AcDbSpline
 70
8
 71
3
 72
8
 73
4
 74
0
 40
0
 40
0
 40
0
 40
0
 40
1
 40
1
 40
1
 40
1
 10
211.813797
 20
289.750588
 30
0.0
 10
211.813797
 20
290.363120
 30
0.0
 10
211.487015
 20
290.929123
 30
0.0
 10
210.956547
 20
291.235389
 30
0.0
  0
SPLINE
  5
12e
100
AcDbEntity
  8
0
 62
5
100
AcDbSpline
 70
8
 71
3
 72
8
 73
4
 74
0
 40
0
 40
0
 40
0
 40
0
 40
1
 40
1
 40
1
 40
1
 10
210.956547
 20
291.235389
 30
0.0
 10
210.426079
 20
291.541655
 30
0.0
 10
209.772515
 20
291.541655
 30
0.0
 10
209.242047
 20
291.235389
 30
0.0
  0
SPLINE
  5
12f
100
AcDbEntity
  8
0
 62
5
100
AcDbSpline
 70
8
 71
3
 72
8
 73
4
 74
0
 40
0
 40
0
 40
0
 40
0
 40
1
 40
1
 40
1
 40
1
 10
209.242047
 20
291.235389
 30
0.0
 10
208.711579
 20
290.929123
 30
0.0
 10
208.384797
 20
290.363120
 30
0.0
 10
208.384797
 20
289.750588
 30
0.0
  0
SPLINE
  5
130
100
AcDbEntity
  8
0
 62
5
100
AcDbSpline
 70
8
 71
3
 72
8
 73
4
 74
0
 40
0
 40
0
 40
0
 40
0
 40
1
 40
1
 40
1
 40
1
 10
208.384797
 20
289.750588
 30
0.0
 10
208.384797
 20
289.138056
 30
0.0
 10
208.711579
 20
288.572054
 30
0.0
 10
209.242047
 20
288.265788
 30
0.0
  0
SPLINE
  5
131
100
AcDbEntity
  8
0
 62
5
100
AcDbSpline
 70
8
 71
3
 72
8
 73
4
 74
0
 40
0
 40
0
 40
0
 40
0
 40
1
 40
1
 40
1
 40
1
 10
209.242047
 20
288.265788
 30
0.0
 10
209.772515
 20
287.959522
 30
0.0
 10
210.426079
 20
287.959522
 30
0.0
 10
210.956547
 20
288.265788
 30
0.0
  0
SPLINE
  5
132
100
AcDbEntity
  8
0
 62
5
100
AcDbSpline
 70
8
 71
3
 72
8
 73
4
 74
0
 40
0
 40
0
 40
0
 40
0
 40
1
 40
1
 40
1
 40
1
 10
210.956547
 20
288.265788
 30
0.0
 10
211.487015
 20
288.572054
 30
0.0
 10
211.813797
 20
289.138056
 30
0.0
 10
211.813797
 20
289.750588
 30
0.0
  0
LWPOLYLINE
  5
133
100
AcDbEntity
  8
0
 62
5
100
AcDbPolyline
 90
2
 70
1
 10
47.208997
 20
200.340607
 30
0.0
 10
47.208997
 20
200.340607
 30
0.0
  0
SPLINE
  5
134
100
AcDbEntity
  8
0
 62
5
100
AcDbSpline
 70
8
 71
3
 72
8
 73
4
 74
0
 40
0
 40
0
 40
0
 40
0
 40
1
 40
1
 40
1
 40
1
 10
29.963797
 20
173.670607
 30
0.0
 10
29.963797
 20
174.283139
 30
0.0
 10
29.637015
 20
174.849142
 30
0.0
 10
29.106547
 20
175.155408
 30
0.0
  0
SPLINE
  5
135
100
AcDbEntity
  8
0
 62
5
100
AcDbSpline
 70
8
 71
3
 72
8
 73
4
 74
0
 40
0
 40
0
 40
0
 40
0
 40
1
 40
1
 40
1
 40
1
 10
29.106547
 20
175.155408
 30
0.0
 10
28.576079
 20
175.461674
 30
0.0
 10
27.922515
 20
175.461674
 30
0.0
 10
27.392047
 20
175.155408
 30
0.0
  0
SPLINE
  5
136
100
AcDbEntity
  8
0
 62
5
100
AcDbSpline
 70
8
 71
3
 72
8
 73
4
 74
0
 40
0
 40
0
 40
0
 40
0
 40
1
 40
1
 40
1
 40
1
 10
27.392047
 20
175.155408
 30
0.0
 10
26.861579
 20
174.849142
 30
0.0
 10
26.534797
 20
174.283139
 30
0.0
 10
26.534797
 20
173.670607
 30
0.0
  0
SPLINE
  5
137
100
AcDbEntity
  8
0
 62
5
100
AcDbSpline
 70
8
 71
3
 72
8
 73
4
 74
0
 40
0
 40
0
 40
0
 40
0
 40
1
 40
1
 40
1
 40
1
 10
26.534797
 20
173.670607
 30
0.0
 10
26.534797
 20
173.058075
 30
0.0
 10
26.861579
 20
172.492072
 30
0.0
 10
27.392047
 20
172.185807
 30
0.0
  0
SPLINE
  5
138
100
AcDbEntity
  8
0
 62
5
100
AcDbSpline
 70
8
 71
3
 72
8
 73
4
 74
0
 40
0
 40
0
 40
0
 40
0
 40
1
 40
1
 40
1
 40
1
 10
27.392047
 20
172.185807
 30
0.0
 10
27.922515
 20
171.879541
 30
0.0
 10
28.576079
 20
171.879541
 30
0.0
 10
29.106547
 20
172.185807
 30
0.0
  0
SPLINE
  5
139
100
AcDbEntity
  8
0
 62
5
100
AcDbSpline
 70
8
 71
3
 72
8
 73
4
 74
0
 40
0
 40
0
 40
0
 40
0
 40
1
 40
1
 40
1
 40
1
 10
29.106547
 20
172.185807
 30
0.0
 10
29.637015
 20
172.492072
 30
0.0
 10
29.963797
 20
173.058075
 30
0.0
 10
29.963797
 20
173.670607
 30
0.0
  0
LWPOLYLINE
  5
13a
100
AcDbEntity
  8
0
 62
5
100
AcDbPolyline
 90
2
 70
1
 10
211.813797
 20
289.750588
 30
0.0
 10
211.813797
 20
289.750588
 30
0.0
  0
SPLINE
  5
13b
100
AcDbEntity
  8
0
 62
5
100
AcDbSpline
 70
8
 71
3
 72
8
 73
4
 74
0
 40
0
 40
0
 40
0
 40
0
 40
1
 40
1
 40
1
 40
1
 10
52.663797
 20
173.670607
 30
0.0
 10
52.663797
 20
174.283139
 30
0.0
 10
52.337015
 20
174.849142
 30
0.0
 10
51.806547
 20
175.155408
 30
0.0
  0
SPLINE
  5
13c
100
AcDbEntity
  8
0
 62
5
100
AcDbSpline
 70
8
 71
3
 72
8
 73
4
 74
0
 40
0
 40
0
 40
0
 40
0
 40
1
 40
1
 40
1
 40
1
 10
51.806547
 20
175.155408
 30
0.0
 10
51.276079
 20
175.461674
 30
0.0
 10
50.622515
 20
175.461674
 30
0.0
 10
50.092047
 20
175.155408
 30
0.0
  0
SPLINE
  5
13d
100
AcDbEntity
  8
0
 62
5
100
AcDbSpline
 70
8
 71
3
 72
8
 73
4
 74
0
 40
0
 40
0
 40
0
 40
0
 40
1
 40
1
 40
1
 40
1
 10
50.092047
 20
175.155408
 30
0.0
 10
49.561579
 20
174.849142
 30
0.0
 10
49.234797
 20
174.283139
 30
0.0
 10
49.234797
 20
173.670607
 30
0.0
  0
SPLINE
  5
13e
100
AcDbEntity
  8
0
 62
5
100
AcDbSpline
 70
8
 71
3
 72
8
 73
4
 74
0
 40
0
 40
0
 40
0
 40
0
 40
1
 40
1
 40
1
 40
1
 10
49.234797
 20
173.670607
 30
0.0
 10
49.234797
 20
173.058075
 30
0.0
 10
49.561579
 20
172.492072
 30
0.0
 10
50.092047
 20
172.185807
 30
0.0
  0
SPLINE
  5
13f
100
AcDbEntity
  8
0
 62
5
100
AcDbSpline
 70
8
 71
3
 72
8
 73
4
 74
0
 40
0
 40
0
 40
0
 40
0
 40
1
 40
1
 40
1
 40
1
 10
50.092047
 20
172.185807
 30
0.0
 10
50.622515
 20
171.879541
 30
0.0
 10
51.276079
 20
171.879541
 30
0.0
 10
51.806547
 20
172.185807
 30
0.0
  0
SPLINE
  5
140
100
AcDbEntity
  8
0
 62
5
100
AcDbSpline
 70
8
 71
3
 72
8
 73
4
 74
0
 40
0
 40
0
 40
0
 40
0
 40
1
 40
1
 40
1
 40
1
 10
51.806547
 20
172.185807
 30
0.0
 10
52.337015
 20
172.492072
 30
0.0
 10
52.663797
 20
173.058075
 30
0.0
 10
52.663797
 20
173.670607
 30
0.0
  0
LWPOLYLINE
  5
141
100
AcDbEntity
  8
0
 62
5
100
AcDbPolyline
 90
2
 70
1
 10
29.963797
 20
173.670607
 30
0.0
 10
29.963797
 20
173.670607
 30
0.0
  0
SPLINE
  5
142
100
AcDbEntity
  8
0
 62
5
100
AcDbSpline
 70
8
 71
3
 72
8
 73
4
 74
0
 40
0
 40
0
 40
0
 40
0
 40
1
 40
1
 40
1
 40
1
 10
75.363797
 20
173.670607
 30
0.0
 10
75.363797
 20
174.283139
 30
0.0
 10
75.037015
 20
174.849142
 30
0.0
 10
74.506547
 20
175.155408
 30
0.0
  0
SPLINE
  5
143
100
AcDbEntity
  8
0
 62
5
100
AcDbSpline
 70
8
 71
3
 72
8
 73
4
 74
0
 40
0
 40
0
 40
0
 40
0
 40
1
 40
1
 40
1
 40
1
 10
74.506547
 20
175.155408
 30
0.0
 10
73.976079
 20
175.461674
 30
0.0
 10
73.322515
 20
175.461674
 30
0.0
 10
72.792047
 20
175.155408
 30
0.0
  0
SPLINE
  5
144
100
AcDbEntity
  8
0
 62
5
100
AcDbSpline
 70
8
 71
3
 72
8
 73
4
 74
0
 40
0
 40
0
 40
0
 40
0
 40
1
 40
1
 40
1
 40
1
 10
72.792047
 20
175.155408
 30
0.0
 10
72.261579
 20
174.849142
 30
0.0
 10
71.934797
 20
174.283139
 30
0.0
 10
71.934797
 20
173.670607
 30
0.0
  0
SPLINE
  5
145
100
AcDbEntity
  8
0
 62
5
100
AcDbSpline
 70
8
 71
3
 72
8
 73
4
 74
0
 40
0
 40
0
 40
0
 40
0
 40
1
 40
1
 40
1
 40
1
 10
71.934797
 20
173.670607
 30
0.0
 10
71.934797
 20
173.058075
 30
0.0
 10
72.261579
 20
172.492072
 30
0.0
 10
72.792047
 20
172.185807
 30
0.0
  0
SPLINE
  5
146
100
AcDbEntity
  8
0
 62
5
100
AcDbSpline
 70
8
 71
3
 72
8
 73
4
 74
0
 40
0
 40
0
 40
0
 40
0
 40
1
 40
1
 40
1
 40
1
 10
72.792047
 20
172.185807
 30
0.0
 10
73.322515
 20
171.879541
 30
0.0
 10
73.976079
 20
171.879541
 30
0.0
 10
74.506547
 20
172.185807
 30
0.0
  0
SPLINE
  5
147
100
AcDbEntity
  8
0
 62
5
100
AcDbSpline
 70
8
 71
3
 72
8
 73
4
 74
0
 40
0
 40
0
 40
0
 40
0
 40
1
 40
1
 40
1
 40
1
 10
74.506547
 20
172.185807
 30
0.0
 10
75.037015
 20
172.492072
 30
0.0
 10
75.363797
 20
173.058075
 30
0.0
 10
75.363797
 20
173.670607
 30
0.0
  0
LWPOLYLINE
  5
148
100
AcDbEntity
  8
0
 62
5
100
AcDbPolyline
 90
2
 70
1
 10
52.663797
 20
173.670607
 30
0.0
 10
52.663797
 20
173.670607
 30
0.0
  0
SPLINE
  5
149
100
AcDbEntity
  8
0
 62
5
100
AcDbSpline
 70
8
 71
3
 72
8
 73
4
 74
0
 40
0
 40
0
 40
0
 40
0
 40
1
 40
1
 40
1
 40
1
 10
211.813797
 20
173.670607
 30
0.0
 10
211.813797
 20
174.283139
 30
0.0
 10
211.487015
 20
174.849142
 30
0.0
 10
210.956547
 20
175.155408
 30
0.0
  0
SPLINE
  5
14a
100
AcDbEntity
  8
0
 62
5
100
AcDbSpline
 70
8
 71
3
 72
8
 73
4
 74
0
 40
0
 40
0
 40
0
 40
0
 40
1
 40
1
 40
1
 40
1
 10
210.956547
 20
175.155408
 30
0.0
 10
210.426079
 20
175.461674
 30
0.0
 10
209.772515
 20
175.461674
 30
0.0
 10
209.242047
 20
175.155408
 30
0.0
  0
SPLINE
  5
14b
100
AcDbEntity
  8
0
 62
5
100
AcDbSpline
 70
8
 71
3
 72
8
 73
4
 74
0
 40
0
 40
0
 40
0
 40
0
 40
1
 40
1
 40
1
 40
1
 10
209.242047
 20
175.155408
 30
0.0
 10
208.711579
 20
174.849142
 30
0.0
 10
208.384797
 20
174.283139
 30
0.0
 10
208.384797
 20
173.670607
 30
0.0
  0
SPLINE
  5
14c
100
AcDbEntity
  8
0
 62
5
100
AcDbSpline
 70
8
 71
3
 72
8
 73
4
 74
0
 40
0
 40
0
 40
0
 40
0
 40
1
 40
1
 40
1
 40
1
 10
208.384797
 20
173.670607
 30
0.0
 10
208.384797
 20
173.058075
 30
0.0
 10
208.711579
 20
172.492072
 30
0.0
 10
209.242047
 20
172.185807
 30
0.0
  0
SPLINE
  5
14d
100
AcDbEntity
  8
0
 62
5
100
AcDbSpline
 70
8
 71
3
 72
8
 73
4
 74
0
 40
0
 40
0
 40
0
 40
0
 40
1
 40
1
 40
1
 40
1
 10
209.242047
 20
172.185807
 30
0.0
 10
209.772515
 20
171.879541
 30
0.0
 10
210.426079
 20
171.879541
 30
0.0
 10
210.956547
 20
172.185807
 30
0.0
  0
SPLINE
  5
14e
100
AcDbEntity
  8
0
 62
5
100
AcDbSpline
 70
8
 71
3
 72
8
 73
4
 74
0
 40
0
 40
0
 40
0
 40
0
 40
1
 40
1
 40
1
 40
1
 10
210.956547
 20
172.185807
 30
0.0
 10
211.487015
 20
172.492072
 30
0.0
 10
211.813797
 20
173.058075
 30
0.0
 10
211.813797
 20
173.670607
 30
0.0
  0
LWPOLYLINE
  5
14f
100
AcDbEntity
  8
0
 62
5
100
AcDbPolyline
 90
2
 70
1
 10
75.363797
 20
173.670607
 30
0.0
 10
75.363797
 20
173.670607
 30
0.0
  0
SPLINE
  5
150
100
AcDbEntity
  8
0
 62
5
100
AcDbSpline
 70
8
 71
3
 72
8
 73
4
 74
0
 40
0
 40
0
 40
0
 40
0
 40
1
 40
1
 40
1
 40
1
 10
189.113797
 20
173.670607
 30
0.0
 10
189.113797
 20
174.283139
 30
0.0
 10
188.787015
 20
174.849142
 30
0.0
 10
188.256547
 20
175.155408
 30
0.0
  0
SPLINE
  5
151
100
AcDbEntity
  8
0
 62
5
100
AcDbSpline
 70
8
 71
3
 72
8
 73
4
 74
0
 40
0
 40
0
 40
0
 40
0
 40
1
 40
1
 40
1
 40
1
 10
188.256547
 20
175.155408
 30
0.0
 10
187.726079
 20
175.461674
 30
0.0
 10
187.072515
 20
175.461674
 30
0.0
 10
186.542047
 20
175.155408
 30
0.0
  0
SPLINE
  5
152
100
AcDbEntity
  8
0
 62
5
100
AcDbSpline
 70
8
 71
3
 72
8
 73
4
 74
0
 40
0
 40
0
 40
0
 40
0
 40
1
 40
1
 40
1
 40
1
 10
186.542047
 20
175.155408
 30
0.0
 10
186.011579
 20
174.849142
 30
0.0
 10
185.684797
 20
174.283139
 30
0.0
 10
185.684797
 20
173.670607
 30
0.0
  0
SPLINE
  5
153
100
AcDbEntity
  8
0
 62
5
100
AcDbSpline
 70
8
 71
3
 72
8
 73
4
 74
0
 40
0
 40
0
 40
0
 40
0
 40
1
 40
1
 40
1
 40
1
 10
185.684797
 20
173.670607
 30
0.0
 10
185.684797
 20
173.058075
 30
0.0
 10
186.011579
 20
172.492072
 30
0.0
 10
186.542047
 20
172.185807
 30
0.0
  0
SPLINE
  5
154
100
AcDbEntity
  8
0
 62
5
100
AcDbSpline
 70
8
 71
3
 72
8
 73
4
 74
0
 40
0
 40
0
 40
0
 40
0
 40
1
 40
1
 40
1
 40
1
 10
186.542047
 20
172.185807
 30
0.0
 10
187.072515
 20
171.879541
 30
0.0
 10
187.726079
 20
171.879541
 30
0.0
 10
188.256547
 20
172.185807
 30
0.0
  0
SPLINE
  5
155
100
AcDbEntity
  8
0
 62
5
100
AcDbSpline
 70
8
 71
3
 72
8
 73
4
 74
0
 40
0
 40
0
 40
0
 40
0
 40
1
 40
1
 40
1
 40
1
 10
188.256547
 20
172.185807
 30
0.0
 10
188.787015
 20
172.492072
 30
0.0
 10
189.113797
 20
173.058075
 30
0.0
 10
189.113797
 20
173.670607
 30
0.0
  0
LWPOLYLINE
  5
156
100
AcDbEntity
  8
0
 62
5
100
AcDbPolyline
 90
2
 70
1
 10
211.813797
 20
173.670607
 30
0.0
 10
211.813797
 20
173.670607
 30
0.0
  0
SPLINE
  5
157
100
AcDbEntity
  8
0
 62
5
100
AcDbSpline
 70
8
 71
3
 72
8
 73
4
 74
0
 40
0
 40
0
 40
0
 40
0
 40
1
 40
1
 40
1
 40
1
 10
30.113807
 20
289.750588
 30
0.0
 10
30.113807
 20
290.363120
 30
0.0
 10
29.787025
 20
290.929123
 30
0.0
 10
29.256557
 20
291.235389
 30
0.0
  0
SPLINE
  5
158
100
AcDbEntity
  8
0
 62
5
100
AcDbSpline
 70
8
 71
3
 72
8
 73
4
 74
0
 40
0
 40
0
 40
0
 40
0
 40
1
 40
1
 40
1
 40
1
 10
29.256557
 20
291.235389
 30
0.0
 10
28.726089
 20
291.541655
 30
0.0
 10
28.072525
 20
291.541655
 30
0.0
 10
27.542057
 20
291.235389
 30
0.0
  0
SPLINE
  5
159
100
AcDbEntity
  8
0
 62
5
100
AcDbSpline
 70
8
 71
3
 72
8
 73
4
 74
0
 40
0
 40
0
 40
0
 40
0
 40
1
 40
1
 40
1
 40
1
 10
27.542057
 20
291.235389
 30
0.0
 10
27.011589
 20
290.929123
 30
0.0
 10
26.684807
 20
290.363120
 30
0.0
 10
26.684807
 20
289.750588
 30
0.0
  0
SPLINE
  5
15a
100
AcDbEntity
  8
0
 62
5
100
AcDbSpline
 70
8
 71
3
 72
8
 73
4
 74
0
 40
0
 40
0
 40
0
 40
0
 40
1
 40
1
 40
1
 40
1
 10
26.684807
 20
289.750588
 30
0.0
 10
26.684807
 20
289.138056
 30
0.0
 10
27.011589
 20
288.572054
 30
0.0
 10
27.542057
 20
288.265788
 30
0.0
  0
SPLINE
  5
15b
100
AcDbEntity
  8
0
 62
5
100
AcDbSpline
 70
8
 71
3
 72
8
 73
4
 74
0
 40
0
 40
0
 40
0
 40
0
 40
1
 40
1
 40
1
 40
1
 10
27.542057
 20
288.265788
 30
0.0
 10
28.072525
 20
287.959522
 30
0.0
 10
28.726089
 20
287.959522
 30
0.0
 10
29.256557
 20
288.265788
 30
0.0
  0
SPLINE
  5
15c
100
AcDbEntity
  8
0
 62
5
100
AcDbSpline
 70
8
 71
3
 72
8
 73
4
 74
0
 40
0
 40
0
 40
0
 40
0
 40
1
 40
1
 40
1
 40
1
 10
29.256557
 20
288.265788
 30
0.0
 10
29.787025
 20
288.572054
 30
0.0
 10
30.113807
 20
289.138056
 30
0.0
 10
30.113807
 20
289.750588
 30
0.0
  0
LWPOLYLINE
  5
15d
100
AcDbEntity
  8
0
 62
5
100
AcDbPolyline
 90
2
 70
1
 10
189.113797
 20
173.670607
 30
0.0
 10
189.113797
 20
173.670607
 30
0.0
  0
SPLINE
  5
15e
100
AcDbEntity
  8
0
 62
5
100
AcDbSpline
 70
8
 71
3
 72
8
 73
4
 74
0
 40
0
 40
0
 40
0
 40
0
 40
1
 40
1
 40
1
 40
1
 10
52.963817
 20
289.750588
 30
0.0
 10
52.963817
 20
290.363120
 30
0.0
 10
52.637035
 20
290.929123
 30
0.0
 10
52.106567
 20
291.235389
 30
0.0
  0
SPLINE
  5
15f
100
AcDbEntity
  8
0
 62
5
100
AcDbSpline
 70
8
 71
3
 72
8
 73
4
 74
0
 40
0
 40
0
 40
0
 40
0
 40
1
 40
1
 40
1
 40
1
 10
52.106567
 20
291.235389
 30
0.0
 10
51.576099
 20
291.541655
 30
0.0
 10
50.922535
 20
291.541655
 30
0.0
 10
50.392067
 20
291.235389
 30
0.0
  0
SPLINE
  5
160
100
AcDbEntity
  8
0
 62
5
100
AcDbSpline
 70
8
 71
3
 72
8
 73
4
 74
0
 40
0
 40
0
 40
0
 40
0
 40
1
 40
1
 40
1
 40
1
 10
50.392067
 20
291.235389
 30
0.0
 10
49.861599
 20
290.929123
 30
0.0
 10
49.534817
 20
290.363120
 30
0.0
 10
49.534817
 20
289.750588
 30
0.0
  0
SPLINE
  5
161
100
AcDbEntity
  8
0
 62
5
100
AcDbSpline
 70
8
 71
3
 72
8
 73
4
 74
0
 40
0
 40
0
 40
0
 40
0
 40
1
 40
1
 40
1
 40
1
 10
49.534817
 20
289.750588
 30
0.0
 10
49.534817
 20
289.138056
 30
0.0
 10
49.861599
 20
288.572054
 30
0.0
 10
50.392067
 20
288.265788
 30
0.0
  0
SPLINE
  5
162
100
AcDbEntity
  8
0
 62
5
100
AcDbSpline
 70
8
 71
3
 72
8
 73
4
 74
0
 40
0
 40
0
 40
0
 40
0
 40
1
 40
1
 40
1
 40
1
 10
50.392067
 20
288.265788
 30
0.0
 10
50.922535
 20
287.959522
 30
0.0
 10
51.576099
 20
287.959522
 30
0.0
 10
52.106567
 20
288.265788
 30
0.0
  0
SPLINE
  5
163
100
AcDbEntity
  8
0
 62
5
100
AcDbSpline
 70
8
 71
3
 72
8
 73
4
 74
0
 40
0
 40
0
 40
0
 40
0
 40
1
 40
1
 40
1
 40
1
 10
52.106567
 20
288.265788
 30
0.0
 10
52.637035
 20
288.572054
 30
0.0
 10
52.963817
 20
289.138056
 30
0.0
 10
52.963817
 20
289.750588
 30
0.0
  0
LWPOLYLINE
  5
164
100
AcDbEntity
  8
0
 62
5
100
AcDbPolyline
 90
2
 70
1
 10
30.113807
 20
289.750588
 30
0.0
 10
30.113807
 20
289.750588
 30
0.0
  0
SPLINE
  5
165
100
AcDbEntity
  8
0
 62
5
100
AcDbSpline
 70
8
 71
3
 72
8
 73
4
 74
0
 40
0
 40
0
 40
0
 40
0
 40
1
 40
1
 40
1
 40
1
 10
75.813827
 20
289.750588
 30
0.0
 10
75.813827
 20
290.363120
 30
0.0
 10
75.487045
 20
290.929123
 30
0.0
 10
74.956577
 20
291.235389
 30
0.0
  0
SPLINE
  5
166
100
AcDbEntity
  8
0
 62
5
100
AcDbSpline
 70
8
 71
3
 72
8
 73
4
 74
0
 40
0
 40
0
 40
0
 40
0
 40
1
 40
1
 40
1
 40
1
 10
74.956577
 20
291.235389
 30
0.0
 10
74.426109
 20
291.541655
 30
0.0
 10
73.772545
 20
291.541655
 30
0.0
 10
73.242077
 20
291.235389
 30
0.0
  0
SPLINE
  5
167
100
AcDbEntity
  8
0
 62
5
100
AcDbSpline
 70
8
 71
3
 72
8
 73
4
 74
0
 40
0
 40
0
 40
0
 40
0
 40
1
 40
1
 40
1
 40
1
 10
73.242077
 20
291.235389
 30
0.0
 10
72.711609
 20
290.929123
 30
0.0
 10
72.384827
 20
290.363120
 30
0.0
 10
72.384827
 20
289.750588
 30
0.0
  0
SPLINE
  5
168
100
AcDbEntity
  8
0
 62
5
100
AcDbSpline
 70
8
 71
3
 72
8
 73
4
 74
0
 40
0
 40
0
 40
0
 40
0
 40
1
 40
1
 40
1
 40
1
 10
72.384827
 20
289.750588
 30
0.0
 10
72.384827
 20
289.138056
 30
0.0
 10
72.711609
 20
288.572054
 30
0.0
 10
73.242077
 20
288.265788
 30
0.0
  0
SPLINE
  5
169
100
AcDbEntity
  8
0
 62
5
100
AcDbSpline
 70
8
 71
3
 72
8
 73
4
 74
0
 40
0
 40
0
 40
0
 40
0
 40
1
 40
1
 40
1
 40
1
 10
73.242077
 20
288.265788
 30
0.0
 10
73.772545
 20
287.959522
 30
0.0
 10
74.426109
 20
287.959522
 30
0.0
 10
74.956577
 20
288.265788
 30
0.0
  0
SPLINE
  5
16a
100
AcDbEntity
  8
0
 62
5
100
AcDbSpline
 70
8
 71
3
 72
8
 73
4
 74
0
 40
0
 40
0
 40
0
 40
0
 40
1
 40
1
 40
1
 40
1
 10
74.956577
 20
288.265788
 30
0.0
 10
75.487045
 20
288.572054
 30
0.0
 10
75.813827
 20
289.138056
 30
0.0
 10
75.813827
 20
289.750588
 30
0.0
  0
LWPOLYLINE
  5
16b
100
AcDbEntity
  8
0
 62
5
100
AcDbPolyline
 90
2
 70
1
 10
52.963817
 20
289.750588
 30
0.0
 10
52.963817
 20
289.750588
 30
0.0
  0
SPLINE
  5
16c
100
AcDbEntity
  8
0
 62
5
100
AcDbSpline
 70
8
 71
3
 72
8
 73
4
 74
0
 40
0
 40
0
 40
0
 40
0
 40
1
 40
1
 40
1
 40
1
 10
189.113797
 20
289.750588
 30
0.0
 10
189.113797
 20
290.363120
 30
0.0
 10
188.787015
 20
290.929123
 30
0.0
 10
188.256547
 20
291.235389
 30
0.0
  0
SPLINE
  5
16d
100
AcDbEntity
  8
0
 62
5
100
AcDbSpline
 70
8
 71
3
 72
8
 73
4
 74
0
 40
0
 40
0
 40
0
 40
0
 40
1
 40
1
 40
1
 40
1
 10
188.256547
 20
291.235389
 30
0.0
 10
187.726079
 20
291.541655
 30
0.0
 10
187.072515
 20
291.541655
 30
0.0
 10
186.542047
 20
291.235389
 30
0.0
  0
SPLINE
  5
16e
100
AcDbEntity
  8
0
 62
5
100
AcDbSpline
 70
8
 71
3
 72
8
 73
4
 74
0
 40
0
 40
0
 40
0
 40
0
 40
1
 40
1
 40
1
 40
1
 10
186.542047
 20
291.235389
 30
0.0
 10
186.011579
 20
290.929123
 30
0.0
 10
185.684797
 20
290.363120
 30
0.0
 10
185.684797
 20
289.750588
 30
0.0
  0
SPLINE
  5
16f
100
AcDbEntity
  8
0
 62
5
100
AcDbSpline
 70
8
 71
3
 72
8
 73
4
 74
0
 40
0
 40
0
 40
0
 40
0
 40
1
 40
1
 40
1
 40
1
 10
185.684797
 20
289.750588
 30
0.0
 10
185.684797
 20
289.138056
 30
0.0
 10
186.011579
 20
288.572054
 30
0.0
 10
186.542047
 20
288.265788
 30
0.0
  0
SPLINE
  5
170
100
AcDbEntity
  8
0
 62
5
100
AcDbSpline
 70
8
 71
3
 72
8
 73
4
 74
0
 40
0
 40
0
 40
0
 40
0
 40
1
 40
1
 40
1
 40
1
 10
186.542047
 20
288.265788
 30
0.0
 10
187.072515
 20
287.959522
 30
0.0
 10
187.726079
 20
287.959522
 30
0.0
 10
188.256547
 20
288.265788
 30
0.0
  0
SPLINE
  5
171
100
AcDbEntity
  8
0
 62
5
100
AcDbSpline
 70
8
 71
3
 72
8
 73
4
 74
0
 40
0
 40
0
 40
0
 40
0
 40
1
 40
1
 40
1
 40
1
 10
188.256547
 20
288.265788
 30
0.0
 10
188.787015
 20
288.572054
 30
0.0
 10
189.113797
 20
289.138056
 30
0.0
 10
189.113797
 20
289.750588
 30
0.0
  0
LWPOLYLINE
  5
172
100
AcDbEntity
  8
0
 62
5
100
AcDbPolyline
 90
2
 70
1
 10
75.813827
 20
289.750588
 30
0.0
 10
75.813827
 20
289.750588
 30
0.0
  0
LWPOLYLINE
  5
173
100
AcDbEntity
  8
0
 62
5
100
AcDbPolyline
 90
2
 70
1
 10
189.113797
 20
289.750588
 30
0.0
 10
189.113797
 20
289.750588
 30
0.0
  0
LWPOLYLINE
  5
174
100
AcDbEntity
  8
0
 62
5
100
AcDbPolyline
 90
5
 70
0
 10
17.574297
 20
258.680597
 30
0.0
 10
20.749297
 20
258.680597
 30
0.0
 10
20.749297
 20
270.030587
 30
0.0
 10
17.574297
 20
270.030587
 30
0.0
 10
17.574297
 20
258.680597
 30
0.0
  0
LWPOLYLINE
  5
175
100
AcDbEntity
  8
0
 62
5
100
AcDbPolyline
 90
5
 70
0
 10
217.599297
 20
206.690607
 30
0.0
 10
220.774297
 20
206.690607
 30
0.0
 10
220.774297
 20
218.040597
 30
0.0
 10
217.599297
 20
218.040597
 30
0.0
 10
217.599297
 20
206.690607
 30
0.0
  0
LWPOLYLINE
  5
176
100
AcDbEntity
  8
0
 62
5
100
AcDbPolyline
 90
5
 70
0
 10
217.599297
 20
258.680597
 30
0.0
 10
220.774297
 20
258.680597
 30
0.0
 10
220.774297
 20
270.030587
 30
0.0
 10
217.599297
 20
270.030587
 30
0.0
 10
217.599297
 20
258.680597
 30
0.0
  0
LWPOLYLINE
  5
177
100
AcDbEntity
  8
0
 62
5
100
AcDbPolyline
 90
5
 70
0
 10
17.574297
 20
206.690607
 30
0.0
 10
20.749297
 20
206.690607
 30
0.0
 10
20.749297
 20
218.040597
 30
0.0
 10
17.574297
 20
218.040597
 30
0.0
 10
17.574297
 20
206.690607
 30
0.0
  0
LWPOLYLINE
  5
178
100
AcDbEntity
  8
0
 62
1
100
AcDbPolyline
 90
2
 70
0
 10
34.074307
 20
295.210598
 30
0.0
 10
22.724307
 20
295.210598
 30
0.0
  0
LWPOLYLINE
  5
179
100
AcDbEntity
  8
0
 62
1
100
AcDbPolyline
 90
2
 70
0
 10
227.124297
 20
181.290607
 30
0.0
 10
227.124297
 20
282.130588
 30
0.0
  0
LWPOLYLINE
  5
17a
100
AcDbEntity
  8
0
 62
1
100
AcDbPolyline
 90
2
 70
0
 10
22.574297
 20
168.210598
 30
0.0
 10
33.924297
 20
168.210598
 30
0.0
  0
LWPOLYLINE
  5
17b
100
AcDbEntity
  8
0
 62
1
100
AcDbPolyline
 90
2
 70
0
 10
11.224297
 20
282.130588
 30
0.0
 10
11.224297
 20
181.290607
 30
0.0
  0
LWPOLYLINE
  5
17c
100
AcDbEntity
  8
0
 62
1
100
AcDbPolyline
 90
2
 70
0
 10
215.774297
 20
295.210598
 30
0.0
 10
204.424297
 20
295.210598
 30
0.0
  0
LWPOLYLINE
  5
17d
100
AcDbEntity
  8
0
 62
1
100
AcDbPolyline
 90
2
 70
0
 10
193.074297
 20
295.210598
 30
0.0
 10
181.724297
 20
295.210598
 30
0.0
  0
LWPOLYLINE
  5
17e
100
AcDbEntity
  8
0
 62
1
100
AcDbPolyline
 90
2
 70
0
 10
79.774327
 20
295.210598
 30
0.0
 10
68.424327
 20
295.210598
 30
0.0
  0
LWPOLYLINE
  5
17f
100
AcDbEntity
  8
0
 62
1
100
AcDbPolyline
 90
2
 70
0
 10
56.924317
 20
295.210598
 30
0.0
 10
45.574317
 20
295.210598
 30
0.0
  0
LWPOLYLINE
  5
180
100
AcDbEntity
  8
0
 62
1
100
AcDbPolyline
 90
2
 70
0
 10
45.274297
 20
168.210598
 30
0.0
 10
56.624297
 20
168.210598
 30
0.0
  0
LWPOLYLINE
  5
181
100
AcDbEntity
  8
0
 62
1
100
AcDbPolyline
 90
2
 70
0
 10
67.974297
 20
168.210598
 30
0.0
 10
79.324297
 20
168.210598
 30
0.0
  0
LWPOLYLINE
  5
182
100
AcDbEntity
  8
0
 62
1
100
AcDbPolyline
 90
2
 70
0
 10
181.724297
 20
168.210598
 30
0.0
 10
193.074297
 20
168.210598
 30
0.0
  0
LWPOLYLINE
  5
183
100
AcDbEntity
  8
0
 62
1
100
AcDbPolyline
 90
2
 70
0
 10
204.424297
 20
168.210598
 30
0.0
 10
215.774297
 20
168.210598
 30
0.0
  0
LWPOLYLINE
  5
184
100
AcDbEntity
  8
0
 62
1
100
AcDbPolyline
 90
2
 70
0
 10
32.783989
 20
141.485866
 30
0.0
 10
32.783989
 20
154.565875
 30
0.0
  0
LWPOLYLINE
  5
185
100
AcDbEntity
  8
0
 62
1
100
AcDbPolyline
 90
2
 70
0
 10
44.283999
 20
141.485866
 30
0.0
 10
32.783989
 20
141.485866
 30
0.0
  0
LWPOLYLINE
  5
186
100
AcDbEntity
  8
0
 62
1
100
AcDbPolyline
 90
2
 70
0
 10
44.283999
 20
154.565875
 30
0.0
 10
44.283999
 20
141.485866
 30
0.0
  0
LWPOLYLINE
  5
187
100
AcDbEntity
  8
0
 62
1
100
AcDbPolyline
 90
2
 70
0
 10
55.633998
 20
141.485866
 30
0.0
 10
55.633998
 20
154.565875
 30
0.0
  0
LWPOLYLINE
  5
188
100
AcDbEntity
  8
0
 62
1
100
AcDbPolyline
 90
2
 70
0
 10
67.134008
 20
141.485866
 30
0.0
 10
55.633998
 20
141.485866
 30
0.0
  0
LWPOLYLINE
  5
189
100
AcDbEntity
  8
0
 62
1
100
AcDbPolyline
 90
2
 70
0
 10
67.134008
 20
154.565875
 30
0.0
 10
67.134008
 20
141.485866
 30
0.0
  0
LWPOLYLINE
  5
18a
100
AcDbEntity
  8
0
 62
1
100
AcDbPolyline
 90
2
 70
0
 10
78.484009
 20
141.485866
 30
0.0
 10
78.484009
 20
154.565875
 30
0.0
  0
LWPOLYLINE
  5
18b
100
AcDbEntity
  8
0
 62
1
100
AcDbPolyline
 90
2
 70
0
 10
180.433979
 20
141.485866
 30
0.0
 10
78.484009
 20
141.485866
 30
0.0
  0
LWPOLYLINE
  5
18c
100
AcDbEntity
  8
0
 62
1
100
AcDbPolyline
 90
2
 70
0
 10
180.433979
 20
154.565875
 30
0.0
 10
180.433979
 20
141.485866
 30
0.0
  0
LWPOLYLINE
  5
18d
100
AcDbEntity
  8
0
 62
1
100
AcDbPolyline
 90
2
 70
0
 10
191.783979
 20
141.485866
 30
0.0
 10
191.783979
 20
154.565875
 30
0.0
  0
LWPOLYLINE
  5
18e
100
AcDbEntity
  8
0
 62
1
100
AcDbPolyline
 90
2
 70
0
 10
203.133979
 20
141.485866
 30
0.0
 10
191.783979
 20
141.485866
 30
0.0
  0
LWPOLYLINE
  5
18f
100
AcDbEntity
  8
0
 62
1
100
AcDbPolyline
 90
2
 70
0
 10
203.133979
 20
154.565875
 30
0.0
 10
203.133979
 20
141.485866
 30
0.0
  0
LWPOLYLINE
  5
190
100
AcDbEntity
  8
0
 62
1
100
AcDbPolyline
 90
2
 70
0
 10
214.483979
 20
141.485866
 30
0.0
 10
214.483979
 20
154.565875
 30
0.0
  0
LWPOLYLINE
  5
191
100
AcDbEntity
  8
0
 62
1
100
AcDbPolyline
 90
2
 70
0
 10
225.833979
 20
141.485866
 30
0.0
 10
214.483979
 20
141.485866
 30
0.0
  0
LWPOLYLINE
  5
192
100
AcDbEntity
  8
0
 62
1
100
AcDbPolyline
 90
2
 70
0
 10
214.483979
 20
40.645885
 30
0.0
 10
225.833979
 20
40.645885
 30
0.0
  0
LWPOLYLINE
  5
193
100
AcDbEntity
  8
0
 62
1
100
AcDbPolyline
 90
2
 70
0
 10
214.483979
 20
27.565875
 30
0.0
 10
214.483979
 20
40.645885
 30
0.0
  0
LWPOLYLINE
  5
194
100
AcDbEntity
  8
0
 62
1
100
AcDbPolyline
 90
2
 70
0
 10
203.133979
 20
40.645885
 30
0.0
 10
203.133979
 20
27.565875
 30
0.0
  0
LWPOLYLINE
  5
195
100
AcDbEntity
  8
0
 62
1
100
AcDbPolyline
 90
2
 70
0
 10
191.783979
 20
40.645885
 30
0.0
 10
203.133979
 20
40.645885
 30
0.0
  0
LWPOLYLINE
  5
196
100
AcDbEntity
  8
0
 62
1
100
AcDbPolyline
 90
2
 70
0
 10
191.783979
 20
27.565875
 30
0.0
 10
191.783979
 20
40.645885
 30
0.0
  0
LWPOLYLINE
  5
197
100
AcDbEntity
  8
0
 62
1
100
AcDbPolyline
 90
2
 70
0
 10
180.433979
 20
40.645885
 30
0.0
 10
180.433979
 20
27.565875
 30
0.0
  0
LWPOLYLINE
  5
198
100
AcDbEntity
  8
0
 62
1
100
AcDbPolyline
 90
2
 70
0
 10
78.033978
 20
40.645885
 30
0.0
 10
180.433979
 20
40.645885
 30
0.0
  0
LWPOLYLINE
  5
199
100
AcDbEntity
  8
0
 62
1
100
AcDbPolyline
 90
2
 70
0
 10
78.033978
 20
27.565875
 30
0.0
 10
78.033978
 20
40.645885
 30
0.0
  0
LWPOLYLINE
  5
19a
100
AcDbEntity
  8
0
 62
1
100
AcDbPolyline
 90
2
 70
0
 10
66.683979
 20
40.645885
 30
0.0
 10
66.683979
 20
27.565875
 30
0.0
  0
LWPOLYLINE
  5
19b
100
AcDbEntity
  8
0
 62
1
100
AcDbPolyline
 90
2
 70
0
 10
55.333978
 20
40.645885
 30
0.0
 10
66.683979
 20
40.645885
 30
0.0
  0
LWPOLYLINE
  5
19c
100
AcDbEntity
  8
0
 62
1
100
AcDbPolyline
 90
2
 70
0
 10
55.333978
 20
27.565875
 30
0.0
 10
55.333978
 20
40.645885
 30
0.0
  0
LWPOLYLINE
  5
19d
100
AcDbEntity
  8
0
 62
1
100
AcDbPolyline
 90
2
 70
0
 10
43.983979
 20
40.645885
 30
0.0
 10
43.983979
 20
27.565875
 30
0.0
  0
LWPOLYLINE
  5
19e
100
AcDbEntity
  8
0
 62
1
100
AcDbPolyline
 90
2
 70
0
 10
32.633979
 20
40.645885
 30
0.0
 10
43.983979
 20
40.645885
 30
0.0
  0
LWPOLYLINE
  5
19f
100
AcDbEntity
  8
0
 62
1
100
AcDbPolyline
 90
2
 70
0
 10
32.633979
 20
27.565875
 30
0.0
 10
32.633979
 20
40.645885
 30
0.0
  0
LWPOLYLINE
  5
1a0
100
AcDbEntity
  8
0
 62
1
100
AcDbPolyline
 90
2
 70
0
 10
21.283979
 20
40.645885
 30
0.0
 10
21.283979
 20
27.565875
 30
0.0
  0
LWPOLYLINE
  5
1a1
100
AcDbEntity
  8
0
 62
1
100
AcDbPolyline
 90
2
 70
0
 10
9.933979
 20
40.645885
 30
0.0
 10
21.283979
 20
40.645885
 30
0.0
  0
LWPOLYLINE
  5
1a2
100
AcDbEntity
  8
0
 62
1
100
AcDbPolyline
 90
2
 70
0
 10
21.433989
 20
141.485866
 30
0.0
 10
9.933979
 20
141.485866
 30
0.0
  0
SPLINE
  5
1a3
100
AcDbEntity
  8
0
 62
5
100
AcDbSpline
 70
8
 71
3
 72
8
 73
4
 74
0
 40
0
 40
0
 40
0
 40
0
 40
1
 40
1
 40
1
 40
1
 10
201.849279
 20
59.695885
 30
0.0
 10
201.849744
 20
61.839788
 30
0.0
 10
200.706252
 20
63.821036
 30
0.0
 10
198.849655
 20
64.893122
 30
0.0
  0
SPLINE
  5
1a4
100
AcDbEntity
  8
0
 62
5
100
AcDbSpline
 70
8
 71
3
 72
8
 73
4
 74
0
 40
0
 40
0
 40
0
 40
0
 40
1
 40
1
 40
1
 40
1
 10
198.849655
 20
64.893122
 30
0.0
 10
196.993057
 20
65.965208
 30
0.0
 10
194.705501
 20
65.965208
 30
0.0
 10
192.848903
 20
64.893122
 30
0.0
  0
SPLINE
  5
1a5
100
AcDbEntity
  8
0
 62
5
100
AcDbSpline
 70
8
 71
3
 72
8
 73
4
 74
0
 40
0
 40
0
 40
0
 40
0
 40
1
 40
1
 40
1
 40
1
 10
192.848903
 20
64.893122
 30
0.0
 10
190.992306
 20
63.821036
 30
0.0
 10
189.848814
 20
61.839788
 30
0.0
 10
189.849279
 20
59.695885
 30
0.0
  0
SPLINE
  5
1a6
100
AcDbEntity
  8
0
 62
5
100
AcDbSpline
 70
8
 71
3
 72
8
 73
4
 74
0
 40
0
 40
0
 40
0
 40
0
 40
1
 40
1
 40
1
 40
1
 10
189.849279
 20
59.695885
 30
0.0
 10
189.848814
 20
57.551981
 30
0.0
 10
190.992306
 20
55.570734
 30
0.0
 10
192.848903
 20
54.498648
 30
0.0
  0
SPLINE
  5
1a7
100
AcDbEntity
  8
0
 62
5
100
AcDbSpline
 70
8
 71
3
 72
8
 73
4
 74
0
 40
0
 40
0
 40
0
 40
0
 40
1
 40
1
 40
1
 40
1
 10
192.848903
 20
54.498648
 30
0.0
 10
194.705501
 20
53.426562
 30
0.0
 10
196.993057
 20
53.426562
 30
0.0
 10
198.849655
 20
54.498648
 30
0.0
  0
SPLINE
  5
1a8
100
AcDbEntity
  8
0
 62
5
100
AcDbSpline
 70
8
 71
3
 72
8
 73
4
 74
0
 40
0
 40
0
 40
0
 40
0
 40
1
 40
1
 40
1
 40
1
 10
198.849655
 20
54.498648
 30
0.0
 10
200.706252
 20
55.570734
 30
0.0
 10
201.849744
 20
57.551981
 30
0.0
 10
201.849279
 20
59.695885
 30
0.0
  0
LWPOLYLINE
  5
1a9
100
AcDbEntity
  8
0
 62
1
100
AcDbPolyline
 90
2
 70
0
 10
21.433989
 20
154.565875
 30
0.0
 10
21.433989
 20
141.485866
 30
0.0
  0
SPLINE
  5
1aa
100
AcDbEntity
  8
0
 62
5
100
AcDbSpline
 70
8
 71
3
 72
8
 73
4
 74
0
 40
0
 40
0
 40
0
 40
0
 40
1
 40
1
 40
1
 40
1
 10
45.918679
 20
59.695885
 30
0.0
 10
45.919144
 20
61.839788
 30
0.0
 10
44.775652
 20
63.821036
 30
0.0
 10
42.919055
 20
64.893122
 30
0.0
  0
SPLINE
  5
1ab
100
AcDbEntity
  8
0
 62
5
100
AcDbSpline
 70
8
 71
3
 72
8
 73
4
 74
0
 40
0
 40
0
 40
0
 40
0
 40
1
 40
1
 40
1
 40
1
 10
42.919055
 20
64.893122
 30
0.0
 10
41.062457
 20
65.965208
 30
0.0
 10
38.774901
 20
65.965208
 30
0.0
 10
36.918303
 20
64.893122
 30
0.0
  0
SPLINE
  5
1ac
100
AcDbEntity
  8
0
 62
5
100
AcDbSpline
 70
8
 71
3
 72
8
 73
4
 74
0
 40
0
 40
0
 40
0
 40
0
 40
1
 40
1
 40
1
 40
1
 10
36.918303
 20
64.893122
 30
0.0
 10
35.061706
 20
63.821036
 30
0.0
 10
33.918214
 20
61.839788
 30
0.0
 10
33.918679
 20
59.695885
 30
0.0
  0
SPLINE
  5
1ad
100
AcDbEntity
  8
0
 62
5
100
AcDbSpline
 70
8
 71
3
 72
8
 73
4
 74
0
 40
0
 40
0
 40
0
 40
0
 40
1
 40
1
 40
1
 40
1
 10
33.918679
 20
59.695885
 30
0.0
 10
33.918214
 20
57.551981
 30
0.0
 10
35.061706
 20
55.570734
 30
0.0
 10
36.918303
 20
54.498648
 30
0.0
  0
SPLINE
  5
1ae
100
AcDbEntity
  8
0
 62
5
100
AcDbSpline
 70
8
 71
3
 72
8
 73
4
 74
0
 40
0
 40
0
 40
0
 40
0
 40
1
 40
1
 40
1
 40
1
 10
36.918303
 20
54.498648
 30
0.0
 10
38.774901
 20
53.426562
 30
0.0
 10
41.062457
 20
53.426562
 30
0.0
 10
42.919055
 20
54.498648
 30
0.0
  0
SPLINE
  5
1af
100
AcDbEntity
  8
0
 62
5
100
AcDbSpline
 70
8
 71
3
 72
8
 73
4
 74
0
 40
0
 40
0
 40
0
 40
0
 40
1
 40
1
 40
1
 40
1
 10
42.919055
 20
54.498648
 30
0.0
 10
44.775652
 20
55.570734
 30
0.0
 10
45.919144
 20
57.551981
 30
0.0
 10
45.918679
 20
59.695885
 30
0.0
  0
LWPOLYLINE
  5
1b0
100
AcDbEntity
  8
0
 62
5
100
AcDbPolyline
 90
2
 70
1
 10
201.849279
 20
59.695885
 30
0.0
 10
201.849279
 20
59.695885
 30
0.0
  0
SPLINE
  5
1b1
100
AcDbEntity
  8
0
 62
5
100
AcDbSpline
 70
8
 71
3
 72
8
 73
4
 74
0
 40
0
 40
0
 40
0
 40
0
 40
1
 40
1
 40
1
 40
1
 10
210.523479
 20
149.105866
 30
0.0
 10
210.523479
 20
149.718398
 30
0.0
 10
210.196697
 20
150.284401
 30
0.0
 10
209.666229
 20
150.590667
 30
0.0
  0
SPLINE
  5
1b2
100
AcDbEntity
  8
0
 62
5
100
AcDbSpline
 70
8
 71
3
 72
8
 73
4
 74
0
 40
0
 40
0
 40
0
 40
0
 40
1
 40
1
 40
1
 40
1
 10
209.666229
 20
150.590667
 30
0.0
 10
209.135761
 20
150.896933
 30
0.0
 10
208.482197
 20
150.896933
 30
0.0
 10
207.951729
 20
150.590667
 30
0.0
  0
SPLINE
  5
1b3
100
AcDbEntity
  8
0
 62
5
100
AcDbSpline
 70
8
 71
3
 72
8
 73
4
 74
0
 40
0
 40
0
 40
0
 40
0
 40
1
 40
1
 40
1
 40
1
 10
207.951729
 20
150.590667
 30
0.0
 10
207.421260
 20
150.284401
 30
0.0
 10
207.094479
 20
149.718398
 30
0.0
 10
207.094479
 20
149.105866
 30
0.0
  0
SPLINE
  5
1b4
100
AcDbEntity
  8
0
 62
5
100
AcDbSpline
 70
8
 71
3
 72
8
 73
4
 74
0
 40
0
 40
0
 40
0
 40
0
 40
1
 40
1
 40
1
 40
1
 10
207.094479
 20
149.105866
 30
0.0
 10
207.094479
 20
148.493334
 30
0.0
 10
207.421260
 20
147.927331
 30
0.0
 10
207.951729
 20
147.621065
 30
0.0
  0
SPLINE
  5
1b5
100
AcDbEntity
  8
0
 62
5
100
AcDbSpline
 70
8
 71
3
 72
8
 73
4
 74
0
 40
0
 40
0
 40
0
 40
0
 40
1
 40
1
 40
1
 40
1
 10
207.951729
 20
147.621065
 30
0.0
 10
208.482197
 20
147.314799
 30
0.0
 10
209.135761
 20
147.314799
 30
0.0
 10
209.666229
 20
147.621065
 30
0.0
  0
SPLINE
  5
1b6
100
AcDbEntity
  8
0
 62
5
100
AcDbSpline
 70
8
 71
3
 72
8
 73
4
 74
0
 40
0
 40
0
 40
0
 40
0
 40
1
 40
1
 40
1
 40
1
 10
209.666229
 20
147.621065
 30
0.0
 10
210.196697
 20
147.927331
 30
0.0
 10
210.523479
 20
148.493334
 30
0.0
 10
210.523479
 20
149.105866
 30
0.0
  0
LWPOLYLINE
  5
1b7
100
AcDbEntity
  8
0
 62
5
100
AcDbPolyline
 90
2
 70
1
 10
45.918679
 20
59.695885
 30
0.0
 10
45.918679
 20
59.695885
 30
0.0
  0
SPLINE
  5
1b8
100
AcDbEntity
  8
0
 62
5
100
AcDbSpline
 70
8
 71
3
 72
8
 73
4
 74
0
 40
0
 40
0
 40
0
 40
0
 40
1
 40
1
 40
1
 40
1
 10
28.673479
 20
33.025885
 30
0.0
 10
28.673479
 20
33.638417
 30
0.0
 10
28.346697
 20
34.204419
 30
0.0
 10
27.816229
 20
34.510685
 30
0.0
  0
SPLINE
  5
1b9
100
AcDbEntity
  8
0
 62
5
100
AcDbSpline
 70
8
 71
3
 72
8
 73
4
 74
0
 40
0
 40
0
 40
0
 40
0
 40
1
 40
1
 40
1
 40
1
 10
27.816229
 20
34.510685
 30
0.0
 10
27.285760
 20
34.816951
 30
0.0
 10
26.632197
 20
34.816951
 30
0.0
 10
26.101729
 20
34.510685
 30
0.0
  0
SPLINE
  5
1ba
100
AcDbEntity
  8
0
 62
5
100
AcDbSpline
 70
8
 71
3
 72
8
 73
4
 74
0
 40
0
 40
0
 40
0
 40
0
 40
1
 40
1
 40
1
 40
1
 10
26.101729
 20
34.510685
 30
0.0
 10
25.571260
 20
34.204419
 30
0.0
 10
25.244479
 20
33.638417
 30
0.0
 10
25.244479
 20
33.025885
 30
0.0
  0
SPLINE
  5
1bb
100
AcDbEntity
  8
0
 62
5
100
AcDbSpline
 70
8
 71
3
 72
8
 73
4
 74
0
 40
0
 40
0
 40
0
 40
0
 40
1
 40
1
 40
1
 40
1
 10
25.244479
 20
33.025885
 30
0.0
 10
25.244479
 20
32.413353
 30
0.0
 10
25.571260
 20
31.847350
 30
0.0
 10
26.101729
 20
31.541084
 30
0.0
  0
SPLINE
  5
1bc
100
AcDbEntity
  8
0
 62
5
100
AcDbSpline
 70
8
 71
3
 72
8
 73
4
 74
0
 40
0
 40
0
 40
0
 40
0
 40
1
 40
1
 40
1
 40
1
 10
26.101729
 20
31.541084
 30
0.0
 10
26.632197
 20
31.234818
 30
0.0
 10
27.285760
 20
31.234818
 30
0.0
 10
27.816229
 20
31.541084
 30
0.0
  0
SPLINE
  5
1bd
100
AcDbEntity
  8
0
 62
5
100
AcDbSpline
 70
8
 71
3
 72
8
 73
4
 74
0
 40
0
 40
0
 40
0
 40
0
 40
1
 40
1
 40
1
 40
1
 10
27.816229
 20
31.541084
 30
0.0
 10
28.346697
 20
31.847350
 30
0.0
 10
28.673479
 20
32.413353
 30
0.0
 10
28.673479
 20
33.025885
 30
0.0
  0
LWPOLYLINE
  5
1be
100
AcDbEntity
  8
0
 62
5
100
AcDbPolyline
 90
2
 70
1
 10
210.523479
 20
149.105866
 30
0.0
 10
210.523479
 20
149.105866
 30
0.0
  0
SPLINE
  5
1bf
100
AcDbEntity
  8
0
 62
5
100
AcDbSpline
 70
8
 71
3
 72
8
 73
4
 74
0
 40
0
 40
0
 40
0
 40
0
 40
1
 40
1
 40
1
 40
1
 10
51.373479
 20
33.025885
 30
0.0
 10
51.373479
 20
33.638417
 30
0.0
 10
51.046697
 20
34.204419
 30
0.0
 10
50.516229
 20
34.510685
 30
0.0
  0
SPLINE
  5
1c0
100
AcDbEntity
  8
0
 62
5
100
AcDbSpline
 70
8
 71
3
 72
8
 73
4
 74
0
 40
0
 40
0
 40
0
 40
0
 40
1
 40
1
 40
1
 40
1
 10
50.516229
 20
34.510685
 30
0.0
 10
49.985761
 20
34.816951
 30
0.0
 10
49.332197
 20
34.816951
 30
0.0
 10
48.801729
 20
34.510685
 30
0.0
  0
SPLINE
  5
1c1
100
AcDbEntity
  8
0
 62
5
100
AcDbSpline
 70
8
 71
3
 72
8
 73
4
 74
0
 40
0
 40
0
 40
0
 40
0
 40
1
 40
1
 40
1
 40
1
 10
48.801729
 20
34.510685
 30
0.0
 10
48.271261
 20
34.204419
 30
0.0
 10
47.944479
 20
33.638417
 30
0.0
 10
47.944479
 20
33.025885
 30
0.0
  0
SPLINE
  5
1c2
100
AcDbEntity
  8
0
 62
5
100
AcDbSpline
 70
8
 71
3
 72
8
 73
4
 74
0
 40
0
 40
0
 40
0
 40
0
 40
1
 40
1
 40
1
 40
1
 10
47.944479
 20
33.025885
 30
0.0
 10
47.944479
 20
32.413353
 30
0.0
 10
48.271261
 20
31.847350
 30
0.0
 10
48.801729
 20
31.541084
 30
0.0
  0
SPLINE
  5
1c3
100
AcDbEntity
  8
0
 62
5
100
AcDbSpline
 70
8
 71
3
 72
8
 73
4
 74
0
 40
0
 40
0
 40
0
 40
0
 40
1
 40
1
 40
1
 40
1
 10
48.801729
 20
31.541084
 30
0.0
 10
49.332197
 20
31.234818
 30
0.0
 10
49.985761
 20
31.234818
 30
0.0
 10
50.516229
 20
31.541084
 30
0.0
  0
SPLINE
  5
1c4
100
AcDbEntity
  8
0
 62
5
100
AcDbSpline
 70
8
 71
3
 72
8
 73
4
 74
0
 40
0
 40
0
 40
0
 40
0
 40
1
 40
1
 40
1
 40
1
 10
50.516229
 20
31.541084
 30
0.0
 10
51.046697
 20
31.847350
 30
0.0
 10
51.373479
 20
32.413353
 30
0.0
 10
51.373479
 20
33.025885
 30
0.0
  0
LWPOLYLINE
  5
1c5
100
AcDbEntity
  8
0
 62
5
100
AcDbPolyline
 90
2
 70
1
 10
28.673479
 20
33.025885
 30
0.0
 10
28.673479
 20
33.025885
 30
0.0
  0
SPLINE
  5
1c6
100
AcDbEntity
  8
0
 62
5
100
AcDbSpline
 70
8
 71
3
 72
8
 73
4
 74
0
 40
0
 40
0
 40
0
 40
0
 40
1
 40
1
 40
1
 40
1
 10
74.073478
 20
33.025885
 30
0.0
 10
74.073478
 20
33.638417
 30
0.0
 10
73.746697
 20
34.204419
 30
0.0
 10
73.216228
 20
34.510685
 30
0.0
  0
SPLINE
  5
1c7
100
AcDbEntity
  8
0
 62
5
100
AcDbSpline
 70
8
 71
3
 72
8
 73
4
 74
0
 40
0
 40
0
 40
0
 40
0
 40
1
 40
1
 40
1
 40
1
 10
73.216228
 20
34.510685
 30
0.0
 10
72.685760
 20
34.816951
 30
0.0
 10
72.032197
 20
34.816951
 30
0.0
 10
71.501728
 20
34.510685
 30
0.0
  0
SPLINE
  5
1c8
100
AcDbEntity
  8
0
 62
5
100
AcDbSpline
 70
8
 71
3
 72
8
 73
4
 74
0
 40
0
 40
0
 40
0
 40
0
 40
1
 40
1
 40
1
 40
1
 10
71.501728
 20
34.510685
 30
0.0
 10
70.971260
 20
34.204419
 30
0.0
 10
70.644478
 20
33.638417
 30
0.0
 10
70.644478
 20
33.025885
 30
0.0
  0
SPLINE
  5
1c9
100
AcDbEntity
  8
0
 62
5
100
AcDbSpline
 70
8
 71
3
 72
8
 73
4
 74
0
 40
0
 40
0
 40
0
 40
0
 40
1
 40
1
 40
1
 40
1
 10
70.644478
 20
33.025885
 30
0.0
 10
70.644478
 20
32.413353
 30
0.0
 10
70.971260
 20
31.847350
 30
0.0
 10
71.501728
 20
31.541084
 30
0.0
  0
SPLINE
  5
1ca
100
AcDbEntity
  8
0
 62
5
100
AcDbSpline
 70
8
 71
3
 72
8
 73
4
 74
0
 40
0
 40
0
 40
0
 40
0
 40
1
 40
1
 40
1
 40
1
 10
71.501728
 20
31.541084
 30
0.0
 10
72.032197
 20
31.234818
 30
0.0
 10
72.685760
 20
31.234818
 30
0.0
 10
73.216228
 20
31.541084
 30
0.0
  0
SPLINE
  5
1cb
100
AcDbEntity
  8
0
 62
5
100
AcDbSpline
 70
8
 71
3
 72
8
 73
4
 74
0
 40
0
 40
0
 40
0
 40
0
 40
1
 40
1
 40
1
 40
1
 10
73.216228
 20
31.541084
 30
0.0
 10
73.746697
 20
31.847350
 30
0.0
 10
74.073478
 20
32.413353
 30
0.0
 10
74.073478
 20
33.025885
 30
0.0
  0
LWPOLYLINE
  5
1cc
100
AcDbEntity
  8
0
 62
5
100
AcDbPolyline
 90
2
 70
1
 10
51.373479
 20
33.025885
 30
0.0
 10
51.373479
 20
33.025885
 30
0.0
  0
SPLINE
  5
1cd
100
AcDbEntity
  8
0
 62
5
100
AcDbSpline
 70
8
 71
3
 72
8
 73
4
 74
0
 40
0
 40
0
 40
0
 40
0
 40
1
 40
1
 40
1
 40
1
 10
210.523479
 20
33.025885
 30
0.0
 10
210.523479
 20
33.638417
 30
0.0
 10
210.196697
 20
34.204420
 30
0.0
 10
209.666229
 20
34.510686
 30
0.0
  0
SPLINE
  5
1ce
100
AcDbEntity
  8
0
 62
5
100
AcDbSpline
 70
8
 71
3
 72
8
 73
4
 74
0
 40
0
 40
0
 40
0
 40
0
 40
1
 40
1
 40
1
 40
1
 10
209.666229
 20
34.510686
 30
0.0
 10
209.135761
 20
34.816952
 30
0.0
 10
208.482197
 20
34.816952
 30
0.0
 10
207.951729
 20
34.510686
 30
0.0
  0
SPLINE
  5
1cf
100
AcDbEntity
  8
0
 62
5
100
AcDbSpline
 70
8
 71
3
 72
8
 73
4
 74
0
 40
0
 40
0
 40
0
 40
0
 40
1
 40
1
 40
1
 40
1
 10
207.951729
 20
34.510686
 30
0.0
 10
207.421260
 20
34.204420
 30
0.0
 10
207.094479
 20
33.638417
 30
0.0
 10
207.094479
 20
33.025885
 30
0.0
  0
SPLINE
  5
1d0
100
AcDbEntity
  8
0
 62
5
100
AcDbSpline
 70
8
 71
3
 72
8
 73
4
 74
0
 40
0
 40
0
 40
0
 40
0
 40
1
 40
1
 40
1
 40
1
 10
207.094479
 20
33.025885
 30
0.0
 10
207.094479
 20
32.413353
 30
0.0
 10
207.421260
 20
31.847350
 30
0.0
 10
207.951729
 20
31.541084
 30
0.0
  0
SPLINE
  5
1d1
100
AcDbEntity
  8
0
 62
5
100
AcDbSpline
 70
8
 71
3
 72
8
 73
4
 74
0
 40
0
 40
0
 40
0
 40
0
 40
1
 40
1
 40
1
 40
1
 10
207.951729
 20
31.541084
 30
0.0
 10
208.482197
 20
31.234818
 30
0.0
 10
209.135761
 20
31.234818
 30
0.0
 10
209.666229
 20
31.541084
 30
0.0
  0
SPLINE
  5
1d2
100
AcDbEntity
  8
0
 62
5
100
AcDbSpline
 70
8
 71
3
 72
8
 73
4
 74
0
 40
0
 40
0
 40
0
 40
0
 40
1
 40
1
 40
1
 40
1
 10
209.666229
 20
31.541084
 30
0.0
 10
210.196697
 20
31.847350
 30
0.0
 10
210.523479
 20
32.413353
 30
0.0
 10
210.523479
 20
33.025885
 30
0.0
  0
LWPOLYLINE
  5
1d3
100
AcDbEntity
  8
0
 62
5
100
AcDbPolyline
 90
2
 70
1
 10
74.073478
 20
33.025885
 30
0.0
 10
74.073478
 20
33.025885
 30
0.0
  0
SPLINE
  5
1d4
100
AcDbEntity
  8
0
 62
5
100
AcDbSpline
 70
8
 71
3
 72
8
 73
4
 74
0
 40
0
 40
0
 40
0
 40
0
 40
1
 40
1
 40
1
 40
1
 10
187.823479
 20
33.025885
 30
0.0
 10
187.823479
 20
33.638417
 30
0.0
 10
187.496697
 20
34.204419
 30
0.0
 10
186.966229
 20
34.510685
 30
0.0
  0
SPLINE
  5
1d5
100
AcDbEntity
  8
0
 62
5
100
AcDbSpline
 70
8
 71
3
 72
8
 73
4
 74
0
 40
0
 40
0
 40
0
 40
0
 40
1
 40
1
 40
1
 40
1
 10
186.966229
 20
34.510685
 30
0.0
 10
186.435761
 20
34.816951
 30
0.0
 10
185.782197
 20
34.816951
 30
0.0
 10
185.251729
 20
34.510685
 30
0.0
  0
SPLINE
  5
1d6
100
AcDbEntity
  8
0
 62
5
100
AcDbSpline
 70
8
 71
3
 72
8
 73
4
 74
0
 40
0
 40
0
 40
0
 40
0
 40
1
 40
1
 40
1
 40
1
 10
185.251729
 20
34.510685
 30
0.0
 10
184.721261
 20
34.204419
 30
0.0
 10
184.394479
 20
33.638417
 30
0.0
 10
184.394479
 20
33.025885
 30
0.0
  0
SPLINE
  5
1d7
100
AcDbEntity
  8
0
 62
5
100
AcDbSpline
 70
8
 71
3
 72
8
 73
4
 74
0
 40
0
 40
0
 40
0
 40
0
 40
1
 40
1
 40
1
 40
1
 10
184.394479
 20
33.025885
 30
0.0
 10
184.394479
 20
32.413353
 30
0.0
 10
184.721261
 20
31.847350
 30
0.0
 10
185.251729
 20
31.541084
 30
0.0
  0
SPLINE
  5
1d8
100
AcDbEntity
  8
0
 62
5
100
AcDbSpline
 70
8
 71
3
 72
8
 73
4
 74
0
 40
0
 40
0
 40
0
 40
0
 40
1
 40
1
 40
1
 40
1
 10
185.251729
 20
31.541084
 30
0.0
 10
185.782197
 20
31.234818
 30
0.0
 10
186.435761
 20
31.234818
 30
0.0
 10
186.966229
 20
31.541084
 30
0.0
  0
SPLINE
  5
1d9
100
AcDbEntity
  8
0
 62
5
100
AcDbSpline
 70
8
 71
3
 72
8
 73
4
 74
0
 40
0
 40
0
 40
0
 40
0
 40
1
 40
1
 40
1
 40
1
 10
186.966229
 20
31.541084
 30
0.0
 10
187.496697
 20
31.847350
 30
0.0
 10
187.823479
 20
32.413353
 30
0.0
 10
187.823479
 20
33.025885
 30
0.0
  0
LWPOLYLINE
  5
1da
100
AcDbEntity
  8
0
 62
5
100
AcDbPolyline
 90
2
 70
1
 10
210.523479
 20
33.025885
 30
0.0
 10
210.523479
 20
33.025885
 30
0.0
  0
SPLINE
  5
1db
100
AcDbEntity
  8
0
 62
5
100
AcDbSpline
 70
8
 71
3
 72
8
 73
4
 74
0
 40
0
 40
0
 40
0
 40
0
 40
1
 40
1
 40
1
 40
1
 10
28.823489
 20
149.105866
 30
0.0
 10
28.823489
 20
149.718398
 30
0.0
 10
28.496707
 20
150.284401
 30
0.0
 10
27.966239
 20
150.590667
 30
0.0
  0
SPLINE
  5
1dc
100
AcDbEntity
  8
0
 62
5
100
AcDbSpline
 70
8
 71
3
 72
8
 73
4
 74
0
 40
0
 40
0
 40
0
 40
0
 40
1
 40
1
 40
1
 40
1
 10
27.966239
 20
150.590667
 30
0.0
 10
27.435771
 20
150.896933
 30
0.0
 10
26.782207
 20
150.896933
 30
0.0
 10
26.251739
 20
150.590667
 30
0.0
  0
SPLINE
  5
1dd
100
AcDbEntity
  8
0
 62
5
100
AcDbSpline
 70
8
 71
3
 72
8
 73
4
 74
0
 40
0
 40
0
 40
0
 40
0
 40
1
 40
1
 40
1
 40
1
 10
26.251739
 20
150.590667
 30
0.0
 10
25.721271
 20
150.284401
 30
0.0
 10
25.394489
 20
149.718398
 30
0.0
 10
25.394489
 20
149.105866
 30
0.0
  0
SPLINE
  5
1de
100
AcDbEntity
  8
0
 62
5
100
AcDbSpline
 70
8
 71
3
 72
8
 73
4
 74
0
 40
0
 40
0
 40
0
 40
0
 40
1
 40
1
 40
1
 40
1
 10
25.394489
 20
149.105866
 30
0.0
 10
25.394489
 20
148.493334
 30
0.0
 10
25.721271
 20
147.927331
 30
0.0
 10
26.251739
 20
147.621065
 30
0.0
  0
SPLINE
  5
1df
100
AcDbEntity
  8
0
 62
5
100
AcDbSpline
 70
8
 71
3
 72
8
 73
4
 74
0
 40
0
 40
0
 40
0
 40
0
 40
1
 40
1
 40
1
 40
1
 10
26.251739
 20
147.621065
 30
0.0
 10
26.782207
 20
147.314800
 30
0.0
 10
27.435771
 20
147.314800
 30
0.0
 10
27.966239
 20
147.621065
 30
0.0
  0
SPLINE
  5
1e0
100
AcDbEntity
  8
0
 62
5
100
AcDbSpline
 70
8
 71
3
 72
8
 73
4
 74
0
 40
0
 40
0
 40
0
 40
0
 40
1
 40
1
 40
1
 40
1
 10
27.966239
 20
147.621065
 30
0.0
 10
28.496707
 20
147.927331
 30
0.0
 10
28.823489
 20
148.493334
 30
0.0
 10
28.823489
 20
149.105866
 30
0.0
  0
LWPOLYLINE
  5
1e1
100
AcDbEntity
  8
0
 62
5
100
AcDbPolyline
 90
2
 70
1
 10
187.823479
 20
33.025885
 30
0.0
 10
187.823479
 20
33.025885
 30
0.0
  0
SPLINE
  5
1e2
100
AcDbEntity
  8
0
 62
5
100
AcDbSpline
 70
8
 71
3
 72
8
 73
4
 74
0
 40
0
 40
0
 40
0
 40
0
 40
1
 40
1
 40
1
 40
1
 10
51.673499
 20
149.105866
 30
0.0
 10
51.673499
 20
149.718398
 30
0.0
 10
51.346717
 20
150.284401
 30
0.0
 10
50.816249
 20
150.590667
 30
0.0
  0
SPLINE
  5
1e3
100
AcDbEntity
  8
0
 62
5
100
AcDbSpline
 70
8
 71
3
 72
8
 73
4
 74
0
 40
0
 40
0
 40
0
 40
0
 40
1
 40
1
 40
1
 40
1
 10
50.816249
 20
150.590667
 30
0.0
 10
50.285781
 20
150.896933
 30
0.0
 10
49.632217
 20
150.896933
 30
0.0
 10
49.101749
 20
150.590667
 30
0.0
  0
SPLINE
  5
1e4
100
AcDbEntity
  8
0
 62
5
100
AcDbSpline
 70
8
 71
3
 72
8
 73
4
 74
0
 40
0
 40
0
 40
0
 40
0
 40
1
 40
1
 40
1
 40
1
 10
49.101749
 20
150.590667
 30
0.0
 10
48.571281
 20
150.284401
 30
0.0
 10
48.244499
 20
149.718398
 30
0.0
 10
48.244499
 20
149.105866
 30
0.0
  0
SPLINE
  5
1e5
100
AcDbEntity
  8
0
 62
5
100
AcDbSpline
 70
8
 71
3
 72
8
 73
4
 74
0
 40
0
 40
0
 40
0
 40
0
 40
1
 40
1
 40
1
 40
1
 10
48.244499
 20
149.105866
 30
0.0
 10
48.244499
 20
148.493334
 30
0.0
 10
48.571281
 20
147.927331
 30
0.0
 10
49.101749
 20
147.621065
 30
0.0
  0
SPLINE
  5
1e6
100
AcDbEntity
  8
0
 62
5
100
AcDbSpline
 70
8
 71
3
 72
8
 73
4
 74
0
 40
0
 40
0
 40
0
 40
0
 40
1
 40
1
 40
1
 40
1
 10
49.101749
 20
147.621065
 30
0.0
 10
49.632217
 20
147.314800
 30
0.0
 10
50.285781
 20
147.314800
 30
0.0
 10
50.816249
 20
147.621065
 30
0.0
  0
SPLINE
  5
1e7
100
AcDbEntity
  8
0
 62
5
100
AcDbSpline
 70
8
 71
3
 72
8
 73
4
 74
0
 40
0
 40
0
 40
0
 40
0
 40
1
 40
1
 40
1
 40
1
 10
50.816249
 20
147.621065
 30
0.0
 10
51.346717
 20
147.927331
 30
0.0
 10
51.673499
 20
148.493334
 30
0.0
 10
51.673499
 20
149.105866
 30
0.0
  0
LWPOLYLINE
  5
1e8
100
AcDbEntity
  8
0
 62
5
100
AcDbPolyline
 90
2
 70
1
 10
28.823489
 20
149.105866
 30
0.0
 10
28.823489
 20
149.105866
 30
0.0
  0
SPLINE
  5
1e9
100
AcDbEntity
  8
0
 62
5
100
AcDbSpline
 70
8
 71
3
 72
8
 73
4
 74
0
 40
0
 40
0
 40
0
 40
0
 40
1
 40
1
 40
1
 40
1
 10
74.523509
 20
149.105866
 30
0.0
 10
74.523509
 20
149.718398
 30
0.0
 10
74.196727
 20
150.284401
 30
0.0
 10
73.666259
 20
150.590667
 30
0.0
  0
SPLINE
  5
1ea
100
AcDbEntity
  8
0
 62
5
100
AcDbSpline
 70
8
 71
3
 72
8
 73
4
 74
0
 40
0
 40
0
 40
0
 40
0
 40
1
 40
1
 40
1
 40
1
 10
73.666259
 20
150.590667
 30
0.0
 10
73.135790
 20
150.896933
 30
0.0
 10
72.482227
 20
150.896933
 30
0.0
 10
71.951759
 20
150.590667
 30
0.0
  0
SPLINE
  5
1eb
100
AcDbEntity
  8
0
 62
5
100
AcDbSpline
 70
8
 71
3
 72
8
 73
4
 74
0
 40
0
 40
0
 40
0
 40
0
 40
1
 40
1
 40
1
 40
1
 10
71.951759
 20
150.590667
 30
0.0
 10
71.421290
 20
150.284401
 30
0.0
 10
71.094509
 20
149.718398
 30
0.0
 10
71.094509
 20
149.105866
 30
0.0
  0
SPLINE
  5
1ec
100
AcDbEntity
  8
0
 62
5
100
AcDbSpline
 70
8
 71
3
 72
8
 73
4
 74
0
 40
0
 40
0
 40
0
 40
0
 40
1
 40
1
 40
1
 40
1
 10
71.094509
 20
149.105866
 30
0.0
 10
71.094509
 20
148.493334
 30
0.0
 10
71.421290
 20
147.927331
 30
0.0
 10
71.951759
 20
147.621065
 30
0.0
  0
SPLINE
  5
1ed
100
AcDbEntity
  8
0
 62
5
100
AcDbSpline
 70
8
 71
3
 72
8
 73
4
 74
0
 40
0
 40
0
 40
0
 40
0
 40
1
 40
1
 40
1
 40
1
 10
71.951759
 20
147.621065
 30
0.0
 10
72.482227
 20
147.314800
 30
0.0
 10
73.135790
 20
147.314800
 30
0.0
 10
73.666259
 20
147.621065
 30
0.0
  0
SPLINE
  5
1ee
100
AcDbEntity
  8
0
 62
5
100
AcDbSpline
 70
8
 71
3
 72
8
 73
4
 74
0
 40
0
 40
0
 40
0
 40
0
 40
1
 40
1
 40
1
 40
1
 10
73.666259
 20
147.621065
 30
0.0
 10
74.196727
 20
147.927331
 30
0.0
 10
74.523509
 20
148.493334
 30
0.0
 10
74.523509
 20
149.105866
 30
0.0
  0
LWPOLYLINE
  5
1ef
100
AcDbEntity
  8
0
 62
5
100
AcDbPolyline
 90
2
 70
1
 10
51.673499
 20
149.105866
 30
0.0
 10
51.673499
 20
149.105866
 30
0.0
  0
SPLINE
  5
1f0
100
AcDbEntity
  8
0
 62
5
100
AcDbSpline
 70
8
 71
3
 72
8
 73
4
 74
0
 40
0
 40
0
 40
0
 40
0
 40
1
 40
1
 40
1
 40
1
 10
187.823479
 20
149.105866
 30
0.0
 10
187.823479
 20
149.718398
 30
0.0
 10
187.496697
 20
150.284401
 30
0.0
 10
186.966229
 20
150.590667
 30
0.0
  0
SPLINE
  5
1f1
100
AcDbEntity
  8
0
 62
5
100
AcDbSpline
 70
8
 71
3
 72
8
 73
4
 74
0
 40
0
 40
0
 40
0
 40
0
 40
1
 40
1
 40
1
 40
1
 10
186.966229
 20
150.590667
 30
0.0
 10
186.435761
 20
150.896933
 30
0.0
 10
185.782197
 20
150.896933
 30
0.0
 10
185.251729
 20
150.590667
 30
0.0
  0
SPLINE
  5
1f2
100
AcDbEntity
  8
0
 62
5
100
AcDbSpline
 70
8
 71
3
 72
8
 73
4
 74
0
 40
0
 40
0
 40
0
 40
0
 40
1
 40
1
 40
1
 40
1
 10
185.251729
 20
150.590667
 30
0.0
 10
184.721261
 20
150.284401
 30
0.0
 10
184.394479
 20
149.718398
 30
0.0
 10
184.394479
 20
149.105866
 30
0.0
  0
SPLINE
  5
1f3
100
AcDbEntity
  8
0
 62
5
100
AcDbSpline
 70
8
 71
3
 72
8
 73
4
 74
0
 40
0
 40
0
 40
0
 40
0
 40
1
 40
1
 40
1
 40
1
 10
184.394479
 20
149.105866
 30
0.0
 10
184.394479
 20
148.493334
 30
0.0
 10
184.721261
 20
147.927331
 30
0.0
 10
185.251729
 20
147.621065
 30
0.0
  0
SPLINE
  5
1f4
100
AcDbEntity
  8
0
 62
5
100
AcDbSpline
 70
8
 71
3
 72
8
 73
4
 74
0
 40
0
 40
0
 40
0
 40
0
 40
1
 40
1
 40
1
 40
1
 10
185.251729
 20
147.621065
 30
0.0
 10
185.782197
 20
147.314800
 30
0.0
 10
186.435761
 20
147.314800
 30
0.0
 10
186.966229
 20
147.621065
 30
0.0
  0
SPLINE
  5
1f5
100
AcDbEntity
  8
0
 62
5
100
AcDbSpline
 70
8
 71
3
 72
8
 73
4
 74
0
 40
0
 40
0
 40
0
 40
0
 40
1
 40
1
 40
1
 40
1
 10
186.966229
 20
147.621065
 30
0.0
 10
187.496697
 20
147.927331
 30
0.0
 10
187.823479
 20
148.493334
 30
0.0
 10
187.823479
 20
149.105866
 30
0.0
  0
LWPOLYLINE
  5
1f6
100
AcDbEntity
  8
0
 62
5
100
AcDbPolyline
 90
2
 70
1
 10
74.523509
 20
149.105866
 30
0.0
 10
74.523509
 20
149.105866
 30
0.0
  0
LWPOLYLINE
  5
1f7
100
AcDbEntity
  8
0
 62
5
100
AcDbPolyline
 90
2
 70
1
 10
187.823479
 20
149.105866
 30
0.0
 10
187.823479
 20
149.105866
 30
0.0
  0
LWPOLYLINE
  5
1f8
100
AcDbEntity
  8
0
 62
5
100
AcDbPolyline
 90
5
 70
0
 10
16.283979
 20
118.035875
 30
0.0
 10
19.458979
 20
118.035875
 30
0.0
 10
19.458979
 20
129.385865
 30
0.0
 10
16.283979
 20
129.385865
 30
0.0
 10
16.283979
 20
118.035875
 30
0.0
  0
LWPOLYLINE
  5
1f9
100
AcDbEntity
  8
0
 62
5
100
AcDbPolyline
 90
5
 70
0
 10
216.308979
 20
66.045885
 30
0.0
 10
219.483979
 20
66.045885
 30
0.0
 10
219.483979
 20
77.395875
 30
0.0
 10
216.308979
 20
77.395875
 30
0.0
 10
216.308979
 20
66.045885
 30
0.0
  0
LWPOLYLINE
  5
1fa
100
AcDbEntity
  8
0
 62
5
100
AcDbPolyline
 90
5
 70
0
 10
216.308979
 20
118.035875
 30
0.0
 10
219.483979
 20
118.035875
 30
0.0
 10
219.483979
 20
129.385865
 30
0.0
 10
216.308979
 20
129.385865
 30
0.0
 10
216.308979
 20
118.035875
 30
0.0
  0
LWPOLYLINE
  5
1fb
100
AcDbEntity
  8
0
 62
5
100
AcDbPolyline
 90
5
 70
0
 10
16.283979
 20
66.045885
 30
0.0
 10
19.458979
 20
66.045885
 30
0.0
 10
19.458979
 20
77.395875
 30
0.0
 10
16.283979
 20
77.395875
 30
0.0
 10
16.283979
 20
66.045885
 30
0.0
  0
LWPOLYLINE
  5
1fc
100
AcDbEntity
  8
0
 62
1
100
AcDbPolyline
 90
2
 70
0
 10
32.783989
 20
154.565875
 30
0.0
 10
21.433989
 20
154.565875
 30
0.0
  0
LWPOLYLINE
  5
1fd
100
AcDbEntity
  8
0
 62
1
100
AcDbPolyline
 90
2
 70
0
 10
225.833979
 20
40.645885
 30
0.0
 10
225.833979
 20
141.485866
 30
0.0
  0
LWPOLYLINE
  5
1fe
100
AcDbEntity
  8
0
 62
1
100
AcDbPolyline
 90
2
 70
0
 10
21.283979
 20
27.565875
 30
0.0
 10
32.633979
 20
27.565875
 30
0.0
  0
LWPOLYLINE
  5
1ff
100
AcDbEntity
  8
0
 62
1
100
AcDbPolyline
 90
2
 70
0
 10
9.933979
 20
141.485866
 30
0.0
 10
9.933979
 20
40.645885
 30
0.0
  0
LWPOLYLINE
  5
200
100
AcDbEntity
  8
0
 62
1
100
AcDbPolyline
 90
2
 70
0
 10
214.483979
 20
154.565875
 30
0.0
 10
203.133979
 20
154.565875
 30
0.0
  0
LWPOLYLINE
  5
201
100
AcDbEntity
  8
0
 62
1
100
AcDbPolyline
 90
2
 70
0
 10
191.783979
 20
154.565875
 30
0.0
 10
180.433979
 20
154.565875
 30
0.0
  0
LWPOLYLINE
  5
202
100
AcDbEntity
  8
0
 62
1
100
AcDbPolyline
 90
2
 70
0
 10
78.484009
 20
154.565875
 30
0.0
 10
67.134008
 20
154.565875
 30
0.0
  0
LWPOLYLINE
  5
203
100
AcDbEntity
  8
0
 62
1
100
AcDbPolyline
 90
2
 70
0
 10
55.633998
 20
154.565875
 30
0.0
 10
44.283999
 20
154.565875
 30
0.0
  0
LWPOLYLINE
  5
204
100
AcDbEntity
  8
0
 62
1
100
AcDbPolyline
 90
2
 70
0
 10
43.983979
 20
27.565875
 30
0.0
 10
55.333978
 20
27.565875
 30
0.0
  0
LWPOLYLINE
  5
205
100
AcDbEntity
  8
0
 62
1
100
AcDbPolyline
 90
2
 70
0
 10
66.683979
 20
27.565875
 30
0.0
 10
78.033978
 20
27.565875
 30
0.0
  0
LWPOLYLINE
  5
206
100
AcDbEntity
  8
0
 62
1
100
AcDbPolyline
 90
2
 70
0
 10
180.433979
 20
27.565875
 30
0.0
 10
191.783979
 20
27.565875
 30
0.0
  0
LWPOLYLINE
  5
207
100
AcDbEntity
  8
0
 62
1
100
AcDbPolyline
 90
2
 70
0
 10
203.133979
 20
27.565875
 30
0.0
 10
214.483979
 20
27.565875
 30
0.0
  0
ENDSEC
  0
SECTION
  2
OBJECTS
  0
DICTIONARY
  5
C
330
0
100
AcDbDictionary
  3
ACAD_GROUP
350
D
  3
ACAD_MLINESTYLE
350
17
  0
DICTIONARY
  5
D
330
C
100
AcDbDictionary
  0
DICTIONARY
  5
1A
330
C
100
AcDbDictionary
  0
DICTIONARY
  5
17
330
C
100
AcDbDictionary
  3
STANDARD
350
18
  0
DICTIONARY
  5
19
330
C
100
AcDbDictionary
  0
ENDSEC
  0
EOF
