  0
SECTION
  2
HEADER
  9
$ACADVER
  1
AC1014
  9
$HANDSEED
  5
FFFF
  9
$MEASUREMENT
 70
     1
  0
ENDSEC
  0
SECTION
  2
TABLES
  0
TABLE
  2
VPORT
  5
8
330
0
100
AcDbSymbolTable
 70
     4
  0
VPORT
  5
2E
330
8
100
AcDbSymbolTableRecord
100
AcDbViewportTableRecord
  2
*ACTIVE
 70
     0
 10
0.0
 20
0.0
 11
1.0
 21
1.0
 12
210.0
 22
148.5
 13
0.0
 23
0.0
 14
10.0
 24
10.0
 15
10.0
 25
10.0
 16
0.0
 26
0.0
 36
1.0
 17
0.0
 27
0.0
 37
0.0
 40
341.0
 41
1.24
 42
50.0
 43
0.0
 44
0.0
 50
0.0
 51
0.0
 71
     0
 72
   100
 73
     1
 74
     3
 75
     0
 76
     0
 77
     0
 78
     0
  0
ENDTAB
  0
TABLE
  2
LTYPE
  5
5
330
0
100
AcDbSymbolTable
 70
     1
  0
LTYPE
  5
14
330
5
100
AcDbSymbolTableRecord
100
AcDbLinetypeTableRecord
  2
BYBLOCK
 70
     0
  3

 72
    65
 73
     0
 40
0.0
  0
LTYPE
  5
15
330
5
100
AcDbSymbolTableRecord
100
AcDbLinetypeTableRecord
  2
BYLAYER
 70
     0
  3

 72
    65
 73
     0
 40
0.0
  0
LTYPE
  5
16
330
5
100
AcDbSymbolTableRecord
100
AcDbLinetypeTableRecord
  2
CONTINUOUS
 70
     0
  3
Solid line
 72
    65
 73
     0
 40
0.0
  0
ENDTAB
  0
TABLE
  2
LAYER
  5
2
100
AcDbSymbolTable
 70
1
  0
LAYER
  5
50
100
AcDbSymbolTableRecord
100
AcDbLayerTableRecord
  2
0
 70
0
  6
CONTINUOUS
  0
ENDTAB
  0
TABLE
  2
STYLE
  5
3
330
0
100
AcDbSymbolTable
 70
     1
  0
STYLE
  5
11
330
3
100
AcDbSymbolTableRecord
100
AcDbTextStyleTableRecord
  2
STANDARD
 70
     0
 40
0.0
 41
1.0
 50
0.0
 71
     0
 42
2.5
  3
txt
  4

  0
ENDTAB
  0
TABLE
  2
VIEW
  5
6
330
0
100
AcDbSymbolTable
 70
     0
  0
ENDTAB
  0
TABLE
  2
UCS
  5
7
330
0
100
AcDbSymbolTable
 70
     0
  0
ENDTAB
  0
TABLE
  2
APPID
  5
9
330
0
100
AcDbSymbolTable
 70
     2
  0
APPID
  5
12
330
9
100
AcDbSymbolTableRecord
100
AcDbRegAppTableRecord
  2
ACAD
 70
     0
  0
ENDTAB
  0
TABLE
  2
DIMSTYLE
  5
A
330
0
100
AcDbSymbolTable
 70
     1
  0
DIMSTYLE
105
27
330
A
100
AcDbSymbolTableRecord
100
AcDbDimStyleTableRecord
  2
ISO-25
 70
     0
  3

  4

  5

  6

  7

 40
1.0
 41
2.5
 42
0.625
 43
3.75
 44
1.25
 45
0.0
 46
0.0
 47
0.0
 48
0.0
140
2.5
141
2.5
142
0.0
143
0.03937007874016
144
1.0
145
0.0
146
1.0
147
0.625
 71
     0
 72
     0
 73
     0
 74
     0
 75
     0
 76
     0
 77
     1
 78
     8
170
     0
171
     3
172
     1
173
     0
174
     0
175
     0
176
     0
177
     0
178
     0
270
     2
271
     2
272
     2
273
     2
274
     3
340
11
275
     0
280
     0
281
     0
282
     0
283
     0
284
     8
285
     0
286
     0
287
     3
288
     0
  0
ENDTAB
  0
TABLE
  2
BLOCK_RECORD
  5
1
330
0
100
AcDbSymbolTable
 70
     1
  0
BLOCK_RECORD
  5
1F
330
1
100
AcDbSymbolTableRecord
100
AcDbBlockTableRecord
  2
*MODEL_SPACE
  0
BLOCK_RECORD
  5
1B
330
1
100
AcDbSymbolTableRecord
100
AcDbBlockTableRecord
  2
*PAPER_SPACE
  0
ENDTAB
  0
ENDSEC
  0
SECTION
  2
BLOCKS
  0
BLOCK
  5
20
330
1F
100
AcDbEntity
  8
0
100
AcDbBlockBegin
  2
*MODEL_SPACE
 70
     0
 10
0.0
 20
0.0
 30
0.0
  3
*MODEL_SPACE
  1

  0
ENDBLK
  5
21
330
1F
100
AcDbEntity
  8
0
100
AcDbBlockEnd
  0
BLOCK
  5
1C
330
1B
100
AcDbEntity
 67
     1
  8
0
100
AcDbBlockBegin
  2
*PAPER_SPACE
  1

  0
ENDBLK
  5
1D
330
1B
100
AcDbEntity
 67
     1
  8
0
100
AcDbBlockEnd
  0
ENDSEC
  0
SECTION
  2
ENTITIES
  0
LWPOLYLINE
  5
100
100
AcDbEntity
  8
0
 62
5
100
AcDbPolyline
 90
5
 70
0
 10
21.942405
 20
196.360210
 30
0.0
 10
26.514405
 20
196.360210
 30
0.0
 10
26.514405
 20
252.240210
 30
0.0
 10
21.942405
 20
252.240210
 30
0.0
 10
21.942405
 20
196.360210
 30
0.0
  0
LWPOLYLINE
  5
101
100
AcDbEntity
  8
0
 62
5
100
AcDbPolyline
 90
5
 70
0
 10
73.250405
 20
196.360210
 30
0.0
 10
77.822405
 20
196.360210
 30
0.0
 10
77.822405
 20
252.240210
 30
0.0
 10
73.250405
 20
252.240210
 30
0.0
 10
73.250405
 20
196.360210
 30
0.0
  0
LWPOLYLINE
  5
102
100
AcDbEntity
  8
0
 62
1
100
AcDbPolyline
 90
2
 70
0
 10
101.942403
 20
259.860210
 30
0.0
 10
11.942405
 20
259.860210
 30
0.0
  0
LWPOLYLINE
  5
103
100
AcDbEntity
  8
0
 62
1
100
AcDbPolyline
 90
2
 70
0
 10
101.942403
 20
161.560204
 30
0.0
 10
101.942403
 20
259.860210
 30
0.0
  0
LWPOLYLINE
  5
104
100
AcDbEntity
  8
0
 62
1
100
AcDbPolyline
 90
2
 70
0
 10
11.942405
 20
161.560204
 30
0.0
 10
101.942403
 20
161.560204
 30
0.0
  0
LWPOLYLINE
  5
105
100
AcDbEntity
  8
0
 62
1
100
AcDbPolyline
 90
2
 70
0
 10
11.942405
 20
259.860210
 30
0.0
 10
11.942405
 20
161.560204
 30
0.0
  0
LWPOLYLINE
  5
106
100
AcDbEntity
  8
0
 62
5
100
AcDbPolyline
 90
2
 70
0
 10
103.542104
 20
94.827724
 30
0.0
 10
103.542104
 20
74.507724
 30
0.0
  0
LWPOLYLINE
  5
107
100
AcDbEntity
  8
0
 62
5
100
AcDbPolyline
 90
2
 70
0
 10
43.598104
 20
94.827724
 30
0.0
 10
103.542104
 20
94.827724
 30
0.0
  0
LWPOLYLINE
  5
108
100
AcDbEntity
  8
0
 62
5
100
AcDbPolyline
 90
2
 70
0
 10
43.598104
 20
74.507724
 30
0.0
 10
43.598104
 20
94.827724
 30
0.0
  0
LWPOLYLINE
  5
109
100
AcDbEntity
  8
0
 62
5
100
AcDbPolyline
 90
2
 70
0
 10
103.542104
 20
74.507724
 30
0.0
 10
43.598104
 20
74.507724
 30
0.0
  0
LWPOLYLINE
  5
10a
100
AcDbEntity
  8
0
 62
1
100
AcDbPolyline
 90
2
 70
0
 10
205.498105
 20
134.627723
 30
0.0
 10
5.498104
 20
134.627723
 30
0.0
  0
LWPOLYLINE
  5
10b
100
AcDbEntity
  8
0
 62
1
100
AcDbPolyline
 90
2
 70
0
 10
205.498105
 20
34.627723
 30
0.0
 10
205.498105
 20
134.627723
 30
0.0
  0
LWPOLYLINE
  5
10c
100
AcDbEntity
  8
0
 62
1
100
AcDbPolyline
 90
2
 70
0
 10
5.498104
 20
34.627723
 30
0.0
 10
205.498105
 20
34.627723
 30
0.0
  0
LWPOLYLINE
  5
10d
100
AcDbEntity
  8
0
 62
1
100
AcDbPolyline
 90
2
 70
0
 10
5.498104
 20
134.627723
 30
0.0
 10
5.498104
 20
34.627723
 30
0.0
  0
LWPOLYLINE
  5
10e
100
AcDbEntity
  8
0
 62
5
100
AcDbPolyline
 90
5
 70
0
 10
16.848104
 20
121.452723
 30
0.0
 10
28.198104
 20
121.452723
 30
0.0
 10
28.198104
 20
124.627723
 30
0.0
 10
16.848104
 20
124.627723
 30
0.0
 10
16.848104
 20
121.452723
 30
0.0
  0
LWPOLYLINE
  5
10f
100
AcDbEntity
  8
0
 62
5
100
AcDbPolyline
 90
5
 70
0
 10
182.798105
 20
121.452723
 30
0.0
 10
194.148103
 20
121.452723
 30
0.0
 10
194.148103
 20
124.627723
 30
0.0
 10
182.798105
 20
124.627723
 30
0.0
 10
182.798105
 20
121.452723
 30
0.0
  0
LWPOLYLINE
  5
110
100
AcDbEntity
  8
0
 62
5
100
AcDbPolyline
 90
5
 70
0
 10
160.098113
 20
121.452723
 30
0.0
 10
171.448115
 20
121.452723
 30
0.0
 10
171.448115
 20
124.627723
 30
0.0
 10
160.098113
 20
124.627723
 30
0.0
 10
160.098113
 20
121.452723
 30
0.0
  0
LWPOLYLINE
  5
111
100
AcDbEntity
  8
0
 62
5
100
AcDbPolyline
 90
5
 70
0
 10
62.248105
 20
121.452723
 30
0.0
 10
73.598103
 20
121.452723
 30
0.0
 10
73.598103
 20
124.627723
 30
0.0
 10
62.248105
 20
124.627723
 30
0.0
 10
62.248105
 20
121.452723
 30
0.0
  0
LWPOLYLINE
  5
112
100
AcDbEntity
  8
0
 62
5
100
AcDbPolyline
 90
5
 70
0
 10
39.548105
 20
121.452723
 30
0.0
 10
50.898103
 20
121.452723
 30
0.0
 10
50.898103
 20
124.627723
 30
0.0
 10
39.548105
 20
124.627723
 30
0.0
 10
39.548105
 20
121.452723
 30
0.0
  0
LWPOLYLINE
  5
113
100
AcDbEntity
  8
0
 62
5
100
AcDbPolyline
 90
5
 70
0
 10
16.848104
 20
44.627722
 30
0.0
 10
28.198104
 20
44.627722
 30
0.0
 10
28.198104
 20
47.802722
 30
0.0
 10
16.848104
 20
47.802722
 30
0.0
 10
16.848104
 20
44.627722
 30
0.0
  0
LWPOLYLINE
  5
114
100
AcDbEntity
  8
0
 62
5
100
AcDbPolyline
 90
5
 70
0
 10
182.798105
 20
44.627722
 30
0.0
 10
194.148103
 20
44.627722
 30
0.0
 10
194.148103
 20
47.802722
 30
0.0
 10
182.798105
 20
47.802722
 30
0.0
 10
182.798105
 20
44.627722
 30
0.0
  0
LWPOLYLINE
  5
115
100
AcDbEntity
  8
0
 62
5
100
AcDbPolyline
 90
5
 70
0
 10
160.098113
 20
44.627722
 30
0.0
 10
171.448115
 20
44.627722
 30
0.0
 10
171.448115
 20
47.802722
 30
0.0
 10
160.098113
 20
47.802722
 30
0.0
 10
160.098113
 20
44.627722
 30
0.0
  0
LWPOLYLINE
  5
116
100
AcDbEntity
  8
0
 62
5
100
AcDbPolyline
 90
5
 70
0
 10
62.248105
 20
44.627722
 30
0.0
 10
73.598103
 20
44.627722
 30
0.0
 10
73.598103
 20
47.802722
 30
0.0
 10
62.248105
 20
47.802722
 30
0.0
 10
62.248105
 20
44.627722
 30
0.0
  0
SPLINE
  5
117
100
AcDbEntity
  8
0
 62
5
100
AcDbSpline
 70
8
 71
3
 72
8
 73
4
 74
0
 40
0
 40
0
 40
0
 40
0
 40
1
 40
1
 40
1
 40
1
 10
17.212604
 20
109.227723
 30
0.0
 10
17.212604
 20
109.840255
 30
0.0
 10
16.885822
 20
110.406258
 30
0.0
 10
16.355354
 20
110.712523
 30
0.0
  0
SPLINE
  5
118
100
AcDbEntity
  8
0
 62
5
100
AcDbSpline
 70
8
 71
3
 72
8
 73
4
 74
0
 40
0
 40
0
 40
0
 40
0
 40
1
 40
1
 40
1
 40
1
 10
16.355354
 20
110.712523
 30
0.0
 10
15.824886
 20
111.018789
 30
0.0
 10
15.171322
 20
111.018789
 30
0.0
 10
14.640854
 20
110.712523
 30
0.0
  0
SPLINE
  5
119
100
AcDbEntity
  8
0
 62
5
100
AcDbSpline
 70
8
 71
3
 72
8
 73
4
 74
0
 40
0
 40
0
 40
0
 40
0
 40
1
 40
1
 40
1
 40
1
 10
14.640854
 20
110.712523
 30
0.0
 10
14.110386
 20
110.406258
 30
0.0
 10
13.783604
 20
109.840255
 30
0.0
 10
13.783604
 20
109.227723
 30
0.0
  0
SPLINE
  5
11a
100
AcDbEntity
  8
0
 62
5
100
AcDbSpline
 70
8
 71
3
 72
8
 73
4
 74
0
 40
0
 40
0
 40
0
 40
0
 40
1
 40
1
 40
1
 40
1
 10
13.783604
 20
109.227723
 30
0.0
 10
13.783604
 20
108.615191
 30
0.0
 10
14.110386
 20
108.049188
 30
0.0
 10
14.640854
 20
107.742922
 30
0.0
  0
SPLINE
  5
11b
100
AcDbEntity
  8
0
 62
5
100
AcDbSpline
 70
8
 71
3
 72
8
 73
4
 74
0
 40
0
 40
0
 40
0
 40
0
 40
1
 40
1
 40
1
 40
1
 10
14.640854
 20
107.742922
 30
0.0
 10
15.171322
 20
107.436656
 30
0.0
 10
15.824886
 20
107.436656
 30
0.0
 10
16.355354
 20
107.742922
 30
0.0
  0
SPLINE
  5
11c
100
AcDbEntity
  8
0
 62
5
100
AcDbSpline
 70
8
 71
3
 72
8
 73
4
 74
0
 40
0
 40
0
 40
0
 40
0
 40
1
 40
1
 40
1
 40
1
 10
16.355354
 20
107.742922
 30
0.0
 10
16.885822
 20
108.049188
 30
0.0
 10
17.212604
 20
108.615191
 30
0.0
 10
17.212604
 20
109.227723
 30
0.0
  0
LWPOLYLINE
  5
11d
100
AcDbEntity
  8
0
 62
5
100
AcDbPolyline
 90
5
 70
0
 10
39.548105
 20
44.627722
 30
0.0
 10
50.898103
 20
44.627722
 30
0.0
 10
50.898103
 20
47.802722
 30
0.0
 10
39.548105
 20
47.802722
 30
0.0
 10
39.548105
 20
44.627722
 30
0.0
  0
SPLINE
  5
11e
100
AcDbEntity
  8
0
 62
5
100
AcDbSpline
 70
8
 71
3
 72
8
 73
4
 74
0
 40
0
 40
0
 40
0
 40
0
 40
1
 40
1
 40
1
 40
1
 10
197.212605
 20
60.027723
 30
0.0
 10
197.212605
 20
60.640254
 30
0.0
 10
196.885823
 20
61.206257
 30
0.0
 10
196.355355
 20
61.512523
 30
0.0
  0
SPLINE
  5
11f
100
AcDbEntity
  8
0
 62
5
100
AcDbSpline
 70
8
 71
3
 72
8
 73
4
 74
0
 40
0
 40
0
 40
0
 40
0
 40
1
 40
1
 40
1
 40
1
 10
196.355355
 20
61.512523
 30
0.0
 10
195.824887
 20
61.818789
 30
0.0
 10
195.171323
 20
61.818789
 30
0.0
 10
194.640855
 20
61.512523
 30
0.0
  0
SPLINE
  5
120
100
AcDbEntity
  8
0
 62
5
100
AcDbSpline
 70
8
 71
3
 72
8
 73
4
 74
0
 40
0
 40
0
 40
0
 40
0
 40
1
 40
1
 40
1
 40
1
 10
194.640855
 20
61.512523
 30
0.0
 10
194.110387
 20
61.206257
 30
0.0
 10
193.783605
 20
60.640254
 30
0.0
 10
193.783605
 20
60.027723
 30
0.0
  0
SPLINE
  5
121
100
AcDbEntity
  8
0
 62
5
100
AcDbSpline
 70
8
 71
3
 72
8
 73
4
 74
0
 40
0
 40
0
 40
0
 40
0
 40
1
 40
1
 40
1
 40
1
 10
193.783605
 20
60.027723
 30
0.0
 10
193.783605
 20
59.415191
 30
0.0
 10
194.110387
 20
58.849188
 30
0.0
 10
194.640855
 20
58.542922
 30
0.0
  0
SPLINE
  5
122
100
AcDbEntity
  8
0
 62
5
100
AcDbSpline
 70
8
 71
3
 72
8
 73
4
 74
0
 40
0
 40
0
 40
0
 40
0
 40
1
 40
1
 40
1
 40
1
 10
194.640855
 20
58.542922
 30
0.0
 10
195.171323
 20
58.236656
 30
0.0
 10
195.824887
 20
58.236656
 30
0.0
 10
196.355355
 20
58.542922
 30
0.0
  0
SPLINE
  5
123
100
AcDbEntity
  8
0
 62
5
100
AcDbSpline
 70
8
 71
3
 72
8
 73
4
 74
0
 40
0
 40
0
 40
0
 40
0
 40
1
 40
1
 40
1
 40
1
 10
196.355355
 20
58.542922
 30
0.0
 10
196.885823
 20
58.849188
 30
0.0
 10
197.212605
 20
59.415191
 30
0.0
 10
197.212605
 20
60.027723
 30
0.0
  0
LWPOLYLINE
  5
124
100
AcDbEntity
  8
0
 62
5
100
AcDbPolyline
 90
2
 70
1
 10
17.212604
 20
109.227723
 30
0.0
 10
17.212604
 20
109.227723
 30
0.0
  0
SPLINE
  5
125
100
AcDbEntity
  8
0
 62
5
100
AcDbSpline
 70
8
 71
3
 72
8
 73
4
 74
0
 40
0
 40
0
 40
0
 40
0
 40
1
 40
1
 40
1
 40
1
 10
170.263205
 20
60.027723
 30
0.0
 10
170.263205
 20
60.640254
 30
0.0
 10
169.936423
 20
61.206257
 30
0.0
 10
169.405955
 20
61.512523
 30
0.0
  0
SPLINE
  5
126
100
AcDbEntity
  8
0
 62
5
100
AcDbSpline
 70
8
 71
3
 72
8
 73
4
 74
0
 40
0
 40
0
 40
0
 40
0
 40
1
 40
1
 40
1
 40
1
 10
169.405955
 20
61.512523
 30
0.0
 10
168.875487
 20
61.818789
 30
0.0
 10
168.221923
 20
61.818789
 30
0.0
 10
167.691455
 20
61.512523
 30
0.0
  0
SPLINE
  5
127
100
AcDbEntity
  8
0
 62
5
100
AcDbSpline
 70
8
 71
3
 72
8
 73
4
 74
0
 40
0
 40
0
 40
0
 40
0
 40
1
 40
1
 40
1
 40
1
 10
167.691455
 20
61.512523
 30
0.0
 10
167.160987
 20
61.206257
 30
0.0
 10
166.834205
 20
60.640254
 30
0.0
 10
166.834205
 20
60.027723
 30
0.0
  0
SPLINE
  5
128
100
AcDbEntity
  8
0
 62
5
100
AcDbSpline
 70
8
 71
3
 72
8
 73
4
 74
0
 40
0
 40
0
 40
0
 40
0
 40
1
 40
1
 40
1
 40
1
 10
166.834205
 20
60.027723
 30
0.0
 10
166.834205
 20
59.415191
 30
0.0
 10
167.160987
 20
58.849188
 30
0.0
 10
167.691455
 20
58.542922
 30
0.0
  0
SPLINE
  5
129
100
AcDbEntity
  8
0
 62
5
100
AcDbSpline
 70
8
 71
3
 72
8
 73
4
 74
0
 40
0
 40
0
 40
0
 40
0
 40
1
 40
1
 40
1
 40
1
 10
167.691455
 20
58.542922
 30
0.0
 10
168.221923
 20
58.236656
 30
0.0
 10
168.875487
 20
58.236656
 30
0.0
 10
169.405955
 20
58.542922
 30
0.0
  0
SPLINE
  5
12a
100
AcDbEntity
  8
0
 62
5
100
AcDbSpline
 70
8
 71
3
 72
8
 73
4
 74
0
 40
0
 40
0
 40
0
 40
0
 40
1
 40
1
 40
1
 40
1
 10
169.405955
 20
58.542922
 30
0.0
 10
169.936423
 20
58.849188
 30
0.0
 10
170.263205
 20
59.415191
 30
0.0
 10
170.263205
 20
60.027723
 30
0.0
  0
LWPOLYLINE
  5
12b
100
AcDbEntity
  8
0
 62
5
100
AcDbPolyline
 90
2
 70
1
 10
197.212605
 20
60.027723
 30
0.0
 10
197.212605
 20
60.027723
 30
0.0
  0
SPLINE
  5
12c
100
AcDbEntity
  8
0
 62
5
100
AcDbSpline
 70
8
 71
3
 72
8
 73
4
 74
0
 40
0
 40
0
 40
0
 40
0
 40
1
 40
1
 40
1
 40
1
 10
197.212605
 20
109.227723
 30
0.0
 10
197.212605
 20
109.840255
 30
0.0
 10
196.885823
 20
110.406258
 30
0.0
 10
196.355355
 20
110.712523
 30
0.0
  0
SPLINE
  5
12d
100
AcDbEntity
  8
0
 62
5
100
AcDbSpline
 70
8
 71
3
 72
8
 73
4
 74
0
 40
0
 40
0
 40
0
 40
0
 40
1
 40
1
 40
1
 40
1
 10
196.355355
 20
110.712523
 30
0.0
 10
195.824887
 20
111.018789
 30
0.0
 10
195.171323
 20
111.018789
 30
0.0
 10
194.640855
 20
110.712523
 30
0.0
  0
SPLINE
  5
12e
100
AcDbEntity
  8
0
 62
5
100
AcDbSpline
 70
8
 71
3
 72
8
 73
4
 74
0
 40
0
 40
0
 40
0
 40
0
 40
1
 40
1
 40
1
 40
1
 10
194.640855
 20
110.712523
 30
0.0
 10
194.110387
 20
110.406258
 30
0.0
 10
193.783605
 20
109.840255
 30
0.0
 10
193.783605
 20
109.227723
 30
0.0
  0
SPLINE
  5
12f
100
AcDbEntity
  8
0
 62
5
100
AcDbSpline
 70
8
 71
3
 72
8
 73
4
 74
0
 40
0
 40
0
 40
0
 40
0
 40
1
 40
1
 40
1
 40
1
 10
193.783605
 20
109.227723
 30
0.0
 10
193.783605
 20
108.615191
 30
0.0
 10
194.110387
 20
108.049188
 30
0.0
 10
194.640855
 20
107.742922
 30
0.0
  0
SPLINE
  5
130
100
AcDbEntity
  8
0
 62
5
100
AcDbSpline
 70
8
 71
3
 72
8
 73
4
 74
0
 40
0
 40
0
 40
0
 40
0
 40
1
 40
1
 40
1
 40
1
 10
194.640855
 20
107.742922
 30
0.0
 10
195.171323
 20
107.436656
 30
0.0
 10
195.824887
 20
107.436656
 30
0.0
 10
196.355355
 20
107.742922
 30
0.0
  0
SPLINE
  5
131
100
AcDbEntity
  8
0
 62
5
100
AcDbSpline
 70
8
 71
3
 72
8
 73
4
 74
0
 40
0
 40
0
 40
0
 40
0
 40
1
 40
1
 40
1
 40
1
 10
196.355355
 20
107.742922
 30
0.0
 10
196.885823
 20
108.049188
 30
0.0
 10
197.212605
 20
108.615191
 30
0.0
 10
197.212605
 20
109.227723
 30
0.0
  0
LWPOLYLINE
  5
132
100
AcDbEntity
  8
0
 62
5
100
AcDbPolyline
 90
2
 70
1
 10
170.263205
 20
60.027723
 30
0.0
 10
170.263205
 20
60.027723
 30
0.0
  0
SPLINE
  5
133
100
AcDbEntity
  8
0
 62
5
100
AcDbSpline
 70
8
 71
3
 72
8
 73
4
 74
0
 40
0
 40
0
 40
0
 40
0
 40
1
 40
1
 40
1
 40
1
 10
170.263205
 20
109.227723
 30
0.0
 10
170.263205
 20
109.840255
 30
0.0
 10
169.936423
 20
110.406258
 30
0.0
 10
169.405955
 20
110.712523
 30
0.0
  0
SPLINE
  5
134
100
AcDbEntity
  8
0
 62
5
100
AcDbSpline
 70
8
 71
3
 72
8
 73
4
 74
0
 40
0
 40
0
 40
0
 40
0
 40
1
 40
1
 40
1
 40
1
 10
169.405955
 20
110.712523
 30
0.0
 10
168.875487
 20
111.018789
 30
0.0
 10
168.221923
 20
111.018789
 30
0.0
 10
167.691455
 20
110.712523
 30
0.0
  0
SPLINE
  5
135
100
AcDbEntity
  8
0
 62
5
100
AcDbSpline
 70
8
 71
3
 72
8
 73
4
 74
0
 40
0
 40
0
 40
0
 40
0
 40
1
 40
1
 40
1
 40
1
 10
167.691455
 20
110.712523
 30
0.0
 10
167.160987
 20
110.406258
 30
0.0
 10
166.834205
 20
109.840255
 30
0.0
 10
166.834205
 20
109.227723
 30
0.0
  0
SPLINE
  5
136
100
AcDbEntity
  8
0
 62
5
100
AcDbSpline
 70
8
 71
3
 72
8
 73
4
 74
0
 40
0
 40
0
 40
0
 40
0
 40
1
 40
1
 40
1
 40
1
 10
166.834205
 20
109.227723
 30
0.0
 10
166.834205
 20
108.615191
 30
0.0
 10
167.160987
 20
108.049188
 30
0.0
 10
167.691455
 20
107.742922
 30
0.0
  0
SPLINE
  5
137
100
AcDbEntity
  8
0
 62
5
100
AcDbSpline
 70
8
 71
3
 72
8
 73
4
 74
0
 40
0
 40
0
 40
0
 40
0
 40
1
 40
1
 40
1
 40
1
 10
167.691455
 20
107.742922
 30
0.0
 10
168.221923
 20
107.436656
 30
0.0
 10
168.875487
 20
107.436656
 30
0.0
 10
169.405955
 20
107.742922
 30
0.0
  0
SPLINE
  5
138
100
AcDbEntity
  8
0
 62
5
100
AcDbSpline
 70
8
 71
3
 72
8
 73
4
 74
0
 40
0
 40
0
 40
0
 40
0
 40
1
 40
1
 40
1
 40
1
 10
169.405955
 20
107.742922
 30
0.0
 10
169.936423
 20
108.049188
 30
0.0
 10
170.263205
 20
108.615191
 30
0.0
 10
170.263205
 20
109.227723
 30
0.0
  0
LWPOLYLINE
  5
139
100
AcDbEntity
  8
0
 62
5
100
AcDbPolyline
 90
2
 70
1
 10
197.212605
 20
109.227723
 30
0.0
 10
197.212605
 20
109.227723
 30
0.0
  0
SPLINE
  5
13a
100
AcDbEntity
  8
0
 62
5
100
AcDbSpline
 70
8
 71
3
 72
8
 73
4
 74
0
 40
0
 40
0
 40
0
 40
0
 40
1
 40
1
 40
1
 40
1
 10
44.162004
 20
60.027723
 30
0.0
 10
44.162004
 20
60.640254
 30
0.0
 10
43.835222
 20
61.206257
 30
0.0
 10
43.304754
 20
61.512523
 30
0.0
  0
SPLINE
  5
13b
100
AcDbEntity
  8
0
 62
5
100
AcDbSpline
 70
8
 71
3
 72
8
 73
4
 74
0
 40
0
 40
0
 40
0
 40
0
 40
1
 40
1
 40
1
 40
1
 10
43.304754
 20
61.512523
 30
0.0
 10
42.774285
 20
61.818789
 30
0.0
 10
42.120722
 20
61.818789
 30
0.0
 10
41.590254
 20
61.512523
 30
0.0
  0
SPLINE
  5
13c
100
AcDbEntity
  8
0
 62
5
100
AcDbSpline
 70
8
 71
3
 72
8
 73
4
 74
0
 40
0
 40
0
 40
0
 40
0
 40
1
 40
1
 40
1
 40
1
 10
41.590254
 20
61.512523
 30
0.0
 10
41.059785
 20
61.206257
 30
0.0
 10
40.733004
 20
60.640254
 30
0.0
 10
40.733004
 20
60.027723
 30
0.0
  0
SPLINE
  5
13d
100
AcDbEntity
  8
0
 62
5
100
AcDbSpline
 70
8
 71
3
 72
8
 73
4
 74
0
 40
0
 40
0
 40
0
 40
0
 40
1
 40
1
 40
1
 40
1
 10
40.733004
 20
60.027723
 30
0.0
 10
40.733004
 20
59.080830
 30
0.0
 10
41.500611
 20
58.313223
 30
0.0
 10
42.447504
 20
58.313223
 30
0.0
  0
SPLINE
  5
13e
100
AcDbEntity
  8
0
 62
5
100
AcDbSpline
 70
8
 71
3
 72
8
 73
4
 74
0
 40
0
 40
0
 40
0
 40
0
 40
1
 40
1
 40
1
 40
1
 10
42.447504
 20
58.313223
 30
0.0
 10
43.394396
 20
58.313223
 30
0.0
 10
44.162003
 20
59.080830
 30
0.0
 10
44.162004
 20
60.027723
 30
0.0
  0
LWPOLYLINE
  5
13f
100
AcDbEntity
  8
0
 62
5
100
AcDbPolyline
 90
2
 70
1
 10
170.263205
 20
109.227723
 30
0.0
 10
170.263205
 20
109.227723
 30
0.0
  0
SPLINE
  5
140
100
AcDbEntity
  8
0
 62
5
100
AcDbSpline
 70
8
 71
3
 72
8
 73
4
 74
0
 40
0
 40
0
 40
0
 40
0
 40
1
 40
1
 40
1
 40
1
 10
17.212604
 20
60.027723
 30
0.0
 10
17.212604
 20
60.640254
 30
0.0
 10
16.885822
 20
61.206257
 30
0.0
 10
16.355354
 20
61.512523
 30
0.0
  0
SPLINE
  5
141
100
AcDbEntity
  8
0
 62
5
100
AcDbSpline
 70
8
 71
3
 72
8
 73
4
 74
0
 40
0
 40
0
 40
0
 40
0
 40
1
 40
1
 40
1
 40
1
 10
16.355354
 20
61.512523
 30
0.0
 10
15.824886
 20
61.818789
 30
0.0
 10
15.171322
 20
61.818789
 30
0.0
 10
14.640854
 20
61.512523
 30
0.0
  0
SPLINE
  5
142
100
AcDbEntity
  8
0
 62
5
100
AcDbSpline
 70
8
 71
3
 72
8
 73
4
 74
0
 40
0
 40
0
 40
0
 40
0
 40
1
 40
1
 40
1
 40
1
 10
14.640854
 20
61.512523
 30
0.0
 10
14.110386
 20
61.206257
 30
0.0
 10
13.783604
 20
60.640254
 30
0.0
 10
13.783604
 20
60.027723
 30
0.0
  0
SPLINE
  5
143
100
AcDbEntity
  8
0
 62
5
100
AcDbSpline
 70
8
 71
3
 72
8
 73
4
 74
0
 40
0
 40
0
 40
0
 40
0
 40
1
 40
1
 40
1
 40
1
 10
13.783604
 20
60.027723
 30
0.0
 10
13.783604
 20
59.415191
 30
0.0
 10
14.110386
 20
58.849188
 30
0.0
 10
14.640854
 20
58.542922
 30
0.0
  0
SPLINE
  5
144
100
AcDbEntity
  8
0
 62
5
100
AcDbSpline
 70
8
 71
3
 72
8
 73
4
 74
0
 40
0
 40
0
 40
0
 40
0
 40
1
 40
1
 40
1
 40
1
 10
14.640854
 20
58.542922
 30
0.0
 10
15.171322
 20
58.236656
 30
0.0
 10
15.824886
 20
58.236656
 30
0.0
 10
16.355354
 20
58.542922
 30
0.0
  0
SPLINE
  5
145
100
AcDbEntity
  8
0
 62
5
100
AcDbSpline
 70
8
 71
3
 72
8
 73
4
 74
0
 40
0
 40
0
 40
0
 40
0
 40
1
 40
1
 40
1
 40
1
 10
16.355354
 20
58.542922
 30
0.0
 10
16.885822
 20
58.849188
 30
0.0
 10
17.212604
 20
59.415191
 30
0.0
 10
17.212604
 20
60.027723
 30
0.0
  0
LWPOLYLINE
  5
146
100
AcDbEntity
  8
0
 62
5
100
AcDbPolyline
 90
2
 70
1
 10
44.162004
 20
60.027723
 30
0.0
 10
44.162004
 20
60.027723
 30
0.0
  0
SPLINE
  5
147
100
AcDbEntity
  8
0
 62
5
100
AcDbSpline
 70
8
 71
3
 72
8
 73
4
 74
0
 40
0
 40
0
 40
0
 40
0
 40
1
 40
1
 40
1
 40
1
 10
44.162004
 20
109.227723
 30
0.0
 10
44.162004
 20
109.840255
 30
0.0
 10
43.835222
 20
110.406258
 30
0.0
 10
43.304754
 20
110.712523
 30
0.0
  0
SPLINE
  5
148
100
AcDbEntity
  8
0
 62
5
100
AcDbSpline
 70
8
 71
3
 72
8
 73
4
 74
0
 40
0
 40
0
 40
0
 40
0
 40
1
 40
1
 40
1
 40
1
 10
43.304754
 20
110.712523
 30
0.0
 10
42.774285
 20
111.018789
 30
0.0
 10
42.120722
 20
111.018789
 30
0.0
 10
41.590254
 20
110.712523
 30
0.0
  0
SPLINE
  5
149
100
AcDbEntity
  8
0
 62
5
100
AcDbSpline
 70
8
 71
3
 72
8
 73
4
 74
0
 40
0
 40
0
 40
0
 40
0
 40
1
 40
1
 40
1
 40
1
 10
41.590254
 20
110.712523
 30
0.0
 10
41.059785
 20
110.406258
 30
0.0
 10
40.733004
 20
109.840255
 30
0.0
 10
40.733004
 20
109.227723
 30
0.0
  0
SPLINE
  5
14a
100
AcDbEntity
  8
0
 62
5
100
AcDbSpline
 70
8
 71
3
 72
8
 73
4
 74
0
 40
0
 40
0
 40
0
 40
0
 40
1
 40
1
 40
1
 40
1
 10
40.733004
 20
109.227723
 30
0.0
 10
40.733004
 20
108.280831
 30
0.0
 10
41.500611
 20
107.513223
 30
0.0
 10
42.447504
 20
107.513223
 30
0.0
  0
SPLINE
  5
14b
100
AcDbEntity
  8
0
 62
5
100
AcDbSpline
 70
8
 71
3
 72
8
 73
4
 74
0
 40
0
 40
0
 40
0
 40
0
 40
1
 40
1
 40
1
 40
1
 10
42.447504
 20
107.513223
 30
0.0
 10
43.394396
 20
107.513223
 30
0.0
 10
44.162003
 20
108.280831
 30
0.0
 10
44.162004
 20
109.227723
 30
0.0
  0
LWPOLYLINE
  5
14c
100
AcDbEntity
  8
0
 62
5
100
AcDbPolyline
 90
2
 70
1
 10
17.212604
 20
60.027723
 30
0.0
 10
17.212604
 20
60.027723
 30
0.0
  0
SPLINE
  5
14d
100
AcDbEntity
  8
0
 62
5
100
AcDbSpline
 70
8
 71
3
 72
8
 73
4
 74
0
 40
0
 40
0
 40
0
 40
0
 40
1
 40
1
 40
1
 40
1
 10
138.398103
 20
84.627724
 30
0.0
 10
138.398103
 20
87.878841
 30
0.0
 10
136.663653
 20
90.882997
 30
0.0
 10
133.848103
 20
92.508555
 30
0.0
  0
SPLINE
  5
14e
100
AcDbEntity
  8
0
 62
5
100
AcDbSpline
 70
8
 71
3
 72
8
 73
4
 74
0
 40
0
 40
0
 40
0
 40
0
 40
1
 40
1
 40
1
 40
1
 10
133.848103
 20
92.508555
 30
0.0
 10
131.032553
 20
94.134114
 30
0.0
 10
127.563653
 20
94.134114
 30
0.0
 10
124.748103
 20
92.508555
 30
0.0
  0
SPLINE
  5
14f
100
AcDbEntity
  8
0
 62
5
100
AcDbSpline
 70
8
 71
3
 72
8
 73
4
 74
0
 40
0
 40
0
 40
0
 40
0
 40
1
 40
1
 40
1
 40
1
 10
124.748103
 20
92.508555
 30
0.0
 10
121.932553
 20
90.882997
 30
0.0
 10
120.198103
 20
87.878841
 30
0.0
 10
120.198103
 20
84.627724
 30
0.0
  0
SPLINE
  5
150
100
AcDbEntity
  8
0
 62
5
100
AcDbSpline
 70
8
 71
3
 72
8
 73
4
 74
0
 40
0
 40
0
 40
0
 40
0
 40
1
 40
1
 40
1
 40
1
 10
120.198103
 20
84.627724
 30
0.0
 10
120.198103
 20
81.376607
 30
0.0
 10
121.932554
 20
78.372452
 30
0.0
 10
124.748103
 20
76.746893
 30
0.0
  0
SPLINE
  5
151
100
AcDbEntity
  8
0
 62
5
100
AcDbSpline
 70
8
 71
3
 72
8
 73
4
 74
0
 40
0
 40
0
 40
0
 40
0
 40
1
 40
1
 40
1
 40
1
 10
124.748103
 20
76.746893
 30
0.0
 10
127.563653
 20
75.121335
 30
0.0
 10
131.032553
 20
75.121335
 30
0.0
 10
133.848103
 20
76.746893
 30
0.0
  0
SPLINE
  5
152
100
AcDbEntity
  8
0
 62
5
100
AcDbSpline
 70
8
 71
3
 72
8
 73
4
 74
0
 40
0
 40
0
 40
0
 40
0
 40
1
 40
1
 40
1
 40
1
 10
133.848103
 20
76.746893
 30
0.0
 10
136.663653
 20
78.372452
 30
0.0
 10
138.398103
 20
81.376607
 30
0.0
 10
138.398103
 20
84.627724
 30
0.0
  0
LWPOLYLINE
  5
153
100
AcDbEntity
  8
0
 62
5
100
AcDbPolyline
 90
2
 70
1
 10
44.162004
 20
109.227723
 30
0.0
 10
44.162004
 20
109.227723
 30
0.0
  0
LWPOLYLINE
  5
154
100
AcDbEntity
  8
0
 62
5
100
AcDbPolyline
 90
2
 70
1
 10
138.398103
 20
84.627724
 30
0.0
 10
138.398103
 20
84.627724
 30
0.0
  0
LWPOLYLINE
  5
155
100
AcDbEntity
  8
0
 62
5
100
AcDbPolyline
 90
5
 70
0
 10
125.758445
 20
196.790879
 30
0.0
 10
130.330445
 20
196.790879
 30
0.0
 10
130.330445
 20
252.670879
 30
0.0
 10
125.758445
 20
252.670879
 30
0.0
 10
125.758445
 20
196.790879
 30
0.0
  0
LWPOLYLINE
  5
156
100
AcDbEntity
  8
0
 62
5
100
AcDbPolyline
 90
5
 70
0
 10
177.066445
 20
196.790879
 30
0.0
 10
181.638445
 20
196.790879
 30
0.0
 10
181.638445
 20
252.670879
 30
0.0
 10
177.066445
 20
252.670879
 30
0.0
 10
177.066445
 20
196.790879
 30
0.0
  0
LWPOLYLINE
  5
157
100
AcDbEntity
  8
0
 62
1
100
AcDbPolyline
 90
2
 70
0
 10
205.758446
 20
260.290879
 30
0.0
 10
115.758445
 20
260.290879
 30
0.0
  0
LWPOLYLINE
  5
158
100
AcDbEntity
  8
0
 62
1
100
AcDbPolyline
 90
2
 70
0
 10
205.758446
 20
161.990872
 30
0.0
 10
205.758446
 20
260.290879
 30
0.0
  0
LWPOLYLINE
  5
159
100
AcDbEntity
  8
0
 62
1
100
AcDbPolyline
 90
2
 70
0
 10
115.758445
 20
161.990872
 30
0.0
 10
205.758446
 20
161.990872
 30
0.0
  0
LWPOLYLINE
  5
15a
100
AcDbEntity
  8
0
 62
1
100
AcDbPolyline
 90
2
 70
0
 10
115.758445
 20
260.290879
 30
0.0
 10
115.758445
 20
161.990872
 30
0.0
  0
ENDSEC
  0
SECTION
  2
OBJECTS
  0
DICTIONARY
  5
C
330
0
100
AcDbDictionary
  3
ACAD_GROUP
350
D
  3
ACAD_MLINESTYLE
350
17
  0
DICTIONARY
  5
D
330
C
100
AcDbDictionary
  0
DICTIONARY
  5
1A
330
C
100
AcDbDictionary
  0
DICTIONARY
  5
17
330
C
100
AcDbDictionary
  3
STANDARD
350
18
  0
DICTIONARY
  5
19
330
C
100
AcDbDictionary
  0
ENDSEC
  0
EOF
