  0
SECTION
  2
HEADER
  9
$ACADVER
  1
AC1014
  9
$HANDSEED
  5
FFFF
  9
$MEASUREMENT
 70
     1
  0
ENDSEC
  0
SECTION
  2
TABLES
  0
TABLE
  2
VPORT
  5
8
330
0
100
AcDbSymbolTable
 70
     4
  0
VPORT
  5
2E
330
8
100
AcDbSymbolTableRecord
100
AcDbViewportTableRecord
  2
*ACTIVE
 70
     0
 10
0.0
 20
0.0
 11
1.0
 21
1.0
 12
210.0
 22
148.5
 13
0.0
 23
0.0
 14
10.0
 24
10.0
 15
10.0
 25
10.0
 16
0.0
 26
0.0
 36
1.0
 17
0.0
 27
0.0
 37
0.0
 40
341.0
 41
1.24
 42
50.0
 43
0.0
 44
0.0
 50
0.0
 51
0.0
 71
     0
 72
   100
 73
     1
 74
     3
 75
     0
 76
     0
 77
     0
 78
     0
  0
ENDTAB
  0
TABLE
  2
LTYPE
  5
5
330
0
100
AcDbSymbolTable
 70
     1
  0
LTYPE
  5
14
330
5
100
AcDbSymbolTableRecord
100
AcDbLinetypeTableRecord
  2
BYBLOCK
 70
     0
  3

 72
    65
 73
     0
 40
0.0
  0
LTYPE
  5
15
330
5
100
AcDbSymbolTableRecord
100
AcDbLinetypeTableRecord
  2
BYLAYER
 70
     0
  3

 72
    65
 73
     0
 40
0.0
  0
LTYPE
  5
16
330
5
100
AcDbSymbolTableRecord
100
AcDbLinetypeTableRecord
  2
CONTINUOUS
 70
     0
  3
Solid line
 72
    65
 73
     0
 40
0.0
  0
ENDTAB
  0
TABLE
  2
LAYER
  5
2
100
AcDbSymbolTable
 70
1
  0
LAYER
  5
50
100
AcDbSymbolTableRecord
100
AcDbLayerTableRecord
  2
0
 70
0
  6
CONTINUOUS
  0
ENDTAB
  0
TABLE
  2
STYLE
  5
3
330
0
100
AcDbSymbolTable
 70
     1
  0
STYLE
  5
11
330
3
100
AcDbSymbolTableRecord
100
AcDbTextStyleTableRecord
  2
STANDARD
 70
     0
 40
0.0
 41
1.0
 50
0.0
 71
     0
 42
2.5
  3
txt
  4

  0
ENDTAB
  0
TABLE
  2
VIEW
  5
6
330
0
100
AcDbSymbolTable
 70
     0
  0
ENDTAB
  0
TABLE
  2
UCS
  5
7
330
0
100
AcDbSymbolTable
 70
     0
  0
ENDTAB
  0
TABLE
  2
APPID
  5
9
330
0
100
AcDbSymbolTable
 70
     2
  0
APPID
  5
12
330
9
100
AcDbSymbolTableRecord
100
AcDbRegAppTableRecord
  2
ACAD
 70
     0
  0
ENDTAB
  0
TABLE
  2
DIMSTYLE
  5
A
330
0
100
AcDbSymbolTable
 70
     1
  0
DIMSTYLE
105
27
330
A
100
AcDbSymbolTableRecord
100
AcDbDimStyleTableRecord
  2
ISO-25
 70
     0
  3

  4

  5

  6

  7

 40
1.0
 41
2.5
 42
0.625
 43
3.75
 44
1.25
 45
0.0
 46
0.0
 47
0.0
 48
0.0
140
2.5
141
2.5
142
0.0
143
0.03937007874016
144
1.0
145
0.0
146
1.0
147
0.625
 71
     0
 72
     0
 73
     0
 74
     0
 75
     0
 76
     0
 77
     1
 78
     8
170
     0
171
     3
172
     1
173
     0
174
     0
175
     0
176
     0
177
     0
178
     0
270
     2
271
     2
272
     2
273
     2
274
     3
340
11
275
     0
280
     0
281
     0
282
     0
283
     0
284
     8
285
     0
286
     0
287
     3
288
     0
  0
ENDTAB
  0
TABLE
  2
BLOCK_RECORD
  5
1
330
0
100
AcDbSymbolTable
 70
     1
  0
BLOCK_RECORD
  5
1F
330
1
100
AcDbSymbolTableRecord
100
AcDbBlockTableRecord
  2
*MODEL_SPACE
  0
BLOCK_RECORD
  5
1B
330
1
100
AcDbSymbolTableRecord
100
AcDbBlockTableRecord
  2
*PAPER_SPACE
  0
ENDTAB
  0
ENDSEC
  0
SECTION
  2
BLOCKS
  0
BLOCK
  5
20
330
1F
100
AcDbEntity
  8
0
100
AcDbBlockBegin
  2
*MODEL_SPACE
 70
     0
 10
0.0
 20
0.0
 30
0.0
  3
*MODEL_SPACE
  1

  0
ENDBLK
  5
21
330
1F
100
AcDbEntity
  8
0
100
AcDbBlockEnd
  0
BLOCK
  5
1C
330
1B
100
AcDbEntity
 67
     1
  8
0
100
AcDbBlockBegin
  2
*PAPER_SPACE
  1

  0
ENDBLK
  5
1D
330
1B
100
AcDbEntity
 67
     1
  8
0
100
AcDbBlockEnd
  0
ENDSEC
  0
SECTION
  2
ENTITIES
  0
LWPOLYLINE
  5
100
100
AcDbEntity
  8
0
 62
5
100
AcDbPolyline
 90
2
 70
0
 10
102.752361
 20
252.473885
 30
0.0
 10
102.752361
 20
232.153885
 30
0.0
  0
LWPOLYLINE
  5
101
100
AcDbEntity
  8
0
 62
5
100
AcDbPolyline
 90
2
 70
0
 10
42.808361
 20
252.473885
 30
0.0
 10
102.752361
 20
252.473885
 30
0.0
  0
LWPOLYLINE
  5
102
100
AcDbEntity
  8
0
 62
5
100
AcDbPolyline
 90
2
 70
0
 10
42.808361
 20
232.153885
 30
0.0
 10
42.808361
 20
252.473885
 30
0.0
  0
LWPOLYLINE
  5
103
100
AcDbEntity
  8
0
 62
5
100
AcDbPolyline
 90
2
 70
0
 10
102.752361
 20
232.153885
 30
0.0
 10
42.808361
 20
232.153885
 30
0.0
  0
LWPOLYLINE
  5
104
100
AcDbEntity
  8
0
 62
1
100
AcDbPolyline
 90
2
 70
0
 10
204.708362
 20
292.273885
 30
0.0
 10
4.708361
 20
292.273885
 30
0.0
  0
LWPOLYLINE
  5
105
100
AcDbEntity
  8
0
 62
1
100
AcDbPolyline
 90
2
 70
0
 10
204.708362
 20
192.273884
 30
0.0
 10
204.708362
 20
292.273885
 30
0.0
  0
LWPOLYLINE
  5
106
100
AcDbEntity
  8
0
 62
1
100
AcDbPolyline
 90
2
 70
0
 10
4.708361
 20
192.273884
 30
0.0
 10
204.708362
 20
192.273884
 30
0.0
  0
LWPOLYLINE
  5
107
100
AcDbEntity
  8
0
 62
1
100
AcDbPolyline
 90
2
 70
0
 10
4.708361
 20
292.273885
 30
0.0
 10
4.708361
 20
192.273884
 30
0.0
  0
LWPOLYLINE
  5
108
100
AcDbEntity
  8
0
 62
5
100
AcDbPolyline
 90
5
 70
0
 10
16.058361
 20
279.098885
 30
0.0
 10
27.408361
 20
279.098885
 30
0.0
 10
27.408361
 20
282.273885
 30
0.0
 10
16.058361
 20
282.273885
 30
0.0
 10
16.058361
 20
279.098885
 30
0.0
  0
LWPOLYLINE
  5
109
100
AcDbEntity
  8
0
 62
5
100
AcDbPolyline
 90
5
 70
0
 10
182.008362
 20
279.098885
 30
0.0
 10
193.358361
 20
279.098885
 30
0.0
 10
193.358361
 20
282.273885
 30
0.0
 10
182.008362
 20
282.273885
 30
0.0
 10
182.008362
 20
279.098885
 30
0.0
  0
LWPOLYLINE
  5
10a
100
AcDbEntity
  8
0
 62
5
100
AcDbPolyline
 90
5
 70
0
 10
159.308371
 20
279.098885
 30
0.0
 10
170.658372
 20
279.098885
 30
0.0
 10
170.658372
 20
282.273885
 30
0.0
 10
159.308371
 20
282.273885
 30
0.0
 10
159.308371
 20
279.098885
 30
0.0
  0
LWPOLYLINE
  5
10b
100
AcDbEntity
  8
0
 62
5
100
AcDbPolyline
 90
5
 70
0
 10
61.458362
 20
279.098885
 30
0.0
 10
72.808361
 20
279.098885
 30
0.0
 10
72.808361
 20
282.273885
 30
0.0
 10
61.458362
 20
282.273885
 30
0.0
 10
61.458362
 20
279.098885
 30
0.0
  0
LWPOLYLINE
  5
10c
100
AcDbEntity
  8
0
 62
5
100
AcDbPolyline
 90
5
 70
0
 10
38.758362
 20
279.098885
 30
0.0
 10
50.108361
 20
279.098885
 30
0.0
 10
50.108361
 20
282.273885
 30
0.0
 10
38.758362
 20
282.273885
 30
0.0
 10
38.758362
 20
279.098885
 30
0.0
  0
LWPOLYLINE
  5
10d
100
AcDbEntity
  8
0
 62
5
100
AcDbPolyline
 90
5
 70
0
 10
16.058361
 20
202.273883
 30
0.0
 10
27.408361
 20
202.273883
 30
0.0
 10
27.408361
 20
205.448883
 30
0.0
 10
16.058361
 20
205.448883
 30
0.0
 10
16.058361
 20
202.273883
 30
0.0
  0
LWPOLYLINE
  5
10e
100
AcDbEntity
  8
0
 62
5
100
AcDbPolyline
 90
5
 70
0
 10
182.008362
 20
202.273883
 30
0.0
 10
193.358361
 20
202.273883
 30
0.0
 10
193.358361
 20
205.448883
 30
0.0
 10
182.008362
 20
205.448883
 30
0.0
 10
182.008362
 20
202.273883
 30
0.0
  0
LWPOLYLINE
  5
10f
100
AcDbEntity
  8
0
 62
5
100
AcDbPolyline
 90
5
 70
0
 10
159.308371
 20
202.273883
 30
0.0
 10
170.658372
 20
202.273883
 30
0.0
 10
170.658372
 20
205.448883
 30
0.0
 10
159.308371
 20
205.448883
 30
0.0
 10
159.308371
 20
202.273883
 30
0.0
  0
LWPOLYLINE
  5
110
100
AcDbEntity
  8
0
 62
5
100
AcDbPolyline
 90
5
 70
0
 10
61.458362
 20
202.273883
 30
0.0
 10
72.808361
 20
202.273883
 30
0.0
 10
72.808361
 20
205.448883
 30
0.0
 10
61.458362
 20
205.448883
 30
0.0
 10
61.458362
 20
202.273883
 30
0.0
  0
SPLINE
  5
111
100
AcDbEntity
  8
0
 62
5
100
AcDbSpline
 70
8
 71
3
 72
8
 73
4
 74
0
 40
0
 40
0
 40
0
 40
0
 40
1
 40
1
 40
1
 40
1
 10
137.608361
 20
242.273885
 30
0.0
 10
137.608361
 20
245.525002
 30
0.0
 10
135.873910
 20
248.529158
 30
0.0
 10
133.058361
 20
250.154716
 30
0.0
  0
SPLINE
  5
112
100
AcDbEntity
  8
0
 62
5
100
AcDbSpline
 70
8
 71
3
 72
8
 73
4
 74
0
 40
0
 40
0
 40
0
 40
0
 40
1
 40
1
 40
1
 40
1
 10
133.058361
 20
250.154716
 30
0.0
 10
130.242811
 20
251.780275
 30
0.0
 10
126.773910
 20
251.780275
 30
0.0
 10
123.958361
 20
250.154716
 30
0.0
  0
SPLINE
  5
113
100
AcDbEntity
  8
0
 62
5
100
AcDbSpline
 70
8
 71
3
 72
8
 73
4
 74
0
 40
0
 40
0
 40
0
 40
0
 40
1
 40
1
 40
1
 40
1
 10
123.958361
 20
250.154716
 30
0.0
 10
121.142811
 20
248.529158
 30
0.0
 10
119.408361
 20
245.525002
 30
0.0
 10
119.408361
 20
242.273885
 30
0.0
  0
SPLINE
  5
114
100
AcDbEntity
  8
0
 62
5
100
AcDbSpline
 70
8
 71
3
 72
8
 73
4
 74
0
 40
0
 40
0
 40
0
 40
0
 40
1
 40
1
 40
1
 40
1
 10
119.408361
 20
242.273885
 30
0.0
 10
119.408361
 20
239.022768
 30
0.0
 10
121.142811
 20
236.018613
 30
0.0
 10
123.958361
 20
234.393054
 30
0.0
  0
SPLINE
  5
115
100
AcDbEntity
  8
0
 62
5
100
AcDbSpline
 70
8
 71
3
 72
8
 73
4
 74
0
 40
0
 40
0
 40
0
 40
0
 40
1
 40
1
 40
1
 40
1
 10
123.958361
 20
234.393054
 30
0.0
 10
126.773911
 20
232.767496
 30
0.0
 10
130.242811
 20
232.767496
 30
0.0
 10
133.058361
 20
234.393054
 30
0.0
  0
SPLINE
  5
116
100
AcDbEntity
  8
0
 62
5
100
AcDbSpline
 70
8
 71
3
 72
8
 73
4
 74
0
 40
0
 40
0
 40
0
 40
0
 40
1
 40
1
 40
1
 40
1
 10
133.058361
 20
234.393054
 30
0.0
 10
135.873910
 20
236.018613
 30
0.0
 10
137.608361
 20
239.022768
 30
0.0
 10
137.608361
 20
242.273885
 30
0.0
  0
LWPOLYLINE
  5
117
100
AcDbEntity
  8
0
 62
5
100
AcDbPolyline
 90
5
 70
0
 10
38.758362
 20
202.273883
 30
0.0
 10
50.108361
 20
202.273883
 30
0.0
 10
50.108361
 20
205.448883
 30
0.0
 10
38.758362
 20
205.448883
 30
0.0
 10
38.758362
 20
202.273883
 30
0.0
  0
SPLINE
  5
118
100
AcDbEntity
  8
0
 62
5
100
AcDbSpline
 70
8
 71
3
 72
8
 73
4
 74
0
 40
0
 40
0
 40
0
 40
0
 40
1
 40
1
 40
1
 40
1
 10
174.275959
 20
255.748484
 30
0.0
 10
174.275959
 20
256.383702
 30
0.0
 10
173.937074
 20
256.970668
 30
0.0
 10
173.386959
 20
257.288277
 30
0.0
  0
SPLINE
  5
119
100
AcDbEntity
  8
0
 62
5
100
AcDbSpline
 70
8
 71
3
 72
8
 73
4
 74
0
 40
0
 40
0
 40
0
 40
0
 40
1
 40
1
 40
1
 40
1
 10
173.386959
 20
257.288277
 30
0.0
 10
172.836844
 20
257.605886
 30
0.0
 10
172.159074
 20
257.605886
 30
0.0
 10
171.608959
 20
257.288277
 30
0.0
  0
SPLINE
  5
11a
100
AcDbEntity
  8
0
 62
5
100
AcDbSpline
 70
8
 71
3
 72
8
 73
4
 74
0
 40
0
 40
0
 40
0
 40
0
 40
1
 40
1
 40
1
 40
1
 10
171.608959
 20
257.288277
 30
0.0
 10
171.058844
 20
256.970668
 30
0.0
 10
170.719959
 20
256.383702
 30
0.0
 10
170.719959
 20
255.748484
 30
0.0
  0
SPLINE
  5
11b
100
AcDbEntity
  8
0
 62
5
100
AcDbSpline
 70
8
 71
3
 72
8
 73
4
 74
0
 40
0
 40
0
 40
0
 40
0
 40
1
 40
1
 40
1
 40
1
 10
170.719959
 20
255.748484
 30
0.0
 10
170.719959
 20
255.113265
 30
0.0
 10
171.058844
 20
254.526300
 30
0.0
 10
171.608959
 20
254.208691
 30
0.0
  0
SPLINE
  5
11c
100
AcDbEntity
  8
0
 62
5
100
AcDbSpline
 70
8
 71
3
 72
8
 73
4
 74
0
 40
0
 40
0
 40
0
 40
0
 40
1
 40
1
 40
1
 40
1
 10
171.608959
 20
254.208691
 30
0.0
 10
172.159074
 20
253.891081
 30
0.0
 10
172.836844
 20
253.891081
 30
0.0
 10
173.386959
 20
254.208691
 30
0.0
  0
SPLINE
  5
11d
100
AcDbEntity
  8
0
 62
5
100
AcDbSpline
 70
8
 71
3
 72
8
 73
4
 74
0
 40
0
 40
0
 40
0
 40
0
 40
1
 40
1
 40
1
 40
1
 10
173.386959
 20
254.208691
 30
0.0
 10
173.937074
 20
254.526300
 30
0.0
 10
174.275959
 20
255.113265
 30
0.0
 10
174.275959
 20
255.748484
 30
0.0
  0
LWPOLYLINE
  5
11e
100
AcDbEntity
  8
0
 62
5
100
AcDbPolyline
 90
2
 70
1
 10
137.608361
 20
242.273885
 30
0.0
 10
137.608361
 20
242.273885
 30
0.0
  0
SPLINE
  5
11f
100
AcDbEntity
  8
0
 62
5
100
AcDbSpline
 70
8
 71
3
 72
8
 73
4
 74
0
 40
0
 40
0
 40
0
 40
0
 40
1
 40
1
 40
1
 40
1
 10
182.175359
 20
228.799084
 30
0.0
 10
182.175359
 20
229.434302
 30
0.0
 10
181.836474
 20
230.021268
 30
0.0
 10
181.286359
 20
230.338877
 30
0.0
  0
SPLINE
  5
120
100
AcDbEntity
  8
0
 62
5
100
AcDbSpline
 70
8
 71
3
 72
8
 73
4
 74
0
 40
0
 40
0
 40
0
 40
0
 40
1
 40
1
 40
1
 40
1
 10
181.286359
 20
230.338877
 30
0.0
 10
180.736244
 20
230.656486
 30
0.0
 10
180.058474
 20
230.656486
 30
0.0
 10
179.508359
 20
230.338877
 30
0.0
  0
SPLINE
  5
121
100
AcDbEntity
  8
0
 62
5
100
AcDbSpline
 70
8
 71
3
 72
8
 73
4
 74
0
 40
0
 40
0
 40
0
 40
0
 40
1
 40
1
 40
1
 40
1
 10
179.508359
 20
230.338877
 30
0.0
 10
178.958244
 20
230.021268
 30
0.0
 10
178.619359
 20
229.434302
 30
0.0
 10
178.619359
 20
228.799084
 30
0.0
  0
SPLINE
  5
122
100
AcDbEntity
  8
0
 62
5
100
AcDbSpline
 70
8
 71
3
 72
8
 73
4
 74
0
 40
0
 40
0
 40
0
 40
0
 40
1
 40
1
 40
1
 40
1
 10
178.619359
 20
228.799084
 30
0.0
 10
178.619359
 20
228.163865
 30
0.0
 10
178.958244
 20
227.576900
 30
0.0
 10
179.508359
 20
227.259291
 30
0.0
  0
SPLINE
  5
123
100
AcDbEntity
  8
0
 62
5
100
AcDbSpline
 70
8
 71
3
 72
8
 73
4
 74
0
 40
0
 40
0
 40
0
 40
0
 40
1
 40
1
 40
1
 40
1
 10
179.508359
 20
227.259291
 30
0.0
 10
180.058474
 20
226.941681
 30
0.0
 10
180.736244
 20
226.941681
 30
0.0
 10
181.286359
 20
227.259291
 30
0.0
  0
SPLINE
  5
124
100
AcDbEntity
  8
0
 62
5
100
AcDbSpline
 70
8
 71
3
 72
8
 73
4
 74
0
 40
0
 40
0
 40
0
 40
0
 40
1
 40
1
 40
1
 40
1
 10
181.286359
 20
227.259291
 30
0.0
 10
181.836474
 20
227.576900
 30
0.0
 10
182.175359
 20
228.163865
 30
0.0
 10
182.175359
 20
228.799084
 30
0.0
  0
LWPOLYLINE
  5
125
100
AcDbEntity
  8
0
 62
5
100
AcDbPolyline
 90
2
 70
1
 10
174.275959
 20
255.748484
 30
0.0
 10
174.275959
 20
255.748484
 30
0.0
  0
SPLINE
  5
126
100
AcDbEntity
  8
0
 62
5
100
AcDbSpline
 70
8
 71
3
 72
8
 73
4
 74
0
 40
0
 40
0
 40
0
 40
0
 40
1
 40
1
 40
1
 40
1
 10
174.275959
 20
228.799084
 30
0.0
 10
174.275959
 20
229.434302
 30
0.0
 10
173.937074
 20
230.021268
 30
0.0
 10
173.386959
 20
230.338877
 30
0.0
  0
SPLINE
  5
127
100
AcDbEntity
  8
0
 62
5
100
AcDbSpline
 70
8
 71
3
 72
8
 73
4
 74
0
 40
0
 40
0
 40
0
 40
0
 40
1
 40
1
 40
1
 40
1
 10
173.386959
 20
230.338877
 30
0.0
 10
172.836844
 20
230.656486
 30
0.0
 10
172.159074
 20
230.656486
 30
0.0
 10
171.608959
 20
230.338877
 30
0.0
  0
SPLINE
  5
128
100
AcDbEntity
  8
0
 62
5
100
AcDbSpline
 70
8
 71
3
 72
8
 73
4
 74
0
 40
0
 40
0
 40
0
 40
0
 40
1
 40
1
 40
1
 40
1
 10
171.608959
 20
230.338877
 30
0.0
 10
171.058844
 20
230.021268
 30
0.0
 10
170.719959
 20
229.434302
 30
0.0
 10
170.719959
 20
228.799084
 30
0.0
  0
SPLINE
  5
129
100
AcDbEntity
  8
0
 62
5
100
AcDbSpline
 70
8
 71
3
 72
8
 73
4
 74
0
 40
0
 40
0
 40
0
 40
0
 40
1
 40
1
 40
1
 40
1
 10
170.719959
 20
228.799084
 30
0.0
 10
170.719959
 20
228.163865
 30
0.0
 10
171.058844
 20
227.576900
 30
0.0
 10
171.608959
 20
227.259291
 30
0.0
  0
SPLINE
  5
12a
100
AcDbEntity
  8
0
 62
5
100
AcDbSpline
 70
8
 71
3
 72
8
 73
4
 74
0
 40
0
 40
0
 40
0
 40
0
 40
1
 40
1
 40
1
 40
1
 10
171.608959
 20
227.259291
 30
0.0
 10
172.159074
 20
226.941681
 30
0.0
 10
172.836844
 20
226.941681
 30
0.0
 10
173.386959
 20
227.259291
 30
0.0
  0
SPLINE
  5
12b
100
AcDbEntity
  8
0
 62
5
100
AcDbSpline
 70
8
 71
3
 72
8
 73
4
 74
0
 40
0
 40
0
 40
0
 40
0
 40
1
 40
1
 40
1
 40
1
 10
173.386959
 20
227.259291
 30
0.0
 10
173.937074
 20
227.576900
 30
0.0
 10
174.275959
 20
228.163865
 30
0.0
 10
174.275959
 20
228.799084
 30
0.0
  0
LWPOLYLINE
  5
12c
100
AcDbEntity
  8
0
 62
5
100
AcDbPolyline
 90
2
 70
1
 10
182.175359
 20
228.799084
 30
0.0
 10
182.175359
 20
228.799084
 30
0.0
  0
SPLINE
  5
12d
100
AcDbEntity
  8
0
 62
5
100
AcDbSpline
 70
8
 71
3
 72
8
 73
4
 74
0
 40
0
 40
0
 40
0
 40
0
 40
1
 40
1
 40
1
 40
1
 10
182.175359
 20
255.748484
 30
0.0
 10
182.175359
 20
256.383702
 30
0.0
 10
181.836474
 20
256.970668
 30
0.0
 10
181.286359
 20
257.288277
 30
0.0
  0
SPLINE
  5
12e
100
AcDbEntity
  8
0
 62
5
100
AcDbSpline
 70
8
 71
3
 72
8
 73
4
 74
0
 40
0
 40
0
 40
0
 40
0
 40
1
 40
1
 40
1
 40
1
 10
181.286359
 20
257.288277
 30
0.0
 10
180.736244
 20
257.605886
 30
0.0
 10
180.058474
 20
257.605886
 30
0.0
 10
179.508359
 20
257.288277
 30
0.0
  0
SPLINE
  5
12f
100
AcDbEntity
  8
0
 62
5
100
AcDbSpline
 70
8
 71
3
 72
8
 73
4
 74
0
 40
0
 40
0
 40
0
 40
0
 40
1
 40
1
 40
1
 40
1
 10
179.508359
 20
257.288277
 30
0.0
 10
178.958244
 20
256.970668
 30
0.0
 10
178.619359
 20
256.383702
 30
0.0
 10
178.619359
 20
255.748484
 30
0.0
  0
SPLINE
  5
130
100
AcDbEntity
  8
0
 62
5
100
AcDbSpline
 70
8
 71
3
 72
8
 73
4
 74
0
 40
0
 40
0
 40
0
 40
0
 40
1
 40
1
 40
1
 40
1
 10
178.619359
 20
255.748484
 30
0.0
 10
178.619359
 20
255.113265
 30
0.0
 10
178.958244
 20
254.526300
 30
0.0
 10
179.508359
 20
254.208691
 30
0.0
  0
SPLINE
  5
131
100
AcDbEntity
  8
0
 62
5
100
AcDbSpline
 70
8
 71
3
 72
8
 73
4
 74
0
 40
0
 40
0
 40
0
 40
0
 40
1
 40
1
 40
1
 40
1
 10
179.508359
 20
254.208691
 30
0.0
 10
180.058474
 20
253.891081
 30
0.0
 10
180.736244
 20
253.891081
 30
0.0
 10
181.286359
 20
254.208691
 30
0.0
  0
SPLINE
  5
132
100
AcDbEntity
  8
0
 62
5
100
AcDbSpline
 70
8
 71
3
 72
8
 73
4
 74
0
 40
0
 40
0
 40
0
 40
0
 40
1
 40
1
 40
1
 40
1
 10
181.286359
 20
254.208691
 30
0.0
 10
181.836474
 20
254.526300
 30
0.0
 10
182.175359
 20
255.113265
 30
0.0
 10
182.175359
 20
255.748484
 30
0.0
  0
LWPOLYLINE
  5
133
100
AcDbEntity
  8
0
 62
5
100
AcDbPolyline
 90
2
 70
1
 10
174.275959
 20
228.799084
 30
0.0
 10
174.275959
 20
228.799084
 30
0.0
  0
LWPOLYLINE
  5
134
100
AcDbEntity
  8
0
 62
5
100
AcDbPolyline
 90
2
 70
1
 10
182.175359
 20
255.748484
 30
0.0
 10
182.175359
 20
255.748484
 30
0.0
  0
LWPOLYLINE
  5
135
100
AcDbEntity
  8
0
 62
1
100
AcDbPolyline
 90
2
 70
0
 10
27.113433
 20
164.844870
 30
0.0
 10
27.113433
 20
177.924879
 30
0.0
  0
LWPOLYLINE
  5
136
100
AcDbEntity
  8
0
 62
1
100
AcDbPolyline
 90
2
 70
0
 10
38.613444
 20
164.844870
 30
0.0
 10
27.113433
 20
164.844870
 30
0.0
  0
LWPOLYLINE
  5
137
100
AcDbEntity
  8
0
 62
1
100
AcDbPolyline
 90
2
 70
0
 10
38.613444
 20
177.924879
 30
0.0
 10
38.613444
 20
164.844870
 30
0.0
  0
LWPOLYLINE
  5
138
100
AcDbEntity
  8
0
 62
1
100
AcDbPolyline
 90
2
 70
0
 10
49.963443
 20
164.844870
 30
0.0
 10
49.963443
 20
177.924879
 30
0.0
  0
LWPOLYLINE
  5
139
100
AcDbEntity
  8
0
 62
1
100
AcDbPolyline
 90
2
 70
0
 10
61.463453
 20
164.844870
 30
0.0
 10
49.963443
 20
164.844870
 30
0.0
  0
LWPOLYLINE
  5
13a
100
AcDbEntity
  8
0
 62
1
100
AcDbPolyline
 90
2
 70
0
 10
61.463453
 20
177.924879
 30
0.0
 10
61.463453
 20
164.844870
 30
0.0
  0
LWPOLYLINE
  5
13b
100
AcDbEntity
  8
0
 62
1
100
AcDbPolyline
 90
2
 70
0
 10
72.813452
 20
164.844870
 30
0.0
 10
72.813452
 20
177.924879
 30
0.0
  0
LWPOLYLINE
  5
13c
100
AcDbEntity
  8
0
 62
1
100
AcDbPolyline
 90
2
 70
0
 10
158.863422
 20
164.844870
 30
0.0
 10
72.813452
 20
164.844870
 30
0.0
  0
LWPOLYLINE
  5
13d
100
AcDbEntity
  8
0
 62
1
100
AcDbPolyline
 90
2
 70
0
 10
158.863422
 20
177.924879
 30
0.0
 10
158.863422
 20
164.844870
 30
0.0
  0
LWPOLYLINE
  5
13e
100
AcDbEntity
  8
0
 62
1
100
AcDbPolyline
 90
2
 70
0
 10
170.213424
 20
164.844870
 30
0.0
 10
170.213424
 20
177.924879
 30
0.0
  0
LWPOLYLINE
  5
13f
100
AcDbEntity
  8
0
 62
1
100
AcDbPolyline
 90
2
 70
0
 10
181.563422
 20
164.844870
 30
0.0
 10
170.213424
 20
164.844870
 30
0.0
  0
LWPOLYLINE
  5
140
100
AcDbEntity
  8
0
 62
1
100
AcDbPolyline
 90
2
 70
0
 10
181.563422
 20
177.924879
 30
0.0
 10
181.563422
 20
164.844870
 30
0.0
  0
LWPOLYLINE
  5
141
100
AcDbEntity
  8
0
 62
1
100
AcDbPolyline
 90
2
 70
0
 10
192.913423
 20
164.844870
 30
0.0
 10
192.913423
 20
177.924879
 30
0.0
  0
LWPOLYLINE
  5
142
100
AcDbEntity
  8
0
 62
1
100
AcDbPolyline
 90
2
 70
0
 10
204.263422
 20
164.844870
 30
0.0
 10
192.913423
 20
164.844870
 30
0.0
  0
LWPOLYLINE
  5
143
100
AcDbEntity
  8
0
 62
1
100
AcDbPolyline
 90
2
 70
0
 10
192.913423
 20
64.004888
 30
0.0
 10
204.263422
 20
64.004888
 30
0.0
  0
LWPOLYLINE
  5
144
100
AcDbEntity
  8
0
 62
1
100
AcDbPolyline
 90
2
 70
0
 10
192.913423
 20
50.924879
 30
0.0
 10
192.913423
 20
64.004888
 30
0.0
  0
LWPOLYLINE
  5
145
100
AcDbEntity
  8
0
 62
1
100
AcDbPolyline
 90
2
 70
0
 10
181.563422
 20
64.004888
 30
0.0
 10
181.563422
 20
50.924879
 30
0.0
  0
LWPOLYLINE
  5
146
100
AcDbEntity
  8
0
 62
1
100
AcDbPolyline
 90
2
 70
0
 10
170.213424
 20
64.004888
 30
0.0
 10
181.563422
 20
64.004888
 30
0.0
  0
LWPOLYLINE
  5
147
100
AcDbEntity
  8
0
 62
1
100
AcDbPolyline
 90
2
 70
0
 10
170.213424
 20
50.924879
 30
0.0
 10
170.213424
 20
64.004888
 30
0.0
  0
LWPOLYLINE
  5
148
100
AcDbEntity
  8
0
 62
1
100
AcDbPolyline
 90
2
 70
0
 10
158.863422
 20
64.004888
 30
0.0
 10
158.863422
 20
50.924879
 30
0.0
  0
LWPOLYLINE
  5
149
100
AcDbEntity
  8
0
 62
1
100
AcDbPolyline
 90
2
 70
0
 10
72.363423
 20
64.004888
 30
0.0
 10
158.863422
 20
64.004888
 30
0.0
  0
LWPOLYLINE
  5
14a
100
AcDbEntity
  8
0
 62
1
100
AcDbPolyline
 90
2
 70
0
 10
72.363423
 20
50.924879
 30
0.0
 10
72.363423
 20
64.004888
 30
0.0
  0
LWPOLYLINE
  5
14b
100
AcDbEntity
  8
0
 62
1
100
AcDbPolyline
 90
2
 70
0
 10
61.013422
 20
64.004888
 30
0.0
 10
61.013422
 20
50.924879
 30
0.0
  0
LWPOLYLINE
  5
14c
100
AcDbEntity
  8
0
 62
1
100
AcDbPolyline
 90
2
 70
0
 10
49.663423
 20
64.004888
 30
0.0
 10
61.013422
 20
64.004888
 30
0.0
  0
LWPOLYLINE
  5
14d
100
AcDbEntity
  8
0
 62
1
100
AcDbPolyline
 90
2
 70
0
 10
49.663423
 20
50.924879
 30
0.0
 10
49.663423
 20
64.004888
 30
0.0
  0
LWPOLYLINE
  5
14e
100
AcDbEntity
  8
0
 62
1
100
AcDbPolyline
 90
2
 70
0
 10
38.313422
 20
64.004888
 30
0.0
 10
38.313422
 20
50.924879
 30
0.0
  0
LWPOLYLINE
  5
14f
100
AcDbEntity
  8
0
 62
1
100
AcDbPolyline
 90
2
 70
0
 10
26.963423
 20
64.004888
 30
0.0
 10
38.313422
 20
64.004888
 30
0.0
  0
LWPOLYLINE
  5
150
100
AcDbEntity
  8
0
 62
1
100
AcDbPolyline
 90
2
 70
0
 10
26.963423
 20
50.924879
 30
0.0
 10
26.963423
 20
64.004888
 30
0.0
  0
LWPOLYLINE
  5
151
100
AcDbEntity
  8
0
 62
1
100
AcDbPolyline
 90
2
 70
0
 10
15.613423
 20
64.004888
 30
0.0
 10
15.613423
 20
50.924879
 30
0.0
  0
LWPOLYLINE
  5
152
100
AcDbEntity
  8
0
 62
1
100
AcDbPolyline
 90
2
 70
0
 10
4.263423
 20
64.004888
 30
0.0
 10
15.613423
 20
64.004888
 30
0.0
  0
LWPOLYLINE
  5
153
100
AcDbEntity
  8
0
 62
1
100
AcDbPolyline
 90
2
 70
0
 10
15.763433
 20
164.844870
 30
0.0
 10
4.263423
 20
164.844870
 30
0.0
  0
SPLINE
  5
154
100
AcDbEntity
  8
0
 62
5
100
AcDbSpline
 70
8
 71
3
 72
8
 73
4
 74
0
 40
0
 40
0
 40
0
 40
0
 40
1
 40
1
 40
1
 40
1
 10
186.788743
 20
83.054888
 30
0.0
 10
186.788743
 20
85.198482
 30
0.0
 10
185.645150
 20
87.179244
 30
0.0
 10
183.788743
 20
88.251041
 30
0.0
  0
SPLINE
  5
155
100
AcDbEntity
  8
0
 62
5
100
AcDbSpline
 70
8
 71
3
 72
8
 73
4
 74
0
 40
0
 40
0
 40
0
 40
0
 40
1
 40
1
 40
1
 40
1
 10
183.788743
 20
88.251041
 30
0.0
 10
181.932337
 20
89.322838
 30
0.0
 10
179.645150
 20
89.322838
 30
0.0
 10
177.788743
 20
88.251041
 30
0.0
  0
SPLINE
  5
156
100
AcDbEntity
  8
0
 62
5
100
AcDbSpline
 70
8
 71
3
 72
8
 73
4
 74
0
 40
0
 40
0
 40
0
 40
0
 40
1
 40
1
 40
1
 40
1
 10
177.788743
 20
88.251041
 30
0.0
 10
175.932337
 20
87.179244
 30
0.0
 10
174.788743
 20
85.198482
 30
0.0
 10
174.788743
 20
83.054888
 30
0.0
  0
SPLINE
  5
157
100
AcDbEntity
  8
0
 62
5
100
AcDbSpline
 70
8
 71
3
 72
8
 73
4
 74
0
 40
0
 40
0
 40
0
 40
0
 40
1
 40
1
 40
1
 40
1
 10
174.788743
 20
83.054888
 30
0.0
 10
174.788743
 20
80.911295
 30
0.0
 10
175.932337
 20
78.930533
 30
0.0
 10
177.788743
 20
77.858736
 30
0.0
  0
SPLINE
  5
158
100
AcDbEntity
  8
0
 62
5
100
AcDbSpline
 70
8
 71
3
 72
8
 73
4
 74
0
 40
0
 40
0
 40
0
 40
0
 40
1
 40
1
 40
1
 40
1
 10
177.788743
 20
77.858736
 30
0.0
 10
179.645150
 20
76.786939
 30
0.0
 10
181.932337
 20
76.786939
 30
0.0
 10
183.788744
 20
77.858736
 30
0.0
  0
SPLINE
  5
159
100
AcDbEntity
  8
0
 62
5
100
AcDbSpline
 70
8
 71
3
 72
8
 73
4
 74
0
 40
0
 40
0
 40
0
 40
0
 40
1
 40
1
 40
1
 40
1
 10
183.788744
 20
77.858736
 30
0.0
 10
185.645150
 20
78.930533
 30
0.0
 10
186.788744
 20
80.911295
 30
0.0
 10
186.788744
 20
83.054888
 30
0.0
  0
LWPOLYLINE
  5
15a
100
AcDbEntity
  8
0
 62
1
100
AcDbPolyline
 90
2
 70
0
 10
15.763433
 20
177.924879
 30
0.0
 10
15.763433
 20
164.844870
 30
0.0
  0
SPLINE
  5
15b
100
AcDbEntity
  8
0
 62
5
100
AcDbSpline
 70
8
 71
3
 72
8
 73
4
 74
0
 40
0
 40
0
 40
0
 40
0
 40
1
 40
1
 40
1
 40
1
 10
33.738103
 20
83.054888
 30
0.0
 10
33.738568
 20
85.198792
 30
0.0
 10
32.595076
 20
87.180039
 30
0.0
 10
30.738479
 20
88.252125
 30
0.0
  0
SPLINE
  5
15c
100
AcDbEntity
  8
0
 62
5
100
AcDbSpline
 70
8
 71
3
 72
8
 73
4
 74
0
 40
0
 40
0
 40
0
 40
0
 40
1
 40
1
 40
1
 40
1
 10
30.738479
 20
88.252125
 30
0.0
 10
28.881881
 20
89.324211
 30
0.0
 10
26.594325
 20
89.324211
 30
0.0
 10
24.737727
 20
88.252125
 30
0.0
  0
SPLINE
  5
15d
100
AcDbEntity
  8
0
 62
5
100
AcDbSpline
 70
8
 71
3
 72
8
 73
4
 74
0
 40
0
 40
0
 40
0
 40
0
 40
1
 40
1
 40
1
 40
1
 10
24.737727
 20
88.252125
 30
0.0
 10
22.881130
 20
87.180039
 30
0.0
 10
21.737638
 20
85.198792
 30
0.0
 10
21.738103
 20
83.054888
 30
0.0
  0
SPLINE
  5
15e
100
AcDbEntity
  8
0
 62
5
100
AcDbSpline
 70
8
 71
3
 72
8
 73
4
 74
0
 40
0
 40
0
 40
0
 40
0
 40
1
 40
1
 40
1
 40
1
 10
21.738103
 20
83.054888
 30
0.0
 10
21.737638
 20
80.910985
 30
0.0
 10
22.881130
 20
78.929737
 30
0.0
 10
24.737727
 20
77.857651
 30
0.0
  0
SPLINE
  5
15f
100
AcDbEntity
  8
0
 62
5
100
AcDbSpline
 70
8
 71
3
 72
8
 73
4
 74
0
 40
0
 40
0
 40
0
 40
0
 40
1
 40
1
 40
1
 40
1
 10
24.737727
 20
77.857651
 30
0.0
 10
26.594325
 20
76.785566
 30
0.0
 10
28.881881
 20
76.785566
 30
0.0
 10
30.738479
 20
77.857651
 30
0.0
  0
SPLINE
  5
160
100
AcDbEntity
  8
0
 62
5
100
AcDbSpline
 70
8
 71
3
 72
8
 73
4
 74
0
 40
0
 40
0
 40
0
 40
0
 40
1
 40
1
 40
1
 40
1
 10
30.738479
 20
77.857651
 30
0.0
 10
32.595076
 20
78.929737
 30
0.0
 10
33.738568
 20
80.910985
 30
0.0
 10
33.738103
 20
83.054888
 30
0.0
  0
LWPOLYLINE
  5
161
100
AcDbEntity
  8
0
 62
5
100
AcDbPolyline
 90
2
 70
1
 10
186.788744
 20
83.054888
 30
0.0
 10
186.788744
 20
83.054888
 30
0.0
  0
SPLINE
  5
162
100
AcDbEntity
  8
0
 62
5
100
AcDbSpline
 70
8
 71
3
 72
8
 73
4
 74
0
 40
0
 40
0
 40
0
 40
0
 40
1
 40
1
 40
1
 40
1
 10
188.952923
 20
172.464870
 30
0.0
 10
188.952923
 20
173.077401
 30
0.0
 10
188.626141
 20
173.643404
 30
0.0
 10
188.095673
 20
173.949670
 30
0.0
  0
SPLINE
  5
163
100
AcDbEntity
  8
0
 62
5
100
AcDbSpline
 70
8
 71
3
 72
8
 73
4
 74
0
 40
0
 40
0
 40
0
 40
0
 40
1
 40
1
 40
1
 40
1
 10
188.095673
 20
173.949670
 30
0.0
 10
187.565205
 20
174.255936
 30
0.0
 10
186.911641
 20
174.255936
 30
0.0
 10
186.381173
 20
173.949670
 30
0.0
  0
SPLINE
  5
164
100
AcDbEntity
  8
0
 62
5
100
AcDbSpline
 70
8
 71
3
 72
8
 73
4
 74
0
 40
0
 40
0
 40
0
 40
0
 40
1
 40
1
 40
1
 40
1
 10
186.381173
 20
173.949670
 30
0.0
 10
185.850705
 20
173.643404
 30
0.0
 10
185.523923
 20
173.077401
 30
0.0
 10
185.523923
 20
172.464870
 30
0.0
  0
SPLINE
  5
165
100
AcDbEntity
  8
0
 62
5
100
AcDbSpline
 70
8
 71
3
 72
8
 73
4
 74
0
 40
0
 40
0
 40
0
 40
0
 40
1
 40
1
 40
1
 40
1
 10
185.523923
 20
172.464870
 30
0.0
 10
185.523923
 20
171.852338
 30
0.0
 10
185.850705
 20
171.286335
 30
0.0
 10
186.381173
 20
170.980069
 30
0.0
  0
SPLINE
  5
166
100
AcDbEntity
  8
0
 62
5
100
AcDbSpline
 70
8
 71
3
 72
8
 73
4
 74
0
 40
0
 40
0
 40
0
 40
0
 40
1
 40
1
 40
1
 40
1
 10
186.381173
 20
170.980069
 30
0.0
 10
186.911641
 20
170.673803
 30
0.0
 10
187.565205
 20
170.673803
 30
0.0
 10
188.095673
 20
170.980069
 30
0.0
  0
SPLINE
  5
167
100
AcDbEntity
  8
0
 62
5
100
AcDbSpline
 70
8
 71
3
 72
8
 73
4
 74
0
 40
0
 40
0
 40
0
 40
0
 40
1
 40
1
 40
1
 40
1
 10
188.095673
 20
170.980069
 30
0.0
 10
188.626141
 20
171.286335
 30
0.0
 10
188.952923
 20
171.852338
 30
0.0
 10
188.952923
 20
172.464870
 30
0.0
  0
LWPOLYLINE
  5
168
100
AcDbEntity
  8
0
 62
5
100
AcDbPolyline
 90
2
 70
1
 10
33.738103
 20
83.054888
 30
0.0
 10
33.738103
 20
83.054888
 30
0.0
  0
SPLINE
  5
169
100
AcDbEntity
  8
0
 62
5
100
AcDbSpline
 70
8
 71
3
 72
8
 73
4
 74
0
 40
0
 40
0
 40
0
 40
0
 40
1
 40
1
 40
1
 40
1
 10
23.002923
 20
56.384888
 30
0.0
 10
23.002923
 20
56.997420
 30
0.0
 10
22.676141
 20
57.563423
 30
0.0
 10
22.145673
 20
57.869689
 30
0.0
  0
SPLINE
  5
16a
100
AcDbEntity
  8
0
 62
5
100
AcDbSpline
 70
8
 71
3
 72
8
 73
4
 74
0
 40
0
 40
0
 40
0
 40
0
 40
1
 40
1
 40
1
 40
1
 10
22.145673
 20
57.869689
 30
0.0
 10
21.615205
 20
58.175955
 30
0.0
 10
20.961641
 20
58.175955
 30
0.0
 10
20.431173
 20
57.869689
 30
0.0
  0
SPLINE
  5
16b
100
AcDbEntity
  8
0
 62
5
100
AcDbSpline
 70
8
 71
3
 72
8
 73
4
 74
0
 40
0
 40
0
 40
0
 40
0
 40
1
 40
1
 40
1
 40
1
 10
20.431173
 20
57.869689
 30
0.0
 10
19.900705
 20
57.563423
 30
0.0
 10
19.573923
 20
56.997420
 30
0.0
 10
19.573923
 20
56.384888
 30
0.0
  0
SPLINE
  5
16c
100
AcDbEntity
  8
0
 62
5
100
AcDbSpline
 70
8
 71
3
 72
8
 73
4
 74
0
 40
0
 40
0
 40
0
 40
0
 40
1
 40
1
 40
1
 40
1
 10
19.573923
 20
56.384888
 30
0.0
 10
19.573923
 20
55.437996
 30
0.0
 10
20.341531
 20
54.670388
 30
0.0
 10
21.288423
 20
54.670388
 30
0.0
  0
SPLINE
  5
16d
100
AcDbEntity
  8
0
 62
5
100
AcDbSpline
 70
8
 71
3
 72
8
 73
4
 74
0
 40
0
 40
0
 40
0
 40
0
 40
1
 40
1
 40
1
 40
1
 10
21.288423
 20
54.670388
 30
0.0
 10
22.235315
 20
54.670388
 30
0.0
 10
23.002923
 20
55.437996
 30
0.0
 10
23.002923
 20
56.384888
 30
0.0
  0
LWPOLYLINE
  5
16e
100
AcDbEntity
  8
0
 62
5
100
AcDbPolyline
 90
2
 70
1
 10
188.952923
 20
172.464870
 30
0.0
 10
188.952923
 20
172.464870
 30
0.0
  0
SPLINE
  5
16f
100
AcDbEntity
  8
0
 62
5
100
AcDbSpline
 70
8
 71
3
 72
8
 73
4
 74
0
 40
0
 40
0
 40
0
 40
0
 40
1
 40
1
 40
1
 40
1
 10
45.702923
 20
56.384888
 30
0.0
 10
45.702923
 20
56.997420
 30
0.0
 10
45.376141
 20
57.563423
 30
0.0
 10
44.845673
 20
57.869689
 30
0.0
  0
SPLINE
  5
170
100
AcDbEntity
  8
0
 62
5
100
AcDbSpline
 70
8
 71
3
 72
8
 73
4
 74
0
 40
0
 40
0
 40
0
 40
0
 40
1
 40
1
 40
1
 40
1
 10
44.845673
 20
57.869689
 30
0.0
 10
44.315205
 20
58.175955
 30
0.0
 10
43.661641
 20
58.175955
 30
0.0
 10
43.131173
 20
57.869689
 30
0.0
  0
SPLINE
  5
171
100
AcDbEntity
  8
0
 62
5
100
AcDbSpline
 70
8
 71
3
 72
8
 73
4
 74
0
 40
0
 40
0
 40
0
 40
0
 40
1
 40
1
 40
1
 40
1
 10
43.131173
 20
57.869689
 30
0.0
 10
42.600705
 20
57.563423
 30
0.0
 10
42.273923
 20
56.997420
 30
0.0
 10
42.273923
 20
56.384888
 30
0.0
  0
SPLINE
  5
172
100
AcDbEntity
  8
0
 62
5
100
AcDbSpline
 70
8
 71
3
 72
8
 73
4
 74
0
 40
0
 40
0
 40
0
 40
0
 40
1
 40
1
 40
1
 40
1
 10
42.273923
 20
56.384888
 30
0.0
 10
42.273923
 20
55.772357
 30
0.0
 10
42.600705
 20
55.206354
 30
0.0
 10
43.131173
 20
54.900088
 30
0.0
  0
SPLINE
  5
173
100
AcDbEntity
  8
0
 62
5
100
AcDbSpline
 70
8
 71
3
 72
8
 73
4
 74
0
 40
0
 40
0
 40
0
 40
0
 40
1
 40
1
 40
1
 40
1
 10
43.131173
 20
54.900088
 30
0.0
 10
43.661641
 20
54.593822
 30
0.0
 10
44.315205
 20
54.593822
 30
0.0
 10
44.845673
 20
54.900088
 30
0.0
  0
SPLINE
  5
174
100
AcDbEntity
  8
0
 62
5
100
AcDbSpline
 70
8
 71
3
 72
8
 73
4
 74
0
 40
0
 40
0
 40
0
 40
0
 40
1
 40
1
 40
1
 40
1
 10
44.845673
 20
54.900088
 30
0.0
 10
45.376141
 20
55.206354
 30
0.0
 10
45.702923
 20
55.772357
 30
0.0
 10
45.702923
 20
56.384888
 30
0.0
  0
LWPOLYLINE
  5
175
100
AcDbEntity
  8
0
 62
5
100
AcDbPolyline
 90
2
 70
1
 10
23.002923
 20
56.384888
 30
0.0
 10
23.002923
 20
56.384888
 30
0.0
  0
SPLINE
  5
176
100
AcDbEntity
  8
0
 62
5
100
AcDbSpline
 70
8
 71
3
 72
8
 73
4
 74
0
 40
0
 40
0
 40
0
 40
0
 40
1
 40
1
 40
1
 40
1
 10
68.402922
 20
56.384888
 30
0.0
 10
68.402922
 20
56.997420
 30
0.0
 10
68.076141
 20
57.563423
 30
0.0
 10
67.545672
 20
57.869689
 30
0.0
  0
SPLINE
  5
177
100
AcDbEntity
  8
0
 62
5
100
AcDbSpline
 70
8
 71
3
 72
8
 73
4
 74
0
 40
0
 40
0
 40
0
 40
0
 40
1
 40
1
 40
1
 40
1
 10
67.545672
 20
57.869689
 30
0.0
 10
67.015204
 20
58.175955
 30
0.0
 10
66.361641
 20
58.175955
 30
0.0
 10
65.831172
 20
57.869689
 30
0.0
  0
SPLINE
  5
178
100
AcDbEntity
  8
0
 62
5
100
AcDbSpline
 70
8
 71
3
 72
8
 73
4
 74
0
 40
0
 40
0
 40
0
 40
0
 40
1
 40
1
 40
1
 40
1
 10
65.831172
 20
57.869689
 30
0.0
 10
65.300704
 20
57.563423
 30
0.0
 10
64.973922
 20
56.997420
 30
0.0
 10
64.973922
 20
56.384888
 30
0.0
  0
SPLINE
  5
179
100
AcDbEntity
  8
0
 62
5
100
AcDbSpline
 70
8
 71
3
 72
8
 73
4
 74
0
 40
0
 40
0
 40
0
 40
0
 40
1
 40
1
 40
1
 40
1
 10
64.973922
 20
56.384888
 30
0.0
 10
64.973922
 20
55.772357
 30
0.0
 10
65.300704
 20
55.206354
 30
0.0
 10
65.831172
 20
54.900088
 30
0.0
  0
SPLINE
  5
17a
100
AcDbEntity
  8
0
 62
5
100
AcDbSpline
 70
8
 71
3
 72
8
 73
4
 74
0
 40
0
 40
0
 40
0
 40
0
 40
1
 40
1
 40
1
 40
1
 10
65.831172
 20
54.900088
 30
0.0
 10
66.361641
 20
54.593822
 30
0.0
 10
67.015204
 20
54.593822
 30
0.0
 10
67.545672
 20
54.900088
 30
0.0
  0
SPLINE
  5
17b
100
AcDbEntity
  8
0
 62
5
100
AcDbSpline
 70
8
 71
3
 72
8
 73
4
 74
0
 40
0
 40
0
 40
0
 40
0
 40
1
 40
1
 40
1
 40
1
 10
67.545672
 20
54.900088
 30
0.0
 10
68.076141
 20
55.206354
 30
0.0
 10
68.402922
 20
55.772357
 30
0.0
 10
68.402922
 20
56.384888
 30
0.0
  0
LWPOLYLINE
  5
17c
100
AcDbEntity
  8
0
 62
5
100
AcDbPolyline
 90
2
 70
1
 10
45.702923
 20
56.384888
 30
0.0
 10
45.702923
 20
56.384888
 30
0.0
  0
SPLINE
  5
17d
100
AcDbEntity
  8
0
 62
5
100
AcDbSpline
 70
8
 71
3
 72
8
 73
4
 74
0
 40
0
 40
0
 40
0
 40
0
 40
1
 40
1
 40
1
 40
1
 10
188.952923
 20
56.384888
 30
0.0
 10
188.952923
 20
56.997420
 30
0.0
 10
188.626141
 20
57.563423
 30
0.0
 10
188.095673
 20
57.869689
 30
0.0
  0
SPLINE
  5
17e
100
AcDbEntity
  8
0
 62
5
100
AcDbSpline
 70
8
 71
3
 72
8
 73
4
 74
0
 40
0
 40
0
 40
0
 40
0
 40
1
 40
1
 40
1
 40
1
 10
188.095673
 20
57.869689
 30
0.0
 10
187.565205
 20
58.175955
 30
0.0
 10
186.911641
 20
58.175955
 30
0.0
 10
186.381173
 20
57.869689
 30
0.0
  0
SPLINE
  5
17f
100
AcDbEntity
  8
0
 62
5
100
AcDbSpline
 70
8
 71
3
 72
8
 73
4
 74
0
 40
0
 40
0
 40
0
 40
0
 40
1
 40
1
 40
1
 40
1
 10
186.381173
 20
57.869689
 30
0.0
 10
185.850705
 20
57.563423
 30
0.0
 10
185.523923
 20
56.997420
 30
0.0
 10
185.523923
 20
56.384888
 30
0.0
  0
SPLINE
  5
180
100
AcDbEntity
  8
0
 62
5
100
AcDbSpline
 70
8
 71
3
 72
8
 73
4
 74
0
 40
0
 40
0
 40
0
 40
0
 40
1
 40
1
 40
1
 40
1
 10
185.523923
 20
56.384888
 30
0.0
 10
185.523923
 20
55.772357
 30
0.0
 10
185.850705
 20
55.206354
 30
0.0
 10
186.381173
 20
54.900088
 30
0.0
  0
SPLINE
  5
181
100
AcDbEntity
  8
0
 62
5
100
AcDbSpline
 70
8
 71
3
 72
8
 73
4
 74
0
 40
0
 40
0
 40
0
 40
0
 40
1
 40
1
 40
1
 40
1
 10
186.381173
 20
54.900088
 30
0.0
 10
186.911641
 20
54.593822
 30
0.0
 10
187.565205
 20
54.593822
 30
0.0
 10
188.095673
 20
54.900088
 30
0.0
  0
SPLINE
  5
182
100
AcDbEntity
  8
0
 62
5
100
AcDbSpline
 70
8
 71
3
 72
8
 73
4
 74
0
 40
0
 40
0
 40
0
 40
0
 40
1
 40
1
 40
1
 40
1
 10
188.095673
 20
54.900088
 30
0.0
 10
188.626141
 20
55.206354
 30
0.0
 10
188.952923
 20
55.772357
 30
0.0
 10
188.952923
 20
56.384888
 30
0.0
  0
LWPOLYLINE
  5
183
100
AcDbEntity
  8
0
 62
5
100
AcDbPolyline
 90
2
 70
1
 10
68.402922
 20
56.384888
 30
0.0
 10
68.402922
 20
56.384888
 30
0.0
  0
SPLINE
  5
184
100
AcDbEntity
  8
0
 62
5
100
AcDbSpline
 70
8
 71
3
 72
8
 73
4
 74
0
 40
0
 40
0
 40
0
 40
0
 40
1
 40
1
 40
1
 40
1
 10
166.252923
 20
56.384888
 30
0.0
 10
166.252923
 20
56.997420
 30
0.0
 10
165.926141
 20
57.563423
 30
0.0
 10
165.395673
 20
57.869689
 30
0.0
  0
SPLINE
  5
185
100
AcDbEntity
  8
0
 62
5
100
AcDbSpline
 70
8
 71
3
 72
8
 73
4
 74
0
 40
0
 40
0
 40
0
 40
0
 40
1
 40
1
 40
1
 40
1
 10
165.395673
 20
57.869689
 30
0.0
 10
164.865205
 20
58.175955
 30
0.0
 10
164.211641
 20
58.175955
 30
0.0
 10
163.681173
 20
57.869689
 30
0.0
  0
SPLINE
  5
186
100
AcDbEntity
  8
0
 62
5
100
AcDbSpline
 70
8
 71
3
 72
8
 73
4
 74
0
 40
0
 40
0
 40
0
 40
0
 40
1
 40
1
 40
1
 40
1
 10
163.681173
 20
57.869689
 30
0.0
 10
163.150705
 20
57.563423
 30
0.0
 10
162.823923
 20
56.997420
 30
0.0
 10
162.823923
 20
56.384888
 30
0.0
  0
SPLINE
  5
187
100
AcDbEntity
  8
0
 62
5
100
AcDbSpline
 70
8
 71
3
 72
8
 73
4
 74
0
 40
0
 40
0
 40
0
 40
0
 40
1
 40
1
 40
1
 40
1
 10
162.823923
 20
56.384888
 30
0.0
 10
162.823923
 20
55.772357
 30
0.0
 10
163.150705
 20
55.206354
 30
0.0
 10
163.681173
 20
54.900088
 30
0.0
  0
SPLINE
  5
188
100
AcDbEntity
  8
0
 62
5
100
AcDbSpline
 70
8
 71
3
 72
8
 73
4
 74
0
 40
0
 40
0
 40
0
 40
0
 40
1
 40
1
 40
1
 40
1
 10
163.681173
 20
54.900088
 30
0.0
 10
164.211641
 20
54.593822
 30
0.0
 10
164.865205
 20
54.593822
 30
0.0
 10
165.395673
 20
54.900088
 30
0.0
  0
SPLINE
  5
189
100
AcDbEntity
  8
0
 62
5
100
AcDbSpline
 70
8
 71
3
 72
8
 73
4
 74
0
 40
0
 40
0
 40
0
 40
0
 40
1
 40
1
 40
1
 40
1
 10
165.395673
 20
54.900088
 30
0.0
 10
165.926141
 20
55.206354
 30
0.0
 10
166.252923
 20
55.772357
 30
0.0
 10
166.252923
 20
56.384888
 30
0.0
  0
LWPOLYLINE
  5
18a
100
AcDbEntity
  8
0
 62
5
100
AcDbPolyline
 90
2
 70
1
 10
188.952923
 20
56.384888
 30
0.0
 10
188.952923
 20
56.384888
 30
0.0
  0
SPLINE
  5
18b
100
AcDbEntity
  8
0
 62
5
100
AcDbSpline
 70
8
 71
3
 72
8
 73
4
 74
0
 40
0
 40
0
 40
0
 40
0
 40
1
 40
1
 40
1
 40
1
 10
23.152933
 20
172.464870
 30
0.0
 10
23.152933
 20
173.077401
 30
0.0
 10
22.826151
 20
173.643404
 30
0.0
 10
22.295683
 20
173.949670
 30
0.0
  0
SPLINE
  5
18c
100
AcDbEntity
  8
0
 62
5
100
AcDbSpline
 70
8
 71
3
 72
8
 73
4
 74
0
 40
0
 40
0
 40
0
 40
0
 40
1
 40
1
 40
1
 40
1
 10
22.295683
 20
173.949670
 30
0.0
 10
21.765215
 20
174.255936
 30
0.0
 10
21.111651
 20
174.255936
 30
0.0
 10
20.581183
 20
173.949670
 30
0.0
  0
SPLINE
  5
18d
100
AcDbEntity
  8
0
 62
5
100
AcDbSpline
 70
8
 71
3
 72
8
 73
4
 74
0
 40
0
 40
0
 40
0
 40
0
 40
1
 40
1
 40
1
 40
1
 10
20.581183
 20
173.949670
 30
0.0
 10
20.050715
 20
173.643404
 30
0.0
 10
19.723933
 20
173.077401
 30
0.0
 10
19.723933
 20
172.464870
 30
0.0
  0
SPLINE
  5
18e
100
AcDbEntity
  8
0
 62
5
100
AcDbSpline
 70
8
 71
3
 72
8
 73
4
 74
0
 40
0
 40
0
 40
0
 40
0
 40
1
 40
1
 40
1
 40
1
 10
19.723933
 20
172.464870
 30
0.0
 10
19.723933
 20
171.852338
 30
0.0
 10
20.050715
 20
171.286335
 30
0.0
 10
20.581183
 20
170.980069
 30
0.0
  0
SPLINE
  5
18f
100
AcDbEntity
  8
0
 62
5
100
AcDbSpline
 70
8
 71
3
 72
8
 73
4
 74
0
 40
0
 40
0
 40
0
 40
0
 40
1
 40
1
 40
1
 40
1
 10
20.581183
 20
170.980069
 30
0.0
 10
21.111651
 20
170.673803
 30
0.0
 10
21.765215
 20
170.673803
 30
0.0
 10
22.295683
 20
170.980069
 30
0.0
  0
SPLINE
  5
190
100
AcDbEntity
  8
0
 62
5
100
AcDbSpline
 70
8
 71
3
 72
8
 73
4
 74
0
 40
0
 40
0
 40
0
 40
0
 40
1
 40
1
 40
1
 40
1
 10
22.295683
 20
170.980069
 30
0.0
 10
22.826151
 20
171.286335
 30
0.0
 10
23.152933
 20
171.852338
 30
0.0
 10
23.152933
 20
172.464870
 30
0.0
  0
LWPOLYLINE
  5
191
100
AcDbEntity
  8
0
 62
5
100
AcDbPolyline
 90
2
 70
1
 10
166.252923
 20
56.384888
 30
0.0
 10
166.252923
 20
56.384888
 30
0.0
  0
SPLINE
  5
192
100
AcDbEntity
  8
0
 62
5
100
AcDbSpline
 70
8
 71
3
 72
8
 73
4
 74
0
 40
0
 40
0
 40
0
 40
0
 40
1
 40
1
 40
1
 40
1
 10
46.002942
 20
172.464870
 30
0.0
 10
46.002942
 20
173.077401
 30
0.0
 10
45.676160
 20
173.643404
 30
0.0
 10
45.145692
 20
173.949670
 30
0.0
  0
SPLINE
  5
193
100
AcDbEntity
  8
0
 62
5
100
AcDbSpline
 70
8
 71
3
 72
8
 73
4
 74
0
 40
0
 40
0
 40
0
 40
0
 40
1
 40
1
 40
1
 40
1
 10
45.145692
 20
173.949670
 30
0.0
 10
44.615224
 20
174.255936
 30
0.0
 10
43.961660
 20
174.255936
 30
0.0
 10
43.431192
 20
173.949670
 30
0.0
  0
SPLINE
  5
194
100
AcDbEntity
  8
0
 62
5
100
AcDbSpline
 70
8
 71
3
 72
8
 73
4
 74
0
 40
0
 40
0
 40
0
 40
0
 40
1
 40
1
 40
1
 40
1
 10
43.431192
 20
173.949670
 30
0.0
 10
42.900724
 20
173.643404
 30
0.0
 10
42.573942
 20
173.077401
 30
0.0
 10
42.573942
 20
172.464870
 30
0.0
  0
SPLINE
  5
195
100
AcDbEntity
  8
0
 62
5
100
AcDbSpline
 70
8
 71
3
 72
8
 73
4
 74
0
 40
0
 40
0
 40
0
 40
0
 40
1
 40
1
 40
1
 40
1
 10
42.573942
 20
172.464870
 30
0.0
 10
42.573942
 20
171.852338
 30
0.0
 10
42.900724
 20
171.286335
 30
0.0
 10
43.431192
 20
170.980069
 30
0.0
  0
SPLINE
  5
196
100
AcDbEntity
  8
0
 62
5
100
AcDbSpline
 70
8
 71
3
 72
8
 73
4
 74
0
 40
0
 40
0
 40
0
 40
0
 40
1
 40
1
 40
1
 40
1
 10
43.431192
 20
170.980069
 30
0.0
 10
43.961660
 20
170.673803
 30
0.0
 10
44.615224
 20
170.673803
 30
0.0
 10
45.145692
 20
170.980069
 30
0.0
  0
SPLINE
  5
197
100
AcDbEntity
  8
0
 62
5
100
AcDbSpline
 70
8
 71
3
 72
8
 73
4
 74
0
 40
0
 40
0
 40
0
 40
0
 40
1
 40
1
 40
1
 40
1
 10
45.145692
 20
170.980069
 30
0.0
 10
45.676160
 20
171.286335
 30
0.0
 10
46.002942
 20
171.852338
 30
0.0
 10
46.002942
 20
172.464870
 30
0.0
  0
LWPOLYLINE
  5
198
100
AcDbEntity
  8
0
 62
5
100
AcDbPolyline
 90
2
 70
1
 10
23.152933
 20
172.464870
 30
0.0
 10
23.152933
 20
172.464870
 30
0.0
  0
SPLINE
  5
199
100
AcDbEntity
  8
0
 62
5
100
AcDbSpline
 70
8
 71
3
 72
8
 73
4
 74
0
 40
0
 40
0
 40
0
 40
0
 40
1
 40
1
 40
1
 40
1
 10
68.852954
 20
172.464870
 30
0.0
 10
68.852954
 20
173.077401
 30
0.0
 10
68.526172
 20
173.643404
 30
0.0
 10
67.995704
 20
173.949670
 30
0.0
  0
SPLINE
  5
19a
100
AcDbEntity
  8
0
 62
5
100
AcDbSpline
 70
8
 71
3
 72
8
 73
4
 74
0
 40
0
 40
0
 40
0
 40
0
 40
1
 40
1
 40
1
 40
1
 10
67.995704
 20
173.949670
 30
0.0
 10
67.465236
 20
174.255936
 30
0.0
 10
66.811672
 20
174.255936
 30
0.0
 10
66.281204
 20
173.949670
 30
0.0
  0
SPLINE
  5
19b
100
AcDbEntity
  8
0
 62
5
100
AcDbSpline
 70
8
 71
3
 72
8
 73
4
 74
0
 40
0
 40
0
 40
0
 40
0
 40
1
 40
1
 40
1
 40
1
 10
66.281204
 20
173.949670
 30
0.0
 10
65.750736
 20
173.643404
 30
0.0
 10
65.423954
 20
173.077401
 30
0.0
 10
65.423954
 20
172.464870
 30
0.0
  0
SPLINE
  5
19c
100
AcDbEntity
  8
0
 62
5
100
AcDbSpline
 70
8
 71
3
 72
8
 73
4
 74
0
 40
0
 40
0
 40
0
 40
0
 40
1
 40
1
 40
1
 40
1
 10
65.423954
 20
172.464870
 30
0.0
 10
65.423954
 20
171.852338
 30
0.0
 10
65.750736
 20
171.286335
 30
0.0
 10
66.281204
 20
170.980069
 30
0.0
  0
SPLINE
  5
19d
100
AcDbEntity
  8
0
 62
5
100
AcDbSpline
 70
8
 71
3
 72
8
 73
4
 74
0
 40
0
 40
0
 40
0
 40
0
 40
1
 40
1
 40
1
 40
1
 10
66.281204
 20
170.980069
 30
0.0
 10
66.811672
 20
170.673803
 30
0.0
 10
67.465236
 20
170.673803
 30
0.0
 10
67.995704
 20
170.980069
 30
0.0
  0
SPLINE
  5
19e
100
AcDbEntity
  8
0
 62
5
100
AcDbSpline
 70
8
 71
3
 72
8
 73
4
 74
0
 40
0
 40
0
 40
0
 40
0
 40
1
 40
1
 40
1
 40
1
 10
67.995704
 20
170.980069
 30
0.0
 10
68.526172
 20
171.286335
 30
0.0
 10
68.852954
 20
171.852338
 30
0.0
 10
68.852954
 20
172.464870
 30
0.0
  0
LWPOLYLINE
  5
19f
100
AcDbEntity
  8
0
 62
5
100
AcDbPolyline
 90
2
 70
1
 10
46.002942
 20
172.464870
 30
0.0
 10
46.002942
 20
172.464870
 30
0.0
  0
SPLINE
  5
1a0
100
AcDbEntity
  8
0
 62
5
100
AcDbSpline
 70
8
 71
3
 72
8
 73
4
 74
0
 40
0
 40
0
 40
0
 40
0
 40
1
 40
1
 40
1
 40
1
 10
166.252923
 20
172.464870
 30
0.0
 10
166.252923
 20
173.077401
 30
0.0
 10
165.926141
 20
173.643404
 30
0.0
 10
165.395673
 20
173.949670
 30
0.0
  0
SPLINE
  5
1a1
100
AcDbEntity
  8
0
 62
5
100
AcDbSpline
 70
8
 71
3
 72
8
 73
4
 74
0
 40
0
 40
0
 40
0
 40
0
 40
1
 40
1
 40
1
 40
1
 10
165.395673
 20
173.949670
 30
0.0
 10
164.865205
 20
174.255936
 30
0.0
 10
164.211641
 20
174.255936
 30
0.0
 10
163.681173
 20
173.949670
 30
0.0
  0
SPLINE
  5
1a2
100
AcDbEntity
  8
0
 62
5
100
AcDbSpline
 70
8
 71
3
 72
8
 73
4
 74
0
 40
0
 40
0
 40
0
 40
0
 40
1
 40
1
 40
1
 40
1
 10
163.681173
 20
173.949670
 30
0.0
 10
163.150705
 20
173.643404
 30
0.0
 10
162.823923
 20
173.077401
 30
0.0
 10
162.823923
 20
172.464870
 30
0.0
  0
SPLINE
  5
1a3
100
AcDbEntity
  8
0
 62
5
100
AcDbSpline
 70
8
 71
3
 72
8
 73
4
 74
0
 40
0
 40
0
 40
0
 40
0
 40
1
 40
1
 40
1
 40
1
 10
162.823923
 20
172.464870
 30
0.0
 10
162.823923
 20
171.852338
 30
0.0
 10
163.150705
 20
171.286335
 30
0.0
 10
163.681173
 20
170.980069
 30
0.0
  0
SPLINE
  5
1a4
100
AcDbEntity
  8
0
 62
5
100
AcDbSpline
 70
8
 71
3
 72
8
 73
4
 74
0
 40
0
 40
0
 40
0
 40
0
 40
1
 40
1
 40
1
 40
1
 10
163.681173
 20
170.980069
 30
0.0
 10
164.211641
 20
170.673803
 30
0.0
 10
164.865205
 20
170.673803
 30
0.0
 10
165.395673
 20
170.980069
 30
0.0
  0
SPLINE
  5
1a5
100
AcDbEntity
  8
0
 62
5
100
AcDbSpline
 70
8
 71
3
 72
8
 73
4
 74
0
 40
0
 40
0
 40
0
 40
0
 40
1
 40
1
 40
1
 40
1
 10
165.395673
 20
170.980069
 30
0.0
 10
165.926141
 20
171.286335
 30
0.0
 10
166.252923
 20
171.852338
 30
0.0
 10
166.252923
 20
172.464870
 30
0.0
  0
LWPOLYLINE
  5
1a6
100
AcDbEntity
  8
0
 62
5
100
AcDbPolyline
 90
2
 70
1
 10
68.852954
 20
172.464870
 30
0.0
 10
68.852954
 20
172.464870
 30
0.0
  0
LWPOLYLINE
  5
1a7
100
AcDbEntity
  8
0
 62
5
100
AcDbPolyline
 90
2
 70
1
 10
166.252923
 20
172.464870
 30
0.0
 10
166.252923
 20
172.464870
 30
0.0
  0
LWPOLYLINE
  5
1a8
100
AcDbEntity
  8
0
 62
1
100
AcDbPolyline
 90
2
 70
0
 10
27.113433
 20
177.924879
 30
0.0
 10
15.763433
 20
177.924879
 30
0.0
  0
LWPOLYLINE
  5
1a9
100
AcDbEntity
  8
0
 62
1
100
AcDbPolyline
 90
2
 70
0
 10
204.263422
 20
64.004888
 30
0.0
 10
204.263422
 20
164.844870
 30
0.0
  0
LWPOLYLINE
  5
1aa
100
AcDbEntity
  8
0
 62
1
100
AcDbPolyline
 90
2
 70
0
 10
15.613423
 20
50.924879
 30
0.0
 10
26.963423
 20
50.924879
 30
0.0
  0
LWPOLYLINE
  5
1ab
100
AcDbEntity
  8
0
 62
1
100
AcDbPolyline
 90
2
 70
0
 10
4.263423
 20
164.844870
 30
0.0
 10
4.263423
 20
64.004888
 30
0.0
  0
LWPOLYLINE
  5
1ac
100
AcDbEntity
  8
0
 62
1
100
AcDbPolyline
 90
2
 70
0
 10
192.913423
 20
177.924879
 30
0.0
 10
181.563422
 20
177.924879
 30
0.0
  0
LWPOLYLINE
  5
1ad
100
AcDbEntity
  8
0
 62
1
100
AcDbPolyline
 90
2
 70
0
 10
170.213424
 20
177.924879
 30
0.0
 10
158.863422
 20
177.924879
 30
0.0
  0
LWPOLYLINE
  5
1ae
100
AcDbEntity
  8
0
 62
1
100
AcDbPolyline
 90
2
 70
0
 10
72.813452
 20
177.924879
 30
0.0
 10
61.463453
 20
177.924879
 30
0.0
  0
LWPOLYLINE
  5
1af
100
AcDbEntity
  8
0
 62
1
100
AcDbPolyline
 90
2
 70
0
 10
49.963443
 20
177.924879
 30
0.0
 10
38.613444
 20
177.924879
 30
0.0
  0
LWPOLYLINE
  5
1b0
100
AcDbEntity
  8
0
 62
1
100
AcDbPolyline
 90
2
 70
0
 10
38.313422
 20
50.924879
 30
0.0
 10
49.663423
 20
50.924879
 30
0.0
  0
LWPOLYLINE
  5
1b1
100
AcDbEntity
  8
0
 62
1
100
AcDbPolyline
 90
2
 70
0
 10
61.013422
 20
50.924879
 30
0.0
 10
72.363423
 20
50.924879
 30
0.0
  0
LWPOLYLINE
  5
1b2
100
AcDbEntity
  8
0
 62
1
100
AcDbPolyline
 90
2
 70
0
 10
158.863422
 20
50.924879
 30
0.0
 10
170.213424
 20
50.924879
 30
0.0
  0
LWPOLYLINE
  5
1b3
100
AcDbEntity
  8
0
 62
1
100
AcDbPolyline
 90
2
 70
0
 10
181.563422
 20
50.924879
 30
0.0
 10
192.913423
 20
50.924879
 30
0.0
  0
ENDSEC
  0
SECTION
  2
OBJECTS
  0
DICTIONARY
  5
C
330
0
100
AcDbDictionary
  3
ACAD_GROUP
350
D
  3
ACAD_MLINESTYLE
350
17
  0
DICTIONARY
  5
D
330
C
100
AcDbDictionary
  0
DICTIONARY
  5
1A
330
C
100
AcDbDictionary
  0
DICTIONARY
  5
17
330
C
100
AcDbDictionary
  3
STANDARD
350
18
  0
DICTIONARY
  5
19
330
C
100
AcDbDictionary
  0
ENDSEC
  0
EOF
