  0
SECTION
  2
HEADER
  9
$ACADVER
  1
AC1014
  9
$HANDSEED
  5
FFFF
  9
$MEASUREMENT
 70
     1
  0
ENDSEC
  0
SECTION
  2
TABLES
  0
TABLE
  2
VPORT
  5
8
330
0
100
AcDbSymbolTable
 70
     4
  0
VPORT
  5
2E
330
8
100
AcDbSymbolTableRecord
100
AcDbViewportTableRecord
  2
*ACTIVE
 70
     0
 10
0.0
 20
0.0
 11
1.0
 21
1.0
 12
210.0
 22
148.5
 13
0.0
 23
0.0
 14
10.0
 24
10.0
 15
10.0
 25
10.0
 16
0.0
 26
0.0
 36
1.0
 17
0.0
 27
0.0
 37
0.0
 40
341.0
 41
1.24
 42
50.0
 43
0.0
 44
0.0
 50
0.0
 51
0.0
 71
     0
 72
   100
 73
     1
 74
     3
 75
     0
 76
     0
 77
     0
 78
     0
  0
ENDTAB
  0
TABLE
  2
LTYPE
  5
5
330
0
100
AcDbSymbolTable
 70
     1
  0
LTYPE
  5
14
330
5
100
AcDbSymbolTableRecord
100
AcDbLinetypeTableRecord
  2
BYBLOCK
 70
     0
  3

 72
    65
 73
     0
 40
0.0
  0
LTYPE
  5
15
330
5
100
AcDbSymbolTableRecord
100
AcDbLinetypeTableRecord
  2
BYLAYER
 70
     0
  3

 72
    65
 73
     0
 40
0.0
  0
LTYPE
  5
16
330
5
100
AcDbSymbolTableRecord
100
AcDbLinetypeTableRecord
  2
CONTINUOUS
 70
     0
  3
Solid line
 72
    65
 73
     0
 40
0.0
  0
ENDTAB
  0
TABLE
  2
LAYER
  5
2
100
AcDbSymbolTable
 70
1
  0
LAYER
  5
50
100
AcDbSymbolTableRecord
100
AcDbLayerTableRecord
  2
0
 70
0
  6
CONTINUOUS
  0
ENDTAB
  0
TABLE
  2
STYLE
  5
3
330
0
100
AcDbSymbolTable
 70
     1
  0
STYLE
  5
11
330
3
100
AcDbSymbolTableRecord
100
AcDbTextStyleTableRecord
  2
STANDARD
 70
     0
 40
0.0
 41
1.0
 50
0.0
 71
     0
 42
2.5
  3
txt
  4

  0
ENDTAB
  0
TABLE
  2
VIEW
  5
6
330
0
100
AcDbSymbolTable
 70
     0
  0
ENDTAB
  0
TABLE
  2
UCS
  5
7
330
0
100
AcDbSymbolTable
 70
     0
  0
ENDTAB
  0
TABLE
  2
APPID
  5
9
330
0
100
AcDbSymbolTable
 70
     2
  0
APPID
  5
12
330
9
100
AcDbSymbolTableRecord
100
AcDbRegAppTableRecord
  2
ACAD
 70
     0
  0
ENDTAB
  0
TABLE
  2
DIMSTYLE
  5
A
330
0
100
AcDbSymbolTable
 70
     1
  0
DIMSTYLE
105
27
330
A
100
AcDbSymbolTableRecord
100
AcDbDimStyleTableRecord
  2
ISO-25
 70
     0
  3

  4

  5

  6

  7

 40
1.0
 41
2.5
 42
0.625
 43
3.75
 44
1.25
 45
0.0
 46
0.0
 47
0.0
 48
0.0
140
2.5
141
2.5
142
0.0
143
0.03937007874016
144
1.0
145
0.0
146
1.0
147
0.625
 71
     0
 72
     0
 73
     0
 74
     0
 75
     0
 76
     0
 77
     1
 78
     8
170
     0
171
     3
172
     1
173
     0
174
     0
175
     0
176
     0
177
     0
178
     0
270
     2
271
     2
272
     2
273
     2
274
     3
340
11
275
     0
280
     0
281
     0
282
     0
283
     0
284
     8
285
     0
286
     0
287
     3
288
     0
  0
ENDTAB
  0
TABLE
  2
BLOCK_RECORD
  5
1
330
0
100
AcDbSymbolTable
 70
     1
  0
BLOCK_RECORD
  5
1F
330
1
100
AcDbSymbolTableRecord
100
AcDbBlockTableRecord
  2
*MODEL_SPACE
  0
BLOCK_RECORD
  5
1B
330
1
100
AcDbSymbolTableRecord
100
AcDbBlockTableRecord
  2
*PAPER_SPACE
  0
ENDTAB
  0
ENDSEC
  0
SECTION
  2
BLOCKS
  0
BLOCK
  5
20
330
1F
100
AcDbEntity
  8
0
100
AcDbBlockBegin
  2
*MODEL_SPACE
 70
     0
 10
0.0
 20
0.0
 30
0.0
  3
*MODEL_SPACE
  1

  0
ENDBLK
  5
21
330
1F
100
AcDbEntity
  8
0
100
AcDbBlockEnd
  0
BLOCK
  5
1C
330
1B
100
AcDbEntity
 67
     1
  8
0
100
AcDbBlockBegin
  2
*PAPER_SPACE
  1

  0
ENDBLK
  5
1D
330
1B
100
AcDbEntity
 67
     1
  8
0
100
AcDbBlockEnd
  0
ENDSEC
  0
SECTION
  2
ENTITIES
  0
LWPOLYLINE
  5
100
100
AcDbEntity
  8
0
 62
5
100
AcDbPolyline
 90
2
 70
0
 10
103.531535
 20
249.745538
 30
0.0
 10
103.531535
 20
229.425538
 30
0.0
  0
LWPOLYLINE
  5
101
100
AcDbEntity
  8
0
 62
5
100
AcDbPolyline
 90
2
 70
0
 10
42.571535
 20
249.745538
 30
0.0
 10
103.531535
 20
249.745538
 30
0.0
  0
LWPOLYLINE
  5
102
100
AcDbEntity
  8
0
 62
5
100
AcDbPolyline
 90
2
 70
0
 10
42.571535
 20
229.425538
 30
0.0
 10
42.571535
 20
249.745538
 30
0.0
  0
LWPOLYLINE
  5
103
100
AcDbEntity
  8
0
 62
5
100
AcDbPolyline
 90
2
 70
0
 10
103.531535
 20
229.425538
 30
0.0
 10
42.571535
 20
229.425538
 30
0.0
  0
LWPOLYLINE
  5
104
100
AcDbEntity
  8
0
 62
1
100
AcDbPolyline
 90
2
 70
0
 10
220.371535
 20
289.545538
 30
0.0
 10
4.471534
 20
289.545538
 30
0.0
  0
LWPOLYLINE
  5
105
100
AcDbEntity
  8
0
 62
1
100
AcDbPolyline
 90
2
 70
0
 10
220.371535
 20
189.545540
 30
0.0
 10
220.371535
 20
289.545538
 30
0.0
  0
LWPOLYLINE
  5
106
100
AcDbEntity
  8
0
 62
1
100
AcDbPolyline
 90
2
 70
0
 10
4.471534
 20
189.545540
 30
0.0
 10
220.371535
 20
189.545540
 30
0.0
  0
LWPOLYLINE
  5
107
100
AcDbEntity
  8
0
 62
1
100
AcDbPolyline
 90
2
 70
0
 10
4.471534
 20
289.545538
 30
0.0
 10
4.471534
 20
189.545540
 30
0.0
  0
LWPOLYLINE
  5
108
100
AcDbEntity
  8
0
 62
5
100
AcDbPolyline
 90
5
 70
0
 10
15.821534
 20
276.370538
 30
0.0
 10
27.171534
 20
276.370538
 30
0.0
 10
27.171534
 20
279.545538
 30
0.0
 10
15.821534
 20
279.545538
 30
0.0
 10
15.821534
 20
276.370538
 30
0.0
  0
LWPOLYLINE
  5
109
100
AcDbEntity
  8
0
 62
5
100
AcDbPolyline
 90
5
 70
0
 10
197.671532
 20
276.370538
 30
0.0
 10
209.021533
 20
276.370538
 30
0.0
 10
209.021533
 20
279.545538
 30
0.0
 10
197.671532
 20
279.545538
 30
0.0
 10
197.671532
 20
276.370538
 30
0.0
  0
LWPOLYLINE
  5
10a
100
AcDbEntity
  8
0
 62
5
100
AcDbPolyline
 90
5
 70
0
 10
174.971543
 20
276.370538
 30
0.0
 10
186.321542
 20
276.370538
 30
0.0
 10
186.321542
 20
279.545538
 30
0.0
 10
174.971543
 20
279.545538
 30
0.0
 10
174.971543
 20
276.370538
 30
0.0
  0
LWPOLYLINE
  5
10b
100
AcDbEntity
  8
0
 62
5
100
AcDbPolyline
 90
5
 70
0
 10
61.221533
 20
276.370538
 30
0.0
 10
72.571534
 20
276.370538
 30
0.0
 10
72.571534
 20
279.545538
 30
0.0
 10
61.221533
 20
279.545538
 30
0.0
 10
61.221533
 20
276.370538
 30
0.0
  0
LWPOLYLINE
  5
10c
100
AcDbEntity
  8
0
 62
5
100
AcDbPolyline
 90
5
 70
0
 10
38.521533
 20
276.370538
 30
0.0
 10
49.871534
 20
276.370538
 30
0.0
 10
49.871534
 20
279.545538
 30
0.0
 10
38.521533
 20
279.545538
 30
0.0
 10
38.521533
 20
276.370538
 30
0.0
  0
LWPOLYLINE
  5
10d
100
AcDbEntity
  8
0
 62
5
100
AcDbPolyline
 90
5
 70
0
 10
15.821534
 20
199.545540
 30
0.0
 10
27.171534
 20
199.545540
 30
0.0
 10
27.171534
 20
202.720540
 30
0.0
 10
15.821534
 20
202.720540
 30
0.0
 10
15.821534
 20
199.545540
 30
0.0
  0
LWPOLYLINE
  5
10e
100
AcDbEntity
  8
0
 62
5
100
AcDbPolyline
 90
5
 70
0
 10
197.671532
 20
199.545540
 30
0.0
 10
209.021533
 20
199.545540
 30
0.0
 10
209.021533
 20
202.720540
 30
0.0
 10
197.671532
 20
202.720540
 30
0.0
 10
197.671532
 20
199.545540
 30
0.0
  0
LWPOLYLINE
  5
10f
100
AcDbEntity
  8
0
 62
5
100
AcDbPolyline
 90
5
 70
0
 10
174.971543
 20
199.545540
 30
0.0
 10
186.321542
 20
199.545540
 30
0.0
 10
186.321542
 20
202.720540
 30
0.0
 10
174.971543
 20
202.720540
 30
0.0
 10
174.971543
 20
199.545540
 30
0.0
  0
LWPOLYLINE
  5
110
100
AcDbEntity
  8
0
 62
5
100
AcDbPolyline
 90
5
 70
0
 10
61.221533
 20
199.545540
 30
0.0
 10
72.571534
 20
199.545540
 30
0.0
 10
72.571534
 20
202.720540
 30
0.0
 10
61.221533
 20
202.720540
 30
0.0
 10
61.221533
 20
199.545540
 30
0.0
  0
SPLINE
  5
111
100
AcDbEntity
  8
0
 62
5
100
AcDbSpline
 70
8
 71
3
 72
8
 73
4
 74
0
 40
0
 40
0
 40
0
 40
0
 40
1
 40
1
 40
1
 40
1
 10
22.696034
 20
264.145537
 30
0.0
 10
22.696034
 20
264.758069
 30
0.0
 10
22.369252
 20
265.324072
 30
0.0
 10
21.838784
 20
265.630338
 30
0.0
  0
SPLINE
  5
112
100
AcDbEntity
  8
0
 62
5
100
AcDbSpline
 70
8
 71
3
 72
8
 73
4
 74
0
 40
0
 40
0
 40
0
 40
0
 40
1
 40
1
 40
1
 40
1
 10
21.838784
 20
265.630338
 30
0.0
 10
21.308316
 20
265.936604
 30
0.0
 10
20.654752
 20
265.936604
 30
0.0
 10
20.124284
 20
265.630338
 30
0.0
  0
SPLINE
  5
113
100
AcDbEntity
  8
0
 62
5
100
AcDbSpline
 70
8
 71
3
 72
8
 73
4
 74
0
 40
0
 40
0
 40
0
 40
0
 40
1
 40
1
 40
1
 40
1
 10
20.124284
 20
265.630338
 30
0.0
 10
19.593816
 20
265.324072
 30
0.0
 10
19.267034
 20
264.758069
 30
0.0
 10
19.267034
 20
264.145537
 30
0.0
  0
SPLINE
  5
114
100
AcDbEntity
  8
0
 62
5
100
AcDbSpline
 70
8
 71
3
 72
8
 73
4
 74
0
 40
0
 40
0
 40
0
 40
0
 40
1
 40
1
 40
1
 40
1
 10
19.267034
 20
264.145537
 30
0.0
 10
19.267034
 20
263.533006
 30
0.0
 10
19.593816
 20
262.967003
 30
0.0
 10
20.124284
 20
262.660737
 30
0.0
  0
SPLINE
  5
115
100
AcDbEntity
  8
0
 62
5
100
AcDbSpline
 70
8
 71
3
 72
8
 73
4
 74
0
 40
0
 40
0
 40
0
 40
0
 40
1
 40
1
 40
1
 40
1
 10
20.124284
 20
262.660737
 30
0.0
 10
20.654752
 20
262.354471
 30
0.0
 10
21.308316
 20
262.354471
 30
0.0
 10
21.838784
 20
262.660737
 30
0.0
  0
SPLINE
  5
116
100
AcDbEntity
  8
0
 62
5
100
AcDbSpline
 70
8
 71
3
 72
8
 73
4
 74
0
 40
0
 40
0
 40
0
 40
0
 40
1
 40
1
 40
1
 40
1
 10
21.838784
 20
262.660737
 30
0.0
 10
22.369252
 20
262.967003
 30
0.0
 10
22.696034
 20
263.533006
 30
0.0
 10
22.696034
 20
264.145537
 30
0.0
  0
LWPOLYLINE
  5
117
100
AcDbEntity
  8
0
 62
5
100
AcDbPolyline
 90
5
 70
0
 10
38.521533
 20
199.545540
 30
0.0
 10
49.871534
 20
199.545540
 30
0.0
 10
49.871534
 20
202.720540
 30
0.0
 10
38.521533
 20
202.720540
 30
0.0
 10
38.521533
 20
199.545540
 30
0.0
  0
SPLINE
  5
118
100
AcDbEntity
  8
0
 62
5
100
AcDbSpline
 70
8
 71
3
 72
8
 73
4
 74
0
 40
0
 40
0
 40
0
 40
0
 40
1
 40
1
 40
1
 40
1
 10
205.576035
 20
214.945540
 30
0.0
 10
205.576035
 20
215.558072
 30
0.0
 10
205.249253
 20
216.124075
 30
0.0
 10
204.718785
 20
216.430340
 30
0.0
  0
SPLINE
  5
119
100
AcDbEntity
  8
0
 62
5
100
AcDbSpline
 70
8
 71
3
 72
8
 73
4
 74
0
 40
0
 40
0
 40
0
 40
0
 40
1
 40
1
 40
1
 40
1
 10
204.718785
 20
216.430340
 30
0.0
 10
204.188316
 20
216.736606
 30
0.0
 10
203.534753
 20
216.736606
 30
0.0
 10
203.004285
 20
216.430340
 30
0.0
  0
SPLINE
  5
11a
100
AcDbEntity
  8
0
 62
5
100
AcDbSpline
 70
8
 71
3
 72
8
 73
4
 74
0
 40
0
 40
0
 40
0
 40
0
 40
1
 40
1
 40
1
 40
1
 10
203.004285
 20
216.430340
 30
0.0
 10
202.473816
 20
216.124075
 30
0.0
 10
202.147035
 20
215.558072
 30
0.0
 10
202.147035
 20
214.945540
 30
0.0
  0
SPLINE
  5
11b
100
AcDbEntity
  8
0
 62
5
100
AcDbSpline
 70
8
 71
3
 72
8
 73
4
 74
0
 40
0
 40
0
 40
0
 40
0
 40
1
 40
1
 40
1
 40
1
 10
202.147035
 20
214.945540
 30
0.0
 10
202.147035
 20
214.333008
 30
0.0
 10
202.473816
 20
213.767005
 30
0.0
 10
203.004285
 20
213.460739
 30
0.0
  0
SPLINE
  5
11c
100
AcDbEntity
  8
0
 62
5
100
AcDbSpline
 70
8
 71
3
 72
8
 73
4
 74
0
 40
0
 40
0
 40
0
 40
0
 40
1
 40
1
 40
1
 40
1
 10
203.004285
 20
213.460739
 30
0.0
 10
203.534753
 20
213.154473
 30
0.0
 10
204.188316
 20
213.154473
 30
0.0
 10
204.718785
 20
213.460739
 30
0.0
  0
SPLINE
  5
11d
100
AcDbEntity
  8
0
 62
5
100
AcDbSpline
 70
8
 71
3
 72
8
 73
4
 74
0
 40
0
 40
0
 40
0
 40
0
 40
1
 40
1
 40
1
 40
1
 10
204.718785
 20
213.460739
 30
0.0
 10
205.249253
 20
213.767005
 30
0.0
 10
205.576035
 20
214.333008
 30
0.0
 10
205.576035
 20
214.945540
 30
0.0
  0
LWPOLYLINE
  5
11e
100
AcDbEntity
  8
0
 62
5
100
AcDbPolyline
 90
2
 70
1
 10
22.696034
 20
264.145537
 30
0.0
 10
22.696034
 20
264.145537
 30
0.0
  0
SPLINE
  5
11f
100
AcDbEntity
  8
0
 62
5
100
AcDbSpline
 70
8
 71
3
 72
8
 73
4
 74
0
 40
0
 40
0
 40
0
 40
0
 40
1
 40
1
 40
1
 40
1
 10
178.626635
 20
214.945540
 30
0.0
 10
178.626635
 20
215.558072
 30
0.0
 10
178.299853
 20
216.124075
 30
0.0
 10
177.769385
 20
216.430341
 30
0.0
  0
SPLINE
  5
120
100
AcDbEntity
  8
0
 62
5
100
AcDbSpline
 70
8
 71
3
 72
8
 73
4
 74
0
 40
0
 40
0
 40
0
 40
0
 40
1
 40
1
 40
1
 40
1
 10
177.769385
 20
216.430341
 30
0.0
 10
177.238916
 20
216.736607
 30
0.0
 10
176.585353
 20
216.736607
 30
0.0
 10
176.054884
 20
216.430341
 30
0.0
  0
SPLINE
  5
121
100
AcDbEntity
  8
0
 62
5
100
AcDbSpline
 70
8
 71
3
 72
8
 73
4
 74
0
 40
0
 40
0
 40
0
 40
0
 40
1
 40
1
 40
1
 40
1
 10
176.054884
 20
216.430341
 30
0.0
 10
175.524416
 20
216.124075
 30
0.0
 10
175.197634
 20
215.558072
 30
0.0
 10
175.197635
 20
214.945540
 30
0.0
  0
SPLINE
  5
122
100
AcDbEntity
  8
0
 62
5
100
AcDbSpline
 70
8
 71
3
 72
8
 73
4
 74
0
 40
0
 40
0
 40
0
 40
0
 40
1
 40
1
 40
1
 40
1
 10
175.197635
 20
214.945540
 30
0.0
 10
175.197634
 20
214.333008
 30
0.0
 10
175.524416
 20
213.767005
 30
0.0
 10
176.054884
 20
213.460739
 30
0.0
  0
SPLINE
  5
123
100
AcDbEntity
  8
0
 62
5
100
AcDbSpline
 70
8
 71
3
 72
8
 73
4
 74
0
 40
0
 40
0
 40
0
 40
0
 40
1
 40
1
 40
1
 40
1
 10
176.054884
 20
213.460739
 30
0.0
 10
176.585353
 20
213.154473
 30
0.0
 10
177.238916
 20
213.154473
 30
0.0
 10
177.769385
 20
213.460739
 30
0.0
  0
SPLINE
  5
124
100
AcDbEntity
  8
0
 62
5
100
AcDbSpline
 70
8
 71
3
 72
8
 73
4
 74
0
 40
0
 40
0
 40
0
 40
0
 40
1
 40
1
 40
1
 40
1
 10
177.769385
 20
213.460739
 30
0.0
 10
178.299853
 20
213.767005
 30
0.0
 10
178.626635
 20
214.333008
 30
0.0
 10
178.626635
 20
214.945540
 30
0.0
  0
LWPOLYLINE
  5
125
100
AcDbEntity
  8
0
 62
5
100
AcDbPolyline
 90
2
 70
1
 10
205.576035
 20
214.945540
 30
0.0
 10
205.576035
 20
214.945540
 30
0.0
  0
SPLINE
  5
126
100
AcDbEntity
  8
0
 62
5
100
AcDbSpline
 70
8
 71
3
 72
8
 73
4
 74
0
 40
0
 40
0
 40
0
 40
0
 40
1
 40
1
 40
1
 40
1
 10
205.576035
 20
264.145537
 30
0.0
 10
205.576035
 20
264.758069
 30
0.0
 10
205.249253
 20
265.324072
 30
0.0
 10
204.718785
 20
265.630338
 30
0.0
  0
SPLINE
  5
127
100
AcDbEntity
  8
0
 62
5
100
AcDbSpline
 70
8
 71
3
 72
8
 73
4
 74
0
 40
0
 40
0
 40
0
 40
0
 40
1
 40
1
 40
1
 40
1
 10
204.718785
 20
265.630338
 30
0.0
 10
204.188316
 20
265.936604
 30
0.0
 10
203.534753
 20
265.936604
 30
0.0
 10
203.004285
 20
265.630338
 30
0.0
  0
SPLINE
  5
128
100
AcDbEntity
  8
0
 62
5
100
AcDbSpline
 70
8
 71
3
 72
8
 73
4
 74
0
 40
0
 40
0
 40
0
 40
0
 40
1
 40
1
 40
1
 40
1
 10
203.004285
 20
265.630338
 30
0.0
 10
202.473816
 20
265.324072
 30
0.0
 10
202.147035
 20
264.758069
 30
0.0
 10
202.147035
 20
264.145537
 30
0.0
  0
SPLINE
  5
129
100
AcDbEntity
  8
0
 62
5
100
AcDbSpline
 70
8
 71
3
 72
8
 73
4
 74
0
 40
0
 40
0
 40
0
 40
0
 40
1
 40
1
 40
1
 40
1
 10
202.147035
 20
264.145537
 30
0.0
 10
202.147035
 20
263.533006
 30
0.0
 10
202.473816
 20
262.967003
 30
0.0
 10
203.004285
 20
262.660737
 30
0.0
  0
SPLINE
  5
12a
100
AcDbEntity
  8
0
 62
5
100
AcDbSpline
 70
8
 71
3
 72
8
 73
4
 74
0
 40
0
 40
0
 40
0
 40
0
 40
1
 40
1
 40
1
 40
1
 10
203.004285
 20
262.660737
 30
0.0
 10
203.534753
 20
262.354471
 30
0.0
 10
204.188316
 20
262.354471
 30
0.0
 10
204.718785
 20
262.660737
 30
0.0
  0
SPLINE
  5
12b
100
AcDbEntity
  8
0
 62
5
100
AcDbSpline
 70
8
 71
3
 72
8
 73
4
 74
0
 40
0
 40
0
 40
0
 40
0
 40
1
 40
1
 40
1
 40
1
 10
204.718785
 20
262.660737
 30
0.0
 10
205.249253
 20
262.967003
 30
0.0
 10
205.576035
 20
263.533006
 30
0.0
 10
205.576035
 20
264.145537
 30
0.0
  0
LWPOLYLINE
  5
12c
100
AcDbEntity
  8
0
 62
5
100
AcDbPolyline
 90
2
 70
1
 10
178.626635
 20
214.945540
 30
0.0
 10
178.626635
 20
214.945540
 30
0.0
  0
SPLINE
  5
12d
100
AcDbEntity
  8
0
 62
5
100
AcDbSpline
 70
8
 71
3
 72
8
 73
4
 74
0
 40
0
 40
0
 40
0
 40
0
 40
1
 40
1
 40
1
 40
1
 10
178.626635
 20
264.145537
 30
0.0
 10
178.626635
 20
264.758069
 30
0.0
 10
178.299853
 20
265.324072
 30
0.0
 10
177.769385
 20
265.630338
 30
0.0
  0
SPLINE
  5
12e
100
AcDbEntity
  8
0
 62
5
100
AcDbSpline
 70
8
 71
3
 72
8
 73
4
 74
0
 40
0
 40
0
 40
0
 40
0
 40
1
 40
1
 40
1
 40
1
 10
177.769385
 20
265.630338
 30
0.0
 10
177.238916
 20
265.936604
 30
0.0
 10
176.585353
 20
265.936604
 30
0.0
 10
176.054884
 20
265.630338
 30
0.0
  0
SPLINE
  5
12f
100
AcDbEntity
  8
0
 62
5
100
AcDbSpline
 70
8
 71
3
 72
8
 73
4
 74
0
 40
0
 40
0
 40
0
 40
0
 40
1
 40
1
 40
1
 40
1
 10
176.054884
 20
265.630338
 30
0.0
 10
175.524416
 20
265.324072
 30
0.0
 10
175.197634
 20
264.758069
 30
0.0
 10
175.197635
 20
264.145537
 30
0.0
  0
SPLINE
  5
130
100
AcDbEntity
  8
0
 62
5
100
AcDbSpline
 70
8
 71
3
 72
8
 73
4
 74
0
 40
0
 40
0
 40
0
 40
0
 40
1
 40
1
 40
1
 40
1
 10
175.197635
 20
264.145537
 30
0.0
 10
175.197634
 20
263.533006
 30
0.0
 10
175.524416
 20
262.967003
 30
0.0
 10
176.054884
 20
262.660737
 30
0.0
  0
SPLINE
  5
131
100
AcDbEntity
  8
0
 62
5
100
AcDbSpline
 70
8
 71
3
 72
8
 73
4
 74
0
 40
0
 40
0
 40
0
 40
0
 40
1
 40
1
 40
1
 40
1
 10
176.054884
 20
262.660737
 30
0.0
 10
176.585353
 20
262.354471
 30
0.0
 10
177.238916
 20
262.354471
 30
0.0
 10
177.769385
 20
262.660737
 30
0.0
  0
SPLINE
  5
132
100
AcDbEntity
  8
0
 62
5
100
AcDbSpline
 70
8
 71
3
 72
8
 73
4
 74
0
 40
0
 40
0
 40
0
 40
0
 40
1
 40
1
 40
1
 40
1
 10
177.769385
 20
262.660737
 30
0.0
 10
178.299853
 20
262.967003
 30
0.0
 10
178.626635
 20
263.533006
 30
0.0
 10
178.626635
 20
264.145537
 30
0.0
  0
LWPOLYLINE
  5
133
100
AcDbEntity
  8
0
 62
5
100
AcDbPolyline
 90
2
 70
1
 10
205.576035
 20
264.145537
 30
0.0
 10
205.576035
 20
264.145537
 30
0.0
  0
SPLINE
  5
134
100
AcDbEntity
  8
0
 62
5
100
AcDbSpline
 70
8
 71
3
 72
8
 73
4
 74
0
 40
0
 40
0
 40
0
 40
0
 40
1
 40
1
 40
1
 40
1
 10
49.645435
 20
214.945540
 30
0.0
 10
49.645435
 20
215.558072
 30
0.0
 10
49.318653
 20
216.124075
 30
0.0
 10
48.788185
 20
216.430340
 30
0.0
  0
SPLINE
  5
135
100
AcDbEntity
  8
0
 62
5
100
AcDbSpline
 70
8
 71
3
 72
8
 73
4
 74
0
 40
0
 40
0
 40
0
 40
0
 40
1
 40
1
 40
1
 40
1
 10
48.788185
 20
216.430340
 30
0.0
 10
48.257716
 20
216.736606
 30
0.0
 10
47.604153
 20
216.736606
 30
0.0
 10
47.073685
 20
216.430340
 30
0.0
  0
SPLINE
  5
136
100
AcDbEntity
  8
0
 62
5
100
AcDbSpline
 70
8
 71
3
 72
8
 73
4
 74
0
 40
0
 40
0
 40
0
 40
0
 40
1
 40
1
 40
1
 40
1
 10
47.073685
 20
216.430340
 30
0.0
 10
46.543216
 20
216.124075
 30
0.0
 10
46.216435
 20
215.558072
 30
0.0
 10
46.216435
 20
214.945540
 30
0.0
  0
SPLINE
  5
137
100
AcDbEntity
  8
0
 62
5
100
AcDbSpline
 70
8
 71
3
 72
8
 73
4
 74
0
 40
0
 40
0
 40
0
 40
0
 40
1
 40
1
 40
1
 40
1
 10
46.216435
 20
214.945540
 30
0.0
 10
46.216435
 20
214.333008
 30
0.0
 10
46.543216
 20
213.767005
 30
0.0
 10
47.073685
 20
213.460739
 30
0.0
  0
SPLINE
  5
138
100
AcDbEntity
  8
0
 62
5
100
AcDbSpline
 70
8
 71
3
 72
8
 73
4
 74
0
 40
0
 40
0
 40
0
 40
0
 40
1
 40
1
 40
1
 40
1
 10
47.073685
 20
213.460739
 30
0.0
 10
47.604153
 20
213.154473
 30
0.0
 10
48.257716
 20
213.154473
 30
0.0
 10
48.788185
 20
213.460739
 30
0.0
  0
SPLINE
  5
139
100
AcDbEntity
  8
0
 62
5
100
AcDbSpline
 70
8
 71
3
 72
8
 73
4
 74
0
 40
0
 40
0
 40
0
 40
0
 40
1
 40
1
 40
1
 40
1
 10
48.788185
 20
213.460739
 30
0.0
 10
49.318653
 20
213.767005
 30
0.0
 10
49.645435
 20
214.333008
 30
0.0
 10
49.645435
 20
214.945540
 30
0.0
  0
LWPOLYLINE
  5
13a
100
AcDbEntity
  8
0
 62
5
100
AcDbPolyline
 90
2
 70
1
 10
178.626635
 20
264.145537
 30
0.0
 10
178.626635
 20
264.145537
 30
0.0
  0
SPLINE
  5
13b
100
AcDbEntity
  8
0
 62
5
100
AcDbSpline
 70
8
 71
3
 72
8
 73
4
 74
0
 40
0
 40
0
 40
0
 40
0
 40
1
 40
1
 40
1
 40
1
 10
22.696034
 20
214.945540
 30
0.0
 10
22.696034
 20
215.558072
 30
0.0
 10
22.369252
 20
216.124075
 30
0.0
 10
21.838784
 20
216.430340
 30
0.0
  0
SPLINE
  5
13c
100
AcDbEntity
  8
0
 62
5
100
AcDbSpline
 70
8
 71
3
 72
8
 73
4
 74
0
 40
0
 40
0
 40
0
 40
0
 40
1
 40
1
 40
1
 40
1
 10
21.838784
 20
216.430340
 30
0.0
 10
21.308316
 20
216.736606
 30
0.0
 10
20.654752
 20
216.736606
 30
0.0
 10
20.124284
 20
216.430340
 30
0.0
  0
SPLINE
  5
13d
100
AcDbEntity
  8
0
 62
5
100
AcDbSpline
 70
8
 71
3
 72
8
 73
4
 74
0
 40
0
 40
0
 40
0
 40
0
 40
1
 40
1
 40
1
 40
1
 10
20.124284
 20
216.430340
 30
0.0
 10
19.593816
 20
216.124075
 30
0.0
 10
19.267034
 20
215.558072
 30
0.0
 10
19.267034
 20
214.945540
 30
0.0
  0
SPLINE
  5
13e
100
AcDbEntity
  8
0
 62
5
100
AcDbSpline
 70
8
 71
3
 72
8
 73
4
 74
0
 40
0
 40
0
 40
0
 40
0
 40
1
 40
1
 40
1
 40
1
 10
19.267034
 20
214.945540
 30
0.0
 10
19.267034
 20
214.333008
 30
0.0
 10
19.593816
 20
213.767005
 30
0.0
 10
20.124284
 20
213.460739
 30
0.0
  0
SPLINE
  5
13f
100
AcDbEntity
  8
0
 62
5
100
AcDbSpline
 70
8
 71
3
 72
8
 73
4
 74
0
 40
0
 40
0
 40
0
 40
0
 40
1
 40
1
 40
1
 40
1
 10
20.124284
 20
213.460739
 30
0.0
 10
20.654752
 20
213.154473
 30
0.0
 10
21.308316
 20
213.154473
 30
0.0
 10
21.838784
 20
213.460739
 30
0.0
  0
SPLINE
  5
140
100
AcDbEntity
  8
0
 62
5
100
AcDbSpline
 70
8
 71
3
 72
8
 73
4
 74
0
 40
0
 40
0
 40
0
 40
0
 40
1
 40
1
 40
1
 40
1
 10
21.838784
 20
213.460739
 30
0.0
 10
22.369252
 20
213.767005
 30
0.0
 10
22.696034
 20
214.333008
 30
0.0
 10
22.696034
 20
214.945540
 30
0.0
  0
LWPOLYLINE
  5
141
100
AcDbEntity
  8
0
 62
5
100
AcDbPolyline
 90
2
 70
1
 10
49.645435
 20
214.945540
 30
0.0
 10
49.645435
 20
214.945540
 30
0.0
  0
SPLINE
  5
142
100
AcDbEntity
  8
0
 62
5
100
AcDbSpline
 70
8
 71
3
 72
8
 73
4
 74
0
 40
0
 40
0
 40
0
 40
0
 40
1
 40
1
 40
1
 40
1
 10
49.645435
 20
264.145537
 30
0.0
 10
49.645435
 20
264.758069
 30
0.0
 10
49.318653
 20
265.324072
 30
0.0
 10
48.788185
 20
265.630338
 30
0.0
  0
SPLINE
  5
143
100
AcDbEntity
  8
0
 62
5
100
AcDbSpline
 70
8
 71
3
 72
8
 73
4
 74
0
 40
0
 40
0
 40
0
 40
0
 40
1
 40
1
 40
1
 40
1
 10
48.788185
 20
265.630338
 30
0.0
 10
48.257716
 20
265.936604
 30
0.0
 10
47.604153
 20
265.936604
 30
0.0
 10
47.073685
 20
265.630338
 30
0.0
  0
SPLINE
  5
144
100
AcDbEntity
  8
0
 62
5
100
AcDbSpline
 70
8
 71
3
 72
8
 73
4
 74
0
 40
0
 40
0
 40
0
 40
0
 40
1
 40
1
 40
1
 40
1
 10
47.073685
 20
265.630338
 30
0.0
 10
46.543216
 20
265.324072
 30
0.0
 10
46.216435
 20
264.758069
 30
0.0
 10
46.216435
 20
264.145537
 30
0.0
  0
SPLINE
  5
145
100
AcDbEntity
  8
0
 62
5
100
AcDbSpline
 70
8
 71
3
 72
8
 73
4
 74
0
 40
0
 40
0
 40
0
 40
0
 40
1
 40
1
 40
1
 40
1
 10
46.216435
 20
264.145537
 30
0.0
 10
46.216435
 20
263.533006
 30
0.0
 10
46.543216
 20
262.967003
 30
0.0
 10
47.073685
 20
262.660737
 30
0.0
  0
SPLINE
  5
146
100
AcDbEntity
  8
0
 62
5
100
AcDbSpline
 70
8
 71
3
 72
8
 73
4
 74
0
 40
0
 40
0
 40
0
 40
0
 40
1
 40
1
 40
1
 40
1
 10
47.073685
 20
262.660737
 30
0.0
 10
47.604153
 20
262.354471
 30
0.0
 10
48.257716
 20
262.354471
 30
0.0
 10
48.788185
 20
262.660737
 30
0.0
  0
SPLINE
  5
147
100
AcDbEntity
  8
0
 62
5
100
AcDbSpline
 70
8
 71
3
 72
8
 73
4
 74
0
 40
0
 40
0
 40
0
 40
0
 40
1
 40
1
 40
1
 40
1
 10
48.788185
 20
262.660737
 30
0.0
 10
49.318653
 20
262.967003
 30
0.0
 10
49.645435
 20
263.533006
 30
0.0
 10
49.645435
 20
264.145537
 30
0.0
  0
LWPOLYLINE
  5
148
100
AcDbEntity
  8
0
 62
5
100
AcDbPolyline
 90
2
 70
1
 10
22.696034
 20
214.945540
 30
0.0
 10
22.696034
 20
214.945540
 30
0.0
  0
SPLINE
  5
149
100
AcDbEntity
  8
0
 62
5
100
AcDbSpline
 70
8
 71
3
 72
8
 73
4
 74
0
 40
0
 40
0
 40
0
 40
0
 40
1
 40
1
 40
1
 40
1
 10
171.871533
 20
239.545539
 30
0.0
 10
171.873003
 20
244.905502
 30
0.0
 10
169.014341
 20
249.858943
 30
0.0
 10
164.372721
 20
252.539349
 30
0.0
  0
SPLINE
  5
14a
100
AcDbEntity
  8
0
 62
5
100
AcDbSpline
 70
8
 71
3
 72
8
 73
4
 74
0
 40
0
 40
0
 40
0
 40
0
 40
1
 40
1
 40
1
 40
1
 10
164.372721
 20
252.539349
 30
0.0
 10
159.731101
 20
255.219755
 30
0.0
 10
154.011965
 20
255.219755
 30
0.0
 10
149.370345
 20
252.539349
 30
0.0
  0
SPLINE
  5
14b
100
AcDbEntity
  8
0
 62
5
100
AcDbSpline
 70
8
 71
3
 72
8
 73
4
 74
0
 40
0
 40
0
 40
0
 40
0
 40
1
 40
1
 40
1
 40
1
 10
149.370345
 20
252.539349
 30
0.0
 10
144.728725
 20
249.858943
 30
0.0
 10
141.870063
 20
244.905502
 30
0.0
 10
141.871533
 20
239.545539
 30
0.0
  0
SPLINE
  5
14c
100
AcDbEntity
  8
0
 62
5
100
AcDbSpline
 70
8
 71
3
 72
8
 73
4
 74
0
 40
0
 40
0
 40
0
 40
0
 40
1
 40
1
 40
1
 40
1
 10
141.871533
 20
239.545539
 30
0.0
 10
141.873806
 20
231.262875
 30
0.0
 10
148.588869
 20
224.549653
 30
0.0
 10
156.871533
 20
224.549653
 30
0.0
  0
SPLINE
  5
14d
100
AcDbEntity
  8
0
 62
5
100
AcDbSpline
 70
8
 71
3
 72
8
 73
4
 74
0
 40
0
 40
0
 40
0
 40
0
 40
1
 40
1
 40
1
 40
1
 10
156.871533
 20
224.549653
 30
0.0
 10
165.154198
 20
224.549653
 30
0.0
 10
171.869261
 20
231.262875
 30
0.0
 10
171.871533
 20
239.545539
 30
0.0
  0
LWPOLYLINE
  5
14e
100
AcDbEntity
  8
0
 62
5
100
AcDbPolyline
 90
2
 70
1
 10
49.645435
 20
264.145537
 30
0.0
 10
49.645435
 20
264.145537
 30
0.0
  0
LWPOLYLINE
  5
14f
100
AcDbEntity
  8
0
 62
5
100
AcDbPolyline
 90
2
 70
1
 10
171.871533
 20
239.545539
 30
0.0
 10
171.871533
 20
239.545539
 30
0.0
  0
LWPOLYLINE
  5
150
100
AcDbEntity
  8
0
 62
5
100
AcDbPolyline
 90
5
 70
0
 10
21.997534
 20
226.250538
 30
0.0
 10
33.347533
 20
226.250538
 30
0.0
 10
33.347533
 20
229.425538
 30
0.0
 10
21.997534
 20
229.425538
 30
0.0
 10
21.997534
 20
226.250538
 30
0.0
  0
LWPOLYLINE
  5
151
100
AcDbEntity
  8
0
 62
5
100
AcDbPolyline
 90
5
 70
0
 10
109.707533
 20
249.745538
 30
0.0
 10
121.057535
 20
249.745538
 30
0.0
 10
121.057535
 20
252.920538
 30
0.0
 10
109.707533
 20
252.920538
 30
0.0
 10
109.707533
 20
249.745538
 30
0.0
  0
LWPOLYLINE
  5
152
100
AcDbEntity
  8
0
 62
5
100
AcDbPolyline
 90
5
 70
0
 10
21.997534
 20
249.745538
 30
0.0
 10
33.347533
 20
249.745538
 30
0.0
 10
33.347533
 20
252.920538
 30
0.0
 10
21.997534
 20
252.920538
 30
0.0
 10
21.997534
 20
249.745538
 30
0.0
  0
LWPOLYLINE
  5
153
100
AcDbEntity
  8
0
 62
5
100
AcDbPolyline
 90
5
 70
0
 10
109.707533
 20
226.250538
 30
0.0
 10
121.057535
 20
226.250538
 30
0.0
 10
121.057535
 20
229.425538
 30
0.0
 10
109.707533
 20
229.425538
 30
0.0
 10
109.707533
 20
226.250538
 30
0.0
  0
LWPOLYLINE
  5
154
100
AcDbEntity
  8
0
 62
5
100
AcDbPolyline
 90
2
 70
0
 10
104.434756
 20
137.143740
 30
0.0
 10
104.434756
 20
116.823740
 30
0.0
  0
LWPOLYLINE
  5
155
100
AcDbEntity
  8
0
 62
5
100
AcDbPolyline
 90
2
 70
0
 10
43.474756
 20
137.143740
 30
0.0
 10
104.434756
 20
137.143740
 30
0.0
  0
LWPOLYLINE
  5
156
100
AcDbEntity
  8
0
 62
5
100
AcDbPolyline
 90
2
 70
0
 10
43.474756
 20
116.823740
 30
0.0
 10
43.474756
 20
137.143740
 30
0.0
  0
LWPOLYLINE
  5
157
100
AcDbEntity
  8
0
 62
5
100
AcDbPolyline
 90
2
 70
0
 10
104.434756
 20
116.823740
 30
0.0
 10
43.474756
 20
116.823740
 30
0.0
  0
LWPOLYLINE
  5
158
100
AcDbEntity
  8
0
 62
1
100
AcDbPolyline
 90
2
 70
0
 10
221.274756
 20
176.943739
 30
0.0
 10
5.374757
 20
176.943739
 30
0.0
  0
LWPOLYLINE
  5
159
100
AcDbEntity
  8
0
 62
1
100
AcDbPolyline
 90
2
 70
0
 10
221.274756
 20
76.943739
 30
0.0
 10
221.274756
 20
176.943739
 30
0.0
  0
LWPOLYLINE
  5
15a
100
AcDbEntity
  8
0
 62
1
100
AcDbPolyline
 90
2
 70
0
 10
5.374757
 20
76.943739
 30
0.0
 10
221.274756
 20
76.943739
 30
0.0
  0
LWPOLYLINE
  5
15b
100
AcDbEntity
  8
0
 62
1
100
AcDbPolyline
 90
2
 70
0
 10
5.374757
 20
176.943739
 30
0.0
 10
5.374757
 20
76.943739
 30
0.0
  0
LWPOLYLINE
  5
15c
100
AcDbEntity
  8
0
 62
5
100
AcDbPolyline
 90
5
 70
0
 10
16.724757
 20
163.768739
 30
0.0
 10
28.074757
 20
163.768739
 30
0.0
 10
28.074757
 20
166.943739
 30
0.0
 10
16.724757
 20
166.943739
 30
0.0
 10
16.724757
 20
163.768739
 30
0.0
  0
LWPOLYLINE
  5
15d
100
AcDbEntity
  8
0
 62
5
100
AcDbPolyline
 90
5
 70
0
 10
198.574756
 20
163.768739
 30
0.0
 10
209.924757
 20
163.768739
 30
0.0
 10
209.924757
 20
166.943739
 30
0.0
 10
198.574756
 20
166.943739
 30
0.0
 10
198.574756
 20
163.768739
 30
0.0
  0
LWPOLYLINE
  5
15e
100
AcDbEntity
  8
0
 62
5
100
AcDbPolyline
 90
5
 70
0
 10
175.874767
 20
163.768739
 30
0.0
 10
187.224766
 20
163.768739
 30
0.0
 10
187.224766
 20
166.943739
 30
0.0
 10
175.874767
 20
166.943739
 30
0.0
 10
175.874767
 20
163.768739
 30
0.0
  0
LWPOLYLINE
  5
15f
100
AcDbEntity
  8
0
 62
5
100
AcDbPolyline
 90
5
 70
0
 10
62.124757
 20
163.768739
 30
0.0
 10
73.474755
 20
163.768739
 30
0.0
 10
73.474755
 20
166.943739
 30
0.0
 10
62.124757
 20
166.943739
 30
0.0
 10
62.124757
 20
163.768739
 30
0.0
  0
LWPOLYLINE
  5
160
100
AcDbEntity
  8
0
 62
5
100
AcDbPolyline
 90
5
 70
0
 10
39.424757
 20
163.768739
 30
0.0
 10
50.774755
 20
163.768739
 30
0.0
 10
50.774755
 20
166.943739
 30
0.0
 10
39.424757
 20
166.943739
 30
0.0
 10
39.424757
 20
163.768739
 30
0.0
  0
LWPOLYLINE
  5
161
100
AcDbEntity
  8
0
 62
5
100
AcDbPolyline
 90
5
 70
0
 10
16.724757
 20
86.943738
 30
0.0
 10
28.074757
 20
86.943738
 30
0.0
 10
28.074757
 20
90.118738
 30
0.0
 10
16.724757
 20
90.118738
 30
0.0
 10
16.724757
 20
86.943738
 30
0.0
  0
LWPOLYLINE
  5
162
100
AcDbEntity
  8
0
 62
5
100
AcDbPolyline
 90
5
 70
0
 10
198.574756
 20
86.943738
 30
0.0
 10
209.924757
 20
86.943738
 30
0.0
 10
209.924757
 20
90.118738
 30
0.0
 10
198.574756
 20
90.118738
 30
0.0
 10
198.574756
 20
86.943738
 30
0.0
  0
LWPOLYLINE
  5
163
100
AcDbEntity
  8
0
 62
5
100
AcDbPolyline
 90
5
 70
0
 10
175.874767
 20
86.943738
 30
0.0
 10
187.224766
 20
86.943738
 30
0.0
 10
187.224766
 20
90.118738
 30
0.0
 10
175.874767
 20
90.118738
 30
0.0
 10
175.874767
 20
86.943738
 30
0.0
  0
LWPOLYLINE
  5
164
100
AcDbEntity
  8
0
 62
5
100
AcDbPolyline
 90
5
 70
0
 10
62.124757
 20
86.943738
 30
0.0
 10
73.474755
 20
86.943738
 30
0.0
 10
73.474755
 20
90.118738
 30
0.0
 10
62.124757
 20
90.118738
 30
0.0
 10
62.124757
 20
86.943738
 30
0.0
  0
SPLINE
  5
165
100
AcDbEntity
  8
0
 62
5
100
AcDbSpline
 70
8
 71
3
 72
8
 73
4
 74
0
 40
0
 40
0
 40
0
 40
0
 40
1
 40
1
 40
1
 40
1
 10
166.874757
 20
126.943740
 30
0.0
 10
166.874757
 20
130.194857
 30
0.0
 10
165.140307
 20
133.199013
 30
0.0
 10
162.324757
 20
134.824572
 30
0.0
  0
SPLINE
  5
166
100
AcDbEntity
  8
0
 62
5
100
AcDbSpline
 70
8
 71
3
 72
8
 73
4
 74
0
 40
0
 40
0
 40
0
 40
0
 40
1
 40
1
 40
1
 40
1
 10
162.324757
 20
134.824572
 30
0.0
 10
159.509207
 20
136.450130
 30
0.0
 10
156.040307
 20
136.450130
 30
0.0
 10
153.224757
 20
134.824572
 30
0.0
  0
SPLINE
  5
167
100
AcDbEntity
  8
0
 62
5
100
AcDbSpline
 70
8
 71
3
 72
8
 73
4
 74
0
 40
0
 40
0
 40
0
 40
0
 40
1
 40
1
 40
1
 40
1
 10
153.224757
 20
134.824572
 30
0.0
 10
150.409207
 20
133.199013
 30
0.0
 10
148.674757
 20
130.194857
 30
0.0
 10
148.674757
 20
126.943740
 30
0.0
  0
SPLINE
  5
168
100
AcDbEntity
  8
0
 62
5
100
AcDbSpline
 70
8
 71
3
 72
8
 73
4
 74
0
 40
0
 40
0
 40
0
 40
0
 40
1
 40
1
 40
1
 40
1
 10
148.674757
 20
126.943740
 30
0.0
 10
148.674757
 20
123.692623
 30
0.0
 10
150.409207
 20
120.688467
 30
0.0
 10
153.224757
 20
119.062909
 30
0.0
  0
SPLINE
  5
169
100
AcDbEntity
  8
0
 62
5
100
AcDbSpline
 70
8
 71
3
 72
8
 73
4
 74
0
 40
0
 40
0
 40
0
 40
0
 40
1
 40
1
 40
1
 40
1
 10
153.224757
 20
119.062909
 30
0.0
 10
156.040307
 20
117.437351
 30
0.0
 10
159.509207
 20
117.437351
 30
0.0
 10
162.324757
 20
119.062909
 30
0.0
  0
SPLINE
  5
16a
100
AcDbEntity
  8
0
 62
5
100
AcDbSpline
 70
8
 71
3
 72
8
 73
4
 74
0
 40
0
 40
0
 40
0
 40
0
 40
1
 40
1
 40
1
 40
1
 10
162.324757
 20
119.062909
 30
0.0
 10
165.140307
 20
120.688467
 30
0.0
 10
166.874757
 20
123.692623
 30
0.0
 10
166.874757
 20
126.943740
 30
0.0
  0
LWPOLYLINE
  5
16b
100
AcDbEntity
  8
0
 62
5
100
AcDbPolyline
 90
5
 70
0
 10
39.424757
 20
86.943738
 30
0.0
 10
50.774755
 20
86.943738
 30
0.0
 10
50.774755
 20
90.118738
 30
0.0
 10
39.424757
 20
90.118738
 30
0.0
 10
39.424757
 20
86.943738
 30
0.0
  0
SPLINE
  5
16c
100
AcDbEntity
  8
0
 62
5
100
AcDbSpline
 70
8
 71
3
 72
8
 73
4
 74
0
 40
0
 40
0
 40
0
 40
0
 40
1
 40
1
 40
1
 40
1
 10
189.753356
 20
140.418339
 30
0.0
 10
189.753356
 20
141.053557
 30
0.0
 10
189.414471
 20
141.640523
 30
0.0
 10
188.864356
 20
141.958132
 30
0.0
  0
SPLINE
  5
16d
100
AcDbEntity
  8
0
 62
5
100
AcDbSpline
 70
8
 71
3
 72
8
 73
4
 74
0
 40
0
 40
0
 40
0
 40
0
 40
1
 40
1
 40
1
 40
1
 10
188.864356
 20
141.958132
 30
0.0
 10
188.314241
 20
142.275741
 30
0.0
 10
187.636471
 20
142.275741
 30
0.0
 10
187.086356
 20
141.958132
 30
0.0
  0
SPLINE
  5
16e
100
AcDbEntity
  8
0
 62
5
100
AcDbSpline
 70
8
 71
3
 72
8
 73
4
 74
0
 40
0
 40
0
 40
0
 40
0
 40
1
 40
1
 40
1
 40
1
 10
187.086356
 20
141.958132
 30
0.0
 10
186.536241
 20
141.640523
 30
0.0
 10
186.197356
 20
141.053557
 30
0.0
 10
186.197356
 20
140.418339
 30
0.0
  0
SPLINE
  5
16f
100
AcDbEntity
  8
0
 62
5
100
AcDbSpline
 70
8
 71
3
 72
8
 73
4
 74
0
 40
0
 40
0
 40
0
 40
0
 40
1
 40
1
 40
1
 40
1
 10
186.197356
 20
140.418339
 30
0.0
 10
186.197356
 20
139.783121
 30
0.0
 10
186.536241
 20
139.196155
 30
0.0
 10
187.086356
 20
138.878546
 30
0.0
  0
SPLINE
  5
170
100
AcDbEntity
  8
0
 62
5
100
AcDbSpline
 70
8
 71
3
 72
8
 73
4
 74
0
 40
0
 40
0
 40
0
 40
0
 40
1
 40
1
 40
1
 40
1
 10
187.086356
 20
138.878546
 30
0.0
 10
187.636471
 20
138.560936
 30
0.0
 10
188.314241
 20
138.560936
 30
0.0
 10
188.864356
 20
138.878546
 30
0.0
  0
SPLINE
  5
171
100
AcDbEntity
  8
0
 62
5
100
AcDbSpline
 70
8
 71
3
 72
8
 73
4
 74
0
 40
0
 40
0
 40
0
 40
0
 40
1
 40
1
 40
1
 40
1
 10
188.864356
 20
138.878546
 30
0.0
 10
189.414471
 20
139.196155
 30
0.0
 10
189.753356
 20
139.783121
 30
0.0
 10
189.753356
 20
140.418339
 30
0.0
  0
LWPOLYLINE
  5
172
100
AcDbEntity
  8
0
 62
5
100
AcDbPolyline
 90
2
 70
1
 10
166.874757
 20
126.943740
 30
0.0
 10
166.874757
 20
126.943740
 30
0.0
  0
SPLINE
  5
173
100
AcDbEntity
  8
0
 62
5
100
AcDbSpline
 70
8
 71
3
 72
8
 73
4
 74
0
 40
0
 40
0
 40
0
 40
0
 40
1
 40
1
 40
1
 40
1
 10
197.652756
 20
113.468939
 30
0.0
 10
197.652756
 20
114.104157
 30
0.0
 10
197.313871
 20
114.691123
 30
0.0
 10
196.763756
 20
115.008732
 30
0.0
  0
SPLINE
  5
174
100
AcDbEntity
  8
0
 62
5
100
AcDbSpline
 70
8
 71
3
 72
8
 73
4
 74
0
 40
0
 40
0
 40
0
 40
0
 40
1
 40
1
 40
1
 40
1
 10
196.763756
 20
115.008732
 30
0.0
 10
196.213641
 20
115.326341
 30
0.0
 10
195.535871
 20
115.326341
 30
0.0
 10
194.985756
 20
115.008732
 30
0.0
  0
SPLINE
  5
175
100
AcDbEntity
  8
0
 62
5
100
AcDbSpline
 70
8
 71
3
 72
8
 73
4
 74
0
 40
0
 40
0
 40
0
 40
0
 40
1
 40
1
 40
1
 40
1
 10
194.985756
 20
115.008732
 30
0.0
 10
194.435641
 20
114.691123
 30
0.0
 10
194.096756
 20
114.104157
 30
0.0
 10
194.096756
 20
113.468939
 30
0.0
  0
SPLINE
  5
176
100
AcDbEntity
  8
0
 62
5
100
AcDbSpline
 70
8
 71
3
 72
8
 73
4
 74
0
 40
0
 40
0
 40
0
 40
0
 40
1
 40
1
 40
1
 40
1
 10
194.096756
 20
113.468939
 30
0.0
 10
194.096756
 20
112.833721
 30
0.0
 10
194.435641
 20
112.246755
 30
0.0
 10
194.985756
 20
111.929146
 30
0.0
  0
SPLINE
  5
177
100
AcDbEntity
  8
0
 62
5
100
AcDbSpline
 70
8
 71
3
 72
8
 73
4
 74
0
 40
0
 40
0
 40
0
 40
0
 40
1
 40
1
 40
1
 40
1
 10
194.985756
 20
111.929146
 30
0.0
 10
195.535871
 20
111.611536
 30
0.0
 10
196.213641
 20
111.611536
 30
0.0
 10
196.763756
 20
111.929146
 30
0.0
  0
SPLINE
  5
178
100
AcDbEntity
  8
0
 62
5
100
AcDbSpline
 70
8
 71
3
 72
8
 73
4
 74
0
 40
0
 40
0
 40
0
 40
0
 40
1
 40
1
 40
1
 40
1
 10
196.763756
 20
111.929146
 30
0.0
 10
197.313871
 20
112.246755
 30
0.0
 10
197.652756
 20
112.833721
 30
0.0
 10
197.652756
 20
113.468939
 30
0.0
  0
LWPOLYLINE
  5
179
100
AcDbEntity
  8
0
 62
5
100
AcDbPolyline
 90
2
 70
1
 10
189.753356
 20
140.418339
 30
0.0
 10
189.753356
 20
140.418339
 30
0.0
  0
SPLINE
  5
17a
100
AcDbEntity
  8
0
 62
5
100
AcDbSpline
 70
8
 71
3
 72
8
 73
4
 74
0
 40
0
 40
0
 40
0
 40
0
 40
1
 40
1
 40
1
 40
1
 10
189.753356
 20
113.468939
 30
0.0
 10
189.753356
 20
114.104157
 30
0.0
 10
189.414471
 20
114.691123
 30
0.0
 10
188.864356
 20
115.008732
 30
0.0
  0
SPLINE
  5
17b
100
AcDbEntity
  8
0
 62
5
100
AcDbSpline
 70
8
 71
3
 72
8
 73
4
 74
0
 40
0
 40
0
 40
0
 40
0
 40
1
 40
1
 40
1
 40
1
 10
188.864356
 20
115.008732
 30
0.0
 10
188.314241
 20
115.326341
 30
0.0
 10
187.636471
 20
115.326341
 30
0.0
 10
187.086356
 20
115.008732
 30
0.0
  0
SPLINE
  5
17c
100
AcDbEntity
  8
0
 62
5
100
AcDbSpline
 70
8
 71
3
 72
8
 73
4
 74
0
 40
0
 40
0
 40
0
 40
0
 40
1
 40
1
 40
1
 40
1
 10
187.086356
 20
115.008732
 30
0.0
 10
186.536241
 20
114.691123
 30
0.0
 10
186.197356
 20
114.104157
 30
0.0
 10
186.197356
 20
113.468939
 30
0.0
  0
SPLINE
  5
17d
100
AcDbEntity
  8
0
 62
5
100
AcDbSpline
 70
8
 71
3
 72
8
 73
4
 74
0
 40
0
 40
0
 40
0
 40
0
 40
1
 40
1
 40
1
 40
1
 10
186.197356
 20
113.468939
 30
0.0
 10
186.197356
 20
112.833721
 30
0.0
 10
186.536241
 20
112.246755
 30
0.0
 10
187.086356
 20
111.929146
 30
0.0
  0
SPLINE
  5
17e
100
AcDbEntity
  8
0
 62
5
100
AcDbSpline
 70
8
 71
3
 72
8
 73
4
 74
0
 40
0
 40
0
 40
0
 40
0
 40
1
 40
1
 40
1
 40
1
 10
187.086356
 20
111.929146
 30
0.0
 10
187.636471
 20
111.611536
 30
0.0
 10
188.314241
 20
111.611536
 30
0.0
 10
188.864356
 20
111.929146
 30
0.0
  0
SPLINE
  5
17f
100
AcDbEntity
  8
0
 62
5
100
AcDbSpline
 70
8
 71
3
 72
8
 73
4
 74
0
 40
0
 40
0
 40
0
 40
0
 40
1
 40
1
 40
1
 40
1
 10
188.864356
 20
111.929146
 30
0.0
 10
189.414471
 20
112.246755
 30
0.0
 10
189.753356
 20
112.833721
 30
0.0
 10
189.753356
 20
113.468939
 30
0.0
  0
LWPOLYLINE
  5
180
100
AcDbEntity
  8
0
 62
5
100
AcDbPolyline
 90
2
 70
1
 10
197.652756
 20
113.468939
 30
0.0
 10
197.652756
 20
113.468939
 30
0.0
  0
SPLINE
  5
181
100
AcDbEntity
  8
0
 62
5
100
AcDbSpline
 70
8
 71
3
 72
8
 73
4
 74
0
 40
0
 40
0
 40
0
 40
0
 40
1
 40
1
 40
1
 40
1
 10
197.652756
 20
140.418339
 30
0.0
 10
197.652756
 20
141.053557
 30
0.0
 10
197.313871
 20
141.640523
 30
0.0
 10
196.763756
 20
141.958132
 30
0.0
  0
SPLINE
  5
182
100
AcDbEntity
  8
0
 62
5
100
AcDbSpline
 70
8
 71
3
 72
8
 73
4
 74
0
 40
0
 40
0
 40
0
 40
0
 40
1
 40
1
 40
1
 40
1
 10
196.763756
 20
141.958132
 30
0.0
 10
196.213641
 20
142.275741
 30
0.0
 10
195.535871
 20
142.275741
 30
0.0
 10
194.985756
 20
141.958132
 30
0.0
  0
SPLINE
  5
183
100
AcDbEntity
  8
0
 62
5
100
AcDbSpline
 70
8
 71
3
 72
8
 73
4
 74
0
 40
0
 40
0
 40
0
 40
0
 40
1
 40
1
 40
1
 40
1
 10
194.985756
 20
141.958132
 30
0.0
 10
194.435641
 20
141.640523
 30
0.0
 10
194.096756
 20
141.053557
 30
0.0
 10
194.096756
 20
140.418339
 30
0.0
  0
SPLINE
  5
184
100
AcDbEntity
  8
0
 62
5
100
AcDbSpline
 70
8
 71
3
 72
8
 73
4
 74
0
 40
0
 40
0
 40
0
 40
0
 40
1
 40
1
 40
1
 40
1
 10
194.096756
 20
140.418339
 30
0.0
 10
194.096756
 20
139.783121
 30
0.0
 10
194.435641
 20
139.196155
 30
0.0
 10
194.985756
 20
138.878546
 30
0.0
  0
SPLINE
  5
185
100
AcDbEntity
  8
0
 62
5
100
AcDbSpline
 70
8
 71
3
 72
8
 73
4
 74
0
 40
0
 40
0
 40
0
 40
0
 40
1
 40
1
 40
1
 40
1
 10
194.985756
 20
138.878546
 30
0.0
 10
195.535871
 20
138.560936
 30
0.0
 10
196.213641
 20
138.560936
 30
0.0
 10
196.763756
 20
138.878546
 30
0.0
  0
SPLINE
  5
186
100
AcDbEntity
  8
0
 62
5
100
AcDbSpline
 70
8
 71
3
 72
8
 73
4
 74
0
 40
0
 40
0
 40
0
 40
0
 40
1
 40
1
 40
1
 40
1
 10
196.763756
 20
138.878546
 30
0.0
 10
197.313871
 20
139.196155
 30
0.0
 10
197.652756
 20
139.783121
 30
0.0
 10
197.652756
 20
140.418339
 30
0.0
  0
LWPOLYLINE
  5
187
100
AcDbEntity
  8
0
 62
5
100
AcDbPolyline
 90
2
 70
1
 10
189.753356
 20
113.468939
 30
0.0
 10
189.753356
 20
113.468939
 30
0.0
  0
LWPOLYLINE
  5
188
100
AcDbEntity
  8
0
 62
5
100
AcDbPolyline
 90
2
 70
1
 10
197.652756
 20
140.418339
 30
0.0
 10
197.652756
 20
140.418339
 30
0.0
  0
LWPOLYLINE
  5
189
100
AcDbEntity
  8
0
 62
5
100
AcDbPolyline
 90
5
 70
0
 10
22.900757
 20
113.648740
 30
0.0
 10
34.250757
 20
113.648740
 30
0.0
 10
34.250757
 20
116.823740
 30
0.0
 10
22.900757
 20
116.823740
 30
0.0
 10
22.900757
 20
113.648740
 30
0.0
  0
LWPOLYLINE
  5
18a
100
AcDbEntity
  8
0
 62
5
100
AcDbPolyline
 90
5
 70
0
 10
110.610757
 20
137.143740
 30
0.0
 10
121.960756
 20
137.143740
 30
0.0
 10
121.960756
 20
140.318740
 30
0.0
 10
110.610757
 20
140.318740
 30
0.0
 10
110.610757
 20
137.143740
 30
0.0
  0
LWPOLYLINE
  5
18b
100
AcDbEntity
  8
0
 62
5
100
AcDbPolyline
 90
5
 70
0
 10
110.610757
 20
113.648740
 30
0.0
 10
121.960756
 20
113.648740
 30
0.0
 10
121.960756
 20
116.823740
 30
0.0
 10
110.610757
 20
116.823740
 30
0.0
 10
110.610757
 20
113.648740
 30
0.0
  0
LWPOLYLINE
  5
18c
100
AcDbEntity
  8
0
 62
5
100
AcDbPolyline
 90
5
 70
0
 10
22.900757
 20
137.143740
 30
0.0
 10
34.250757
 20
137.143740
 30
0.0
 10
34.250757
 20
140.318740
 30
0.0
 10
22.900757
 20
140.318740
 30
0.0
 10
22.900757
 20
137.143740
 30
0.0
  0
ENDSEC
  0
SECTION
  2
OBJECTS
  0
DICTIONARY
  5
C
330
0
100
AcDbDictionary
  3
ACAD_GROUP
350
D
  3
ACAD_MLINESTYLE
350
17
  0
DICTIONARY
  5
D
330
C
100
AcDbDictionary
  0
DICTIONARY
  5
1A
330
C
100
AcDbDictionary
  0
DICTIONARY
  5
17
330
C
100
AcDbDictionary
  3
STANDARD
350
18
  0
DICTIONARY
  5
19
330
C
100
AcDbDictionary
  0
ENDSEC
  0
EOF
